{"glyphs":{"0":{"ha":913,"x_min":74,"x_max":839,"o":"m 458 -14 q 265 47 353 -14 q 126 218 178 107 q 74 479 74 329 q 125 740 74 631 q 263 909 176 849 q 456 969 350 969 q 649 910 563 969 q 788 740 736 850 q 839 478 839 629 q 788 217 839 328 q 650 46 736 106 q 458 -14 564 -14 m 456 82 q 601 128 538 82 q 700 263 664 175 q 736 479 736 351 q 700 694 736 606 q 601 828 664 782 q 456 874 538 874 q 312 828 375 874 q 213 694 249 782 q 176 479 176 607 q 213 263 176 351 q 312 128 249 175 q 456 82 375 82 z "},"1":{"ha":469,"x_min":50,"x_max":351,"o":"m 251 0 l 251 956 l 351 956 l 351 0 l 251 0 m 50 865 l 50 956 l 338 956 l 338 865 l 50 865 z "},"2":{"ha":750,"x_min":53,"x_max":688,"o":"m 53 63 l 407 432 q 502 542 468 497 q 549 623 536 586 q 563 700 563 660 q 511 828 563 782 q 375 875 460 875 q 239 838 297 875 q 135 728 181 801 l 64 790 q 197 924 119 878 q 378 969 275 969 q 528 936 464 969 q 628 842 593 903 q 664 699 664 781 q 649 595 664 642 q 595 498 633 549 q 488 375 557 447 l 188 67 l 53 63 m 53 0 l 53 63 l 136 92 l 688 92 l 688 0 l 53 0 z "},"3":{"ha":743,"x_min":50,"x_max":674,"o":"m 344 -14 q 177 22 253 -14 q 50 126 101 58 l 118 194 q 213 112 153 142 q 343 82 272 82 q 463 108 413 82 q 542 183 514 135 q 571 294 571 231 q 542 407 571 360 q 462 481 514 454 q 338 507 410 507 q 290 504 314 507 q 242 494 265 501 l 281 551 q 332 571 304 564 q 393 578 360 578 q 536 541 472 578 q 637 440 600 504 q 674 290 674 375 q 632 132 674 200 q 516 25 590 64 q 344 -14 442 -14 m 242 494 l 242 557 l 544 897 l 663 893 l 354 549 l 242 494 m 92 865 l 92 956 l 663 956 l 663 893 l 575 865 l 92 865 z "},"4":{"ha":829,"x_min":53,"x_max":776,"o":"m 53 317 l 410 956 l 524 956 l 161 317 l 53 317 m 53 253 l 53 317 l 96 344 l 776 344 l 776 253 l 53 253 m 535 0 l 535 638 l 635 638 l 635 0 l 535 0 z "},"5":{"ha":747,"x_min":49,"x_max":681,"o":"m 344 -14 q 175 22 250 -14 q 49 126 100 58 l 117 194 q 210 112 151 142 q 343 82 269 82 q 465 109 413 82 q 548 185 518 136 q 578 301 578 235 q 549 419 578 369 q 469 494 519 468 q 357 521 419 521 q 248 505 297 521 q 158 454 199 489 l 156 521 q 213 567 181 549 q 284 594 244 585 q 372 604 324 604 q 538 563 468 604 q 644 453 607 522 q 681 296 681 383 q 638 136 681 206 q 519 26 594 67 q 344 -14 443 -14 m 158 454 l 104 510 l 146 956 l 239 956 l 193 500 l 158 454 m 171 865 l 146 956 l 638 956 l 638 865 l 171 865 z "},"6":{"ha":785,"x_min":64,"x_max":722,"o":"m 392 -14 q 226 30 300 -14 q 108 147 151 74 q 64 311 64 221 q 149 550 64 433 l 449 956 l 568 956 l 271 563 l 235 549 q 280 591 254 574 q 339 618 306 608 q 415 628 372 628 q 569 587 500 628 q 681 475 639 546 q 722 314 722 404 q 678 149 722 224 q 558 31 633 75 q 392 -14 483 -14 m 393 81 q 508 112 456 81 q 590 197 560 143 q 621 314 621 250 q 590 432 621 379 q 508 516 560 485 q 393 547 456 547 q 277 516 329 547 q 195 433 225 485 q 165 314 165 381 q 195 195 165 249 q 277 111 225 142 q 393 81 329 81 z "},"7":{"ha":733,"x_min":50,"x_max":681,"o":"m 215 0 l 582 899 l 681 892 l 321 0 l 215 0 m 50 865 l 50 956 l 681 956 l 681 892 l 636 865 l 50 865 z "},"8":{"ha":767,"x_min":67,"x_max":700,"o":"m 383 -14 q 219 22 290 -14 q 107 122 147 58 q 67 265 67 185 q 92 383 67 329 q 165 474 118 436 q 275 526 213 513 l 286 497 q 192 546 231 513 q 132 626 153 579 q 111 724 111 672 q 147 852 111 797 q 244 939 182 907 q 383 971 306 971 q 524 939 463 971 q 621 852 586 907 q 656 724 656 797 q 635 626 656 672 q 576 546 615 579 q 481 497 538 513 l 492 526 q 602 474 556 513 q 674 383 649 436 q 700 265 700 329 q 660 122 700 185 q 549 22 621 58 q 383 -14 478 -14 m 383 78 q 497 103 447 78 q 574 173 546 128 q 601 275 601 218 q 574 377 601 333 q 497 447 546 421 q 383 472 447 472 q 272 447 321 472 q 194 377 222 421 q 165 275 165 333 q 194 173 165 218 q 271 103 222 128 q 383 78 319 78 m 383 551 q 510 598 461 551 q 560 718 560 644 q 510 838 560 792 q 383 883 461 883 q 257 838 307 883 q 207 718 207 792 q 257 598 207 644 q 383 551 307 551 z "},"9":{"ha":785,"x_min":63,"x_max":722,"o":"m 217 0 l 515 394 l 550 408 q 506 365 531 383 q 447 338 481 347 q 371 328 414 328 q 217 369 286 328 q 105 482 147 411 q 63 642 63 553 q 108 808 63 733 q 227 926 153 882 q 393 969 301 969 q 560 926 486 969 q 678 810 635 883 q 722 646 722 736 q 638 407 722 524 l 336 0 l 217 0 m 393 410 q 508 440 457 410 q 590 524 560 471 q 619 642 619 578 q 590 761 619 708 q 508 845 560 814 q 393 876 457 876 q 278 845 329 876 q 196 760 226 814 q 165 642 165 707 q 196 525 165 578 q 278 441 226 472 q 393 410 331 410 z "},"A":{"ha":958,"x_min":51,"x_max":907,"o":"m 51 0 l 443 956 l 519 956 l 907 0 l 797 0 l 460 844 l 500 844 l 160 0 l 51 0 m 231 249 l 231 339 l 731 339 l 731 249 l 231 249 z "},"Á":{"ha":958,"x_min":51,"x_max":907,"o":"m 51 0 l 443 956 l 519 956 l 907 0 l 797 0 l 460 844 l 500 844 l 160 0 l 51 0 m 231 249 l 231 339 l 731 339 l 731 249 l 231 249 m 393 1057 l 349 1101 l 533 1321 l 611 1243 l 393 1057 z "},"Ă":{"ha":958,"x_min":51,"x_max":907,"o":"m 51 0 l 443 956 l 519 956 l 907 0 l 797 0 l 460 844 l 500 844 l 160 0 l 51 0 m 231 249 l 231 339 l 731 339 l 731 249 l 231 249 m 708 1263 q 678 1147 708 1199 q 598 1065 649 1096 q 482 1035 547 1035 q 362 1065 414 1035 q 280 1147 310 1096 q 250 1263 250 1199 l 340 1263 q 378 1160 340 1201 q 483 1119 417 1119 q 552 1138 521 1119 q 601 1190 583 1157 q 619 1263 619 1222 l 708 1263 z "},"Ǎ":{"ha":958,"x_min":51,"x_max":907,"o":"m 51 0 l 443 956 l 519 956 l 907 0 l 797 0 l 460 844 l 500 844 l 160 0 l 51 0 m 231 249 l 231 339 l 731 339 l 731 249 l 231 249 m 664 1314 l 708 1271 l 518 1056 l 440 1056 l 250 1271 l 294 1314 l 511 1126 l 446 1126 l 664 1314 z "},"Â":{"ha":958,"x_min":51,"x_max":907,"o":"m 51 0 l 443 956 l 519 956 l 907 0 l 797 0 l 460 844 l 500 844 l 160 0 l 51 0 m 231 249 l 231 339 l 731 339 l 731 249 l 231 249 m 294 1056 l 250 1100 l 440 1314 l 518 1314 l 708 1100 l 664 1056 l 447 1244 l 513 1243 l 294 1056 z "},"Ä":{"ha":958,"x_min":51,"x_max":907,"o":"m 51 0 l 443 956 l 519 956 l 907 0 l 797 0 l 460 844 l 500 844 l 160 0 l 51 0 m 231 249 l 231 339 l 731 339 l 731 249 l 231 249 m 347 1069 q 300 1090 319 1069 q 281 1138 281 1110 q 300 1186 281 1167 q 347 1206 319 1206 q 397 1186 378 1206 q 415 1138 415 1167 q 397 1090 415 1110 q 347 1069 378 1069 m 611 1069 q 564 1090 583 1069 q 544 1138 544 1110 q 564 1186 544 1167 q 611 1206 583 1206 q 660 1186 642 1206 q 679 1138 679 1167 q 660 1090 679 1110 q 611 1069 642 1069 z "},"À":{"ha":958,"x_min":51,"x_max":907,"o":"m 51 0 l 443 956 l 519 956 l 907 0 l 797 0 l 460 844 l 500 844 l 160 0 l 51 0 m 231 249 l 231 339 l 731 339 l 731 249 l 231 249 m 535 1050 l 317 1236 l 394 1314 l 579 1094 l 535 1050 z "},"Ā":{"ha":958,"x_min":51,"x_max":907,"o":"m 51 0 l 443 956 l 519 956 l 907 0 l 797 0 l 460 844 l 500 844 l 160 0 l 51 0 m 231 249 l 231 339 l 731 339 l 731 249 l 231 249 m 242 1178 l 718 1178 l 718 1096 l 242 1096 l 242 1178 z "},"Ą":{"ha":958,"x_min":51,"x_max":961,"o":"m 51 0 l 443 956 l 519 956 l 907 0 l 797 0 l 460 844 l 500 844 l 160 0 l 51 0 m 231 249 l 231 339 l 731 339 l 731 249 l 231 249 m 857 -289 q 763 -260 803 -289 q 722 -168 722 -231 q 757 -65 722 -117 q 851 25 792 -14 l 907 0 q 829 -75 858 -37 q 800 -157 800 -112 q 817 -207 800 -190 q 868 -224 835 -224 q 903 -217 888 -224 q 933 -203 919 -211 l 961 -257 q 917 -279 942 -269 q 857 -289 892 -289 z "},"Å":{"ha":958,"x_min":51,"x_max":907,"o":"m 51 0 l 443 956 l 519 956 l 907 0 l 797 0 l 460 844 l 500 844 l 160 0 l 51 0 m 231 249 l 231 339 l 731 339 l 731 249 l 231 249 m 481 917 q 399 938 435 917 q 342 994 363 958 q 321 1074 321 1029 q 342 1153 321 1118 q 399 1210 363 1189 q 481 1231 435 1231 q 560 1210 525 1231 q 616 1153 596 1189 q 636 1074 636 1118 q 616 994 636 1029 q 561 938 596 958 q 481 917 526 917 m 482 990 q 538 1014 514 990 q 561 1074 561 1038 q 538 1134 561 1110 q 482 1158 514 1158 q 420 1134 443 1158 q 397 1074 397 1110 q 420 1015 397 1039 q 482 990 443 990 z "},"Ã":{"ha":958,"x_min":51,"x_max":907,"o":"m 51 0 l 443 956 l 519 956 l 907 0 l 797 0 l 460 844 l 500 844 l 160 0 l 51 0 m 231 249 l 231 339 l 731 339 l 731 249 l 231 249 m 582 1064 q 507 1080 538 1064 q 448 1111 476 1096 q 385 1126 419 1126 q 326 1113 347 1126 q 288 1074 306 1099 l 233 1126 q 298 1188 264 1164 q 383 1211 332 1211 q 460 1196 429 1211 q 519 1165 492 1181 q 581 1149 547 1149 q 635 1162 614 1149 q 672 1200 656 1175 l 726 1149 q 663 1087 697 1110 q 582 1064 629 1064 z "},"Æ":{"ha":1340,"x_min":51,"x_max":1272,"o":"m 51 0 l 443 956 l 763 956 l 763 863 l 507 863 l 160 0 l 51 0 m 240 353 l 240 442 l 729 442 l 729 353 l 240 353 m 757 0 l 757 93 l 1272 93 l 1272 0 l 757 0 m 689 0 l 689 956 l 792 956 l 792 0 l 689 0 m 753 444 l 753 535 l 1228 535 l 1228 444 l 753 444 m 757 863 l 757 956 l 1265 956 l 1265 863 l 757 863 z "},"B":{"ha":868,"x_min":122,"x_max":796,"o":"m 188 0 l 188 90 l 490 90 q 639 143 585 90 q 693 275 693 196 q 669 368 693 326 q 602 434 646 410 q 499 458 558 458 l 188 458 l 188 547 l 483 547 q 606 589 561 547 q 651 707 651 631 q 603 825 651 783 q 472 867 554 867 l 188 867 l 188 956 l 475 956 q 626 924 564 956 q 721 838 689 892 q 753 715 753 783 q 711 577 753 635 q 589 489 669 519 l 599 522 q 744 426 692 493 q 796 268 796 360 q 759 131 796 192 q 652 35 722 71 q 483 0 582 0 l 188 0 m 122 0 l 122 956 l 224 956 l 224 0 l 122 0 z "},"C":{"ha":963,"x_min":75,"x_max":907,"o":"m 556 -14 q 365 24 453 -14 q 211 129 276 61 q 110 287 146 197 q 75 479 75 376 q 110 672 75 582 q 210 828 146 761 q 363 932 275 894 q 551 969 450 969 q 748 931 661 969 q 900 824 835 892 l 831 754 q 710 841 781 810 q 551 872 639 872 q 403 843 471 872 q 285 760 336 814 q 208 635 235 707 q 181 479 181 564 q 208 322 181 394 q 286 197 236 250 q 404 114 336 143 q 553 85 472 85 q 716 117 644 85 q 838 204 788 149 l 907 133 q 754 26 843 65 q 556 -14 665 -14 z "},"Ć":{"ha":963,"x_min":75,"x_max":907,"o":"m 556 -14 q 365 24 453 -14 q 211 129 276 61 q 110 287 146 197 q 75 479 75 376 q 110 672 75 582 q 210 828 146 761 q 363 932 275 894 q 551 969 450 969 q 748 931 661 969 q 900 824 835 892 l 831 754 q 710 841 781 810 q 551 872 639 872 q 403 843 471 872 q 285 760 336 814 q 208 635 235 707 q 181 479 181 564 q 208 322 181 394 q 286 197 236 250 q 404 114 336 143 q 553 85 472 85 q 716 117 644 85 q 838 204 788 149 l 907 133 q 754 26 843 65 q 556 -14 665 -14 m 443 1057 l 399 1101 l 583 1321 l 661 1243 l 443 1057 z "},"Č":{"ha":963,"x_min":75,"x_max":907,"o":"m 556 -14 q 365 24 453 -14 q 211 129 276 61 q 110 287 146 197 q 75 479 75 376 q 110 672 75 582 q 210 828 146 761 q 363 932 275 894 q 551 969 450 969 q 748 931 661 969 q 900 824 835 892 l 831 754 q 710 841 781 810 q 551 872 639 872 q 403 843 471 872 q 285 760 336 814 q 208 635 235 707 q 181 479 181 564 q 208 322 181 394 q 286 197 236 250 q 404 114 336 143 q 553 85 472 85 q 716 117 644 85 q 838 204 788 149 l 907 133 q 754 26 843 65 q 556 -14 665 -14 m 714 1314 l 758 1271 l 568 1056 l 490 1056 l 300 1271 l 344 1314 l 561 1126 l 496 1126 l 714 1314 z "},"Ç":{"ha":963,"x_min":75,"x_max":907,"o":"m 556 -14 q 365 24 453 -14 q 211 129 276 61 q 110 287 146 197 q 75 479 75 376 q 110 672 75 582 q 210 828 146 761 q 363 932 275 894 q 551 969 450 969 q 748 931 661 969 q 900 824 835 892 l 831 754 q 710 841 781 810 q 551 872 639 872 q 403 843 471 872 q 285 760 336 814 q 208 635 235 707 q 181 479 181 564 q 208 322 181 394 q 286 197 236 250 q 404 114 336 143 q 553 85 472 85 q 716 117 644 85 q 838 204 788 149 l 907 133 q 754 26 843 65 q 556 -14 665 -14 m 511 -289 q 425 -275 465 -289 q 351 -236 385 -261 l 400 -182 q 446 -209 419 -199 q 506 -219 472 -219 q 573 -205 550 -219 q 596 -167 596 -190 q 572 -126 596 -142 q 503 -111 549 -111 l 453 -111 l 492 15 l 572 15 l 540 -82 l 503 -50 q 635 -81 588 -49 q 683 -168 683 -114 q 637 -256 683 -222 q 511 -289 590 -289 z "},"Ċ":{"ha":963,"x_min":75,"x_max":907,"o":"m 556 -14 q 365 24 453 -14 q 211 129 276 61 q 110 287 146 197 q 75 479 75 376 q 110 672 75 582 q 210 828 146 761 q 363 932 275 894 q 551 969 450 969 q 748 931 661 969 q 900 824 835 892 l 831 754 q 710 841 781 810 q 551 872 639 872 q 403 843 471 872 q 285 760 336 814 q 208 635 235 707 q 181 479 181 564 q 208 322 181 394 q 286 197 236 250 q 404 114 336 143 q 553 85 472 85 q 716 117 644 85 q 838 204 788 149 l 907 133 q 754 26 843 65 q 556 -14 665 -14 m 529 1069 q 482 1090 501 1069 q 463 1138 463 1110 q 482 1186 463 1167 q 529 1206 501 1206 q 578 1186 560 1206 q 597 1138 597 1167 q 578 1090 597 1110 q 529 1069 560 1069 z "},"D":{"ha":1026,"x_min":122,"x_max":953,"o":"m 185 0 l 185 94 l 465 94 q 664 144 578 94 q 799 280 750 193 q 847 479 847 367 q 799 678 847 592 q 664 813 750 764 q 465 863 578 863 l 188 863 l 188 956 l 468 956 q 660 920 572 956 q 815 820 749 885 q 917 669 881 756 q 953 478 953 582 q 917 289 953 376 q 815 137 881 201 q 662 36 750 72 q 471 0 574 0 l 185 0 m 122 0 l 122 956 l 224 956 l 224 0 l 122 0 z "},"Ð":{"ha":1040,"x_min":26,"x_max":967,"o":"m 26 529 l 529 529 l 529 444 l 26 444 l 26 529 m 199 0 l 199 94 l 479 94 q 678 144 592 94 q 813 280 764 193 q 861 479 861 367 q 813 678 861 592 q 678 813 764 764 q 479 863 592 863 l 201 863 l 201 956 l 482 956 q 674 920 586 956 q 828 820 763 885 q 931 669 894 756 q 967 478 967 582 q 931 289 967 376 q 829 137 894 201 q 676 36 764 72 q 485 0 588 0 l 199 0 m 136 0 l 136 956 l 238 956 l 238 0 l 136 0 z "},"Ď":{"ha":1026,"x_min":122,"x_max":953,"o":"m 185 0 l 185 94 l 465 94 q 664 144 578 94 q 799 280 750 193 q 847 479 847 367 q 799 678 847 592 q 664 813 750 764 q 465 863 578 863 l 188 863 l 188 956 l 468 956 q 660 920 572 956 q 815 820 749 885 q 917 669 881 756 q 953 478 953 582 q 917 289 953 376 q 815 137 881 201 q 662 36 750 72 q 471 0 574 0 l 185 0 m 122 0 l 122 956 l 224 956 l 224 0 l 122 0 m 653 1314 l 696 1271 l 507 1056 l 428 1056 l 239 1271 l 282 1314 l 500 1126 l 435 1126 l 653 1314 z "},"Đ":{"ha":1040,"x_min":0,"x_max":965,"o":"m 0 436 l 0 519 l 561 519 l 561 436 l 0 436 m 197 0 l 197 94 l 479 94 q 678 144 592 94 q 812 280 764 193 q 860 479 860 367 q 811 678 860 592 q 676 813 763 764 q 479 863 590 863 l 200 863 l 200 956 l 481 956 q 674 920 586 956 q 828 820 763 885 q 929 669 893 756 q 965 478 965 582 q 929 289 965 376 q 828 137 893 201 q 676 36 764 72 q 483 0 588 0 l 197 0 m 135 0 l 135 956 l 238 956 l 238 0 l 135 0 z "},"E":{"ha":818,"x_min":122,"x_max":751,"o":"m 122 0 l 122 956 l 224 956 l 224 0 l 122 0 m 189 0 l 189 93 l 751 93 l 751 0 l 189 0 m 189 444 l 189 535 l 707 535 l 707 444 l 189 444 m 189 863 l 189 956 l 743 956 l 743 863 l 189 863 z "},"É":{"ha":818,"x_min":122,"x_max":751,"o":"m 122 0 l 122 956 l 224 956 l 224 0 l 122 0 m 189 0 l 189 93 l 751 93 l 751 0 l 189 0 m 189 444 l 189 535 l 707 535 l 707 444 l 189 444 m 189 863 l 189 956 l 743 956 l 743 863 l 189 863 m 353 1057 l 308 1101 l 493 1321 l 571 1243 l 353 1057 z "},"Ě":{"ha":818,"x_min":122,"x_max":751,"o":"m 122 0 l 122 956 l 224 956 l 224 0 l 122 0 m 189 0 l 189 93 l 751 93 l 751 0 l 189 0 m 189 444 l 189 535 l 707 535 l 707 444 l 189 444 m 189 863 l 189 956 l 743 956 l 743 863 l 189 863 m 624 1314 l 668 1271 l 478 1056 l 400 1056 l 210 1271 l 254 1314 l 471 1126 l 406 1126 l 624 1314 z "},"Ê":{"ha":818,"x_min":122,"x_max":751,"o":"m 122 0 l 122 956 l 224 956 l 224 0 l 122 0 m 189 0 l 189 93 l 751 93 l 751 0 l 189 0 m 189 444 l 189 535 l 707 535 l 707 444 l 189 444 m 189 863 l 189 956 l 743 956 l 743 863 l 189 863 m 254 1056 l 210 1100 l 400 1314 l 478 1314 l 668 1100 l 624 1056 l 407 1244 l 472 1243 l 254 1056 z "},"Ë":{"ha":818,"x_min":122,"x_max":751,"o":"m 122 0 l 122 956 l 224 956 l 224 0 l 122 0 m 189 0 l 189 93 l 751 93 l 751 0 l 189 0 m 189 444 l 189 535 l 707 535 l 707 444 l 189 444 m 189 863 l 189 956 l 743 956 l 743 863 l 189 863 m 307 1069 q 260 1090 279 1069 q 240 1138 240 1110 q 260 1186 240 1167 q 307 1206 279 1206 q 356 1186 338 1206 q 375 1138 375 1167 q 356 1090 375 1110 q 307 1069 338 1069 m 571 1069 q 524 1090 543 1069 q 504 1138 504 1110 q 524 1186 504 1167 q 571 1206 543 1206 q 620 1186 601 1206 q 639 1138 639 1167 q 620 1090 639 1110 q 571 1069 601 1069 z "},"Ė":{"ha":818,"x_min":122,"x_max":751,"o":"m 122 0 l 122 956 l 224 956 l 224 0 l 122 0 m 189 0 l 189 93 l 751 93 l 751 0 l 189 0 m 189 444 l 189 535 l 707 535 l 707 444 l 189 444 m 189 863 l 189 956 l 743 956 l 743 863 l 189 863 m 439 1069 q 392 1090 411 1069 q 372 1138 372 1110 q 392 1186 372 1167 q 439 1206 411 1206 q 488 1186 469 1206 q 507 1138 507 1167 q 488 1090 507 1110 q 439 1069 469 1069 z "},"È":{"ha":818,"x_min":122,"x_max":751,"o":"m 122 0 l 122 956 l 224 956 l 224 0 l 122 0 m 189 0 l 189 93 l 751 93 l 751 0 l 189 0 m 189 444 l 189 535 l 707 535 l 707 444 l 189 444 m 189 863 l 189 956 l 743 956 l 743 863 l 189 863 m 494 1050 l 276 1236 l 354 1314 l 539 1094 l 494 1050 z "},"Ē":{"ha":818,"x_min":122,"x_max":751,"o":"m 122 0 l 122 956 l 224 956 l 224 0 l 122 0 m 189 0 l 189 93 l 751 93 l 751 0 l 189 0 m 189 444 l 189 535 l 707 535 l 707 444 l 189 444 m 189 863 l 189 956 l 743 956 l 743 863 l 189 863 m 201 1178 l 678 1178 l 678 1096 l 201 1096 l 201 1178 z "},"Ę":{"ha":818,"x_min":122,"x_max":806,"o":"m 122 0 l 122 956 l 224 956 l 224 0 l 122 0 m 189 0 l 189 93 l 751 93 l 751 0 l 189 0 m 189 444 l 189 535 l 707 535 l 707 444 l 189 444 m 189 863 l 189 956 l 743 956 l 743 863 l 189 863 m 701 -289 q 607 -260 647 -289 q 567 -168 567 -231 q 601 -65 567 -117 q 696 25 636 -14 l 751 0 q 674 -75 703 -37 q 644 -157 644 -112 q 662 -207 644 -190 q 713 -224 679 -224 q 748 -217 732 -224 q 778 -203 764 -211 l 806 -257 q 761 -279 786 -269 q 701 -289 736 -289 z "},"F":{"ha":788,"x_min":122,"x_max":725,"o":"m 122 0 l 122 956 l 224 956 l 224 0 l 122 0 m 189 432 l 189 525 l 701 525 l 701 432 l 189 432 m 189 863 l 189 956 l 725 956 l 725 863 l 189 863 z "},"G":{"ha":1074,"x_min":75,"x_max":1007,"o":"m 554 -12 q 365 25 453 -12 q 213 129 278 63 q 111 285 147 196 q 75 479 75 375 q 112 672 75 583 q 214 828 149 761 q 368 933 279 896 q 561 971 457 971 q 773 925 676 971 q 932 796 869 879 l 861 725 q 733 834 811 796 q 561 872 656 872 q 363 822 449 872 q 228 682 276 771 q 181 478 181 593 q 228 275 181 364 q 360 135 276 186 q 551 85 444 85 q 737 128 658 85 q 858 253 815 171 q 901 450 900 335 l 960 407 l 542 407 l 542 500 l 1007 500 l 1007 485 q 949 213 1007 324 q 790 44 892 101 q 554 -12 689 -12 z "},"Ğ":{"ha":1074,"x_min":75,"x_max":1007,"o":"m 554 -12 q 365 25 453 -12 q 213 129 278 63 q 111 285 147 196 q 75 479 75 375 q 112 672 75 583 q 214 828 149 761 q 368 933 279 896 q 561 971 457 971 q 773 925 676 971 q 932 796 869 879 l 861 725 q 733 834 811 796 q 561 872 656 872 q 363 822 449 872 q 228 682 276 771 q 181 478 181 593 q 228 275 181 364 q 360 135 276 186 q 551 85 444 85 q 737 128 658 85 q 858 253 815 171 q 901 450 900 335 l 960 407 l 542 407 l 542 500 l 1007 500 l 1007 485 q 949 213 1007 324 q 790 44 892 101 q 554 -12 689 -12 m 781 1263 q 751 1147 781 1199 q 670 1065 721 1096 q 554 1035 619 1035 q 434 1065 486 1035 q 352 1147 382 1096 q 322 1263 322 1199 l 413 1263 q 451 1160 413 1201 q 556 1119 489 1119 q 624 1138 593 1119 q 674 1190 656 1157 q 692 1263 692 1222 l 781 1263 z "},"Ģ":{"ha":1074,"x_min":75,"x_max":1007,"o":"m 554 -12 q 365 25 453 -12 q 213 129 278 63 q 111 285 147 196 q 75 479 75 375 q 112 672 75 583 q 214 828 149 761 q 368 933 279 896 q 561 971 457 971 q 773 925 676 971 q 932 796 869 879 l 861 725 q 733 834 811 796 q 561 872 656 872 q 363 822 449 872 q 228 682 276 771 q 181 478 181 593 q 228 275 181 364 q 360 135 276 186 q 551 85 444 85 q 737 128 658 85 q 858 253 815 171 q 901 450 900 335 l 960 407 l 542 407 l 542 500 l 1007 500 l 1007 485 q 949 213 1007 324 q 790 44 892 101 q 554 -12 689 -12 m 529 -431 l 469 -399 l 549 -244 l 585 -236 q 569 -258 579 -249 q 544 -267 560 -267 q 497 -245 518 -267 q 475 -192 475 -224 q 499 -134 475 -158 q 557 -110 522 -110 q 613 -134 589 -110 q 636 -192 636 -158 q 631 -224 636 -206 q 611 -274 626 -243 l 529 -431 z "},"Ġ":{"ha":1074,"x_min":75,"x_max":1007,"o":"m 554 -12 q 365 25 453 -12 q 213 129 278 63 q 111 285 147 196 q 75 479 75 375 q 112 672 75 583 q 214 828 149 761 q 368 933 279 896 q 561 971 457 971 q 773 925 676 971 q 932 796 869 879 l 861 725 q 733 834 811 796 q 561 872 656 872 q 363 822 449 872 q 228 682 276 771 q 181 478 181 593 q 228 275 181 364 q 360 135 276 186 q 551 85 444 85 q 737 128 658 85 q 858 253 815 171 q 901 450 900 335 l 960 407 l 542 407 l 542 500 l 1007 500 l 1007 485 q 949 213 1007 324 q 790 44 892 101 q 554 -12 689 -12 m 551 1069 q 504 1090 524 1069 q 485 1138 485 1110 q 504 1186 485 1167 q 551 1206 524 1206 q 601 1186 582 1206 q 619 1138 619 1167 q 601 1090 619 1110 q 551 1069 582 1069 z "},"H":{"ha":972,"x_min":122,"x_max":850,"o":"m 122 0 l 122 956 l 224 956 l 224 0 l 122 0 m 749 0 l 749 956 l 850 956 l 850 0 l 749 0 m 189 447 l 189 540 l 776 540 l 776 447 l 189 447 z "},"Ħ":{"ha":957,"x_min":0,"x_max":957,"o":"m 0 729 l 0 810 l 957 810 l 957 729 l 0 729 m 114 0 l 114 956 l 217 956 l 217 0 l 114 0 m 740 0 l 740 956 l 843 956 l 843 0 l 740 0 m 182 447 l 182 540 l 769 540 l 769 447 l 182 447 z "},"I":{"ha":346,"x_min":122,"x_max":224,"o":"m 122 0 l 122 956 l 224 956 l 224 0 l 122 0 z "},"Ĳ":{"ha":836,"x_min":122,"x_max":726,"o":"m 443 -14 q 302 17 363 -14 q 199 103 242 49 l 271 169 q 343 106 301 128 q 440 85 385 85 q 532 106 490 85 q 599 174 574 128 q 624 289 624 219 l 624 956 l 726 956 l 726 290 q 688 126 726 194 q 585 22 650 58 q 443 -14 521 -14 m 122 306 l 122 958 l 221 958 l 221 306 l 122 306 z "},"Í":{"ha":346,"x_min":42,"x_max":304,"o":"m 122 0 l 122 956 l 224 956 l 224 0 l 122 0 m 86 1057 l 42 1101 l 226 1321 l 304 1243 l 86 1057 z "},"Î":{"ha":346,"x_min":-56,"x_max":401,"o":"m 122 0 l 122 956 l 224 956 l 224 0 l 122 0 m -11 1056 l -56 1100 l 135 1314 l 213 1314 l 403 1100 l 358 1056 l 142 1244 l 207 1243 l -11 1056 z "},"Ï":{"ha":346,"x_min":-26,"x_max":372,"o":"m 122 0 l 122 956 l 224 956 l 224 0 l 122 0 m 40 1069 q -7 1090 13 1069 q -26 1138 -26 1110 q -7 1186 -26 1167 q 40 1206 13 1206 q 90 1186 71 1206 q 108 1138 108 1167 q 90 1090 108 1110 q 40 1069 71 1069 m 304 1069 q 257 1090 276 1069 q 238 1138 238 1110 q 257 1186 238 1167 q 304 1206 276 1206 q 353 1186 335 1206 q 372 1138 372 1167 q 353 1090 372 1110 q 304 1069 335 1069 z "},"İ":{"ha":346,"x_min":106,"x_max":240,"o":"m 122 0 l 122 956 l 224 956 l 224 0 l 122 0 m 172 1069 q 125 1090 144 1069 q 106 1138 106 1110 q 125 1186 106 1167 q 172 1206 144 1206 q 222 1186 203 1206 q 240 1138 240 1167 q 222 1090 240 1110 q 172 1069 203 1069 z "},"Ì":{"ha":346,"x_min":10,"x_max":272,"o":"m 122 0 l 122 956 l 224 956 l 224 0 l 122 0 m 228 1050 l 10 1236 l 88 1314 l 272 1094 l 228 1050 z "},"Ī":{"ha":346,"x_min":-26,"x_max":372,"o":"m -26 1178 l 372 1178 l 372 1096 l -26 1096 l -26 1178 m 122 0 l 122 956 l 224 956 l 224 0 l 122 0 z "},"Į":{"ha":346,"x_min":39,"x_max":278,"o":"m 122 0 l 122 956 l 224 956 l 224 0 l 122 0 m 174 -289 q 79 -260 119 -289 q 39 -168 39 -231 q 74 -65 39 -117 q 168 25 108 -14 l 224 0 q 146 -75 175 -37 q 117 -157 117 -112 q 134 -207 117 -190 q 185 -224 151 -224 q 220 -217 204 -224 q 250 -203 236 -211 l 278 -257 q 233 -279 258 -269 q 174 -289 208 -289 z "},"J":{"ha":688,"x_min":50,"x_max":578,"o":"m 294 -14 q 153 17 214 -14 q 50 103 93 49 l 122 169 q 194 106 153 128 q 292 85 236 85 q 383 106 342 85 q 450 174 425 128 q 475 289 475 219 l 475 956 l 578 956 l 578 290 q 540 126 578 194 q 437 22 501 58 q 294 -14 372 -14 z "},"K":{"ha":915,"x_min":122,"x_max":867,"o":"m 728 0 l 206 499 l 717 956 l 853 956 l 308 471 l 308 529 l 867 0 l 728 0 m 122 0 l 122 956 l 224 956 l 224 0 l 122 0 z "},"Ķ":{"ha":915,"x_min":122,"x_max":867,"o":"m 728 0 l 206 499 l 717 956 l 853 956 l 308 471 l 308 529 l 867 0 l 728 0 m 122 0 l 122 956 l 224 956 l 224 0 l 122 0 m 415 -431 l 356 -399 l 435 -244 l 471 -236 q 456 -258 465 -249 q 431 -267 446 -267 q 383 -245 404 -267 q 361 -192 361 -224 q 385 -134 361 -158 q 443 -110 408 -110 q 499 -134 475 -110 q 522 -192 522 -158 q 517 -224 522 -206 q 497 -274 513 -243 l 415 -431 z "},"L":{"ha":769,"x_min":122,"x_max":715,"o":"m 122 0 l 122 956 l 224 956 l 224 0 l 122 0 m 189 0 l 189 93 l 715 93 l 715 0 l 189 0 z "},"Ĺ":{"ha":769,"x_min":122,"x_max":715,"o":"m 122 0 l 122 956 l 224 956 l 224 0 l 122 0 m 189 0 l 189 93 l 715 93 l 715 0 l 189 0 m 332 1057 l 288 1101 l 472 1321 l 550 1243 l 332 1057 z "},"Ľ":{"ha":769,"x_min":122,"x_max":715,"o":"m 122 0 l 122 956 l 224 956 l 224 0 l 122 0 m 189 0 l 189 93 l 715 93 l 715 0 l 189 0 m 385 636 l 325 668 l 404 822 l 440 831 q 425 808 435 817 q 400 800 415 800 q 352 821 374 800 q 331 874 331 842 q 354 932 331 908 q 413 956 378 956 q 468 932 444 956 q 492 874 492 908 q 487 841 492 860 q 467 793 482 822 l 385 636 z "},"Ļ":{"ha":769,"x_min":122,"x_max":715,"o":"m 122 0 l 122 956 l 224 956 l 224 0 l 122 0 m 189 0 l 189 93 l 715 93 l 715 0 l 189 0 m 396 -431 l 336 -399 l 415 -244 l 451 -236 q 436 -258 446 -249 q 411 -267 426 -267 q 363 -245 385 -267 q 342 -192 342 -224 q 365 -134 342 -158 q 424 -110 389 -110 q 479 -134 456 -110 q 503 -192 503 -158 q 498 -224 503 -206 q 478 -274 493 -243 l 396 -431 z "},"Ł":{"ha":883,"x_min":99,"x_max":829,"o":"m 99 432 l 469 647 l 469 553 l 99 338 l 99 432 m 236 0 l 236 956 l 338 956 l 338 0 l 236 0 m 303 0 l 303 93 l 829 93 l 829 0 l 303 0 z "},"M":{"ha":1161,"x_min":122,"x_max":1040,"o":"m 122 0 l 122 956 l 194 956 l 607 279 l 556 279 l 968 956 l 1040 956 l 1040 0 l 938 0 l 938 778 l 961 772 l 617 207 l 544 207 l 200 772 l 224 778 l 224 0 l 122 0 z "},"N":{"ha":976,"x_min":122,"x_max":856,"o":"m 122 0 l 122 956 l 194 956 l 224 835 l 224 0 l 122 0 m 783 0 l 179 819 l 194 956 l 797 136 l 783 0 m 783 0 l 753 115 l 753 956 l 856 956 l 856 0 l 783 0 z "},"Ń":{"ha":976,"x_min":122,"x_max":856,"o":"m 122 0 l 122 956 l 194 956 l 224 835 l 224 0 l 122 0 m 783 0 l 179 819 l 194 956 l 797 136 l 783 0 m 783 0 l 753 115 l 753 956 l 856 956 l 856 0 l 783 0 m 403 1057 l 358 1101 l 543 1321 l 621 1243 l 403 1057 z "},"Ň":{"ha":976,"x_min":122,"x_max":856,"o":"m 122 0 l 122 956 l 194 956 l 224 835 l 224 0 l 122 0 m 783 0 l 179 819 l 194 956 l 797 136 l 783 0 m 783 0 l 753 115 l 753 956 l 856 956 l 856 0 l 783 0 m 674 1314 l 718 1271 l 528 1056 l 450 1056 l 260 1271 l 304 1314 l 521 1126 l 456 1126 l 674 1314 z "},"Ņ":{"ha":976,"x_min":122,"x_max":856,"o":"m 122 0 l 122 956 l 194 956 l 224 835 l 224 0 l 122 0 m 783 0 l 179 819 l 194 956 l 797 136 l 783 0 m 783 0 l 753 115 l 753 956 l 856 956 l 856 0 l 783 0 m 467 -431 l 407 -399 l 486 -244 l 522 -236 q 507 -258 517 -249 q 482 -267 497 -267 q 434 -245 456 -267 q 413 -192 413 -224 q 436 -134 413 -158 q 494 -110 460 -110 q 550 -134 526 -110 q 574 -192 574 -158 q 569 -224 574 -206 q 549 -274 564 -243 l 467 -431 z "},"Ñ":{"ha":976,"x_min":122,"x_max":856,"o":"m 122 0 l 122 956 l 194 956 l 224 835 l 224 0 l 122 0 m 783 0 l 179 819 l 194 956 l 797 136 l 783 0 m 783 0 l 753 115 l 753 956 l 856 956 l 856 0 l 783 0 m 592 1064 q 517 1080 547 1064 q 458 1111 486 1096 q 394 1126 429 1126 q 336 1113 357 1126 q 297 1074 315 1099 l 243 1126 q 308 1188 274 1164 q 393 1211 342 1211 q 470 1196 439 1211 q 529 1165 501 1181 q 590 1149 557 1149 q 644 1162 624 1149 q 682 1200 665 1175 l 736 1149 q 673 1087 707 1110 q 592 1064 639 1064 z "},"Ŋ":{"ha":976,"x_min":122,"x_max":856,"o":"m 122 0 l 122 956 l 194 956 l 224 835 l 224 0 l 122 0 m 783 0 l 179 819 l 194 956 l 797 136 l 783 0 m 783 0 l 753 115 l 753 956 l 856 956 l 856 0 l 783 0 m 649 -289 q 550 -269 592 -289 q 476 -214 508 -250 l 540 -150 q 587 -186 561 -175 q 644 -197 613 -197 q 725 -169 692 -197 q 758 -82 758 -142 l 758 653 l 856 653 l 856 -81 q 827 -195 856 -149 q 751 -265 799 -242 q 649 -289 704 -289 z "},"O":{"ha":1103,"x_min":74,"x_max":1028,"o":"m 553 -14 q 365 24 451 -14 q 213 130 278 63 q 110 287 147 197 q 74 479 74 376 q 110 672 74 583 q 211 828 146 761 q 363 932 276 894 q 550 969 449 969 q 738 932 651 969 q 890 828 825 894 q 992 672 956 761 q 1028 478 1028 582 q 992 285 1028 375 q 891 129 956 196 q 740 24 826 63 q 553 -14 654 -14 m 550 85 q 742 136 658 85 q 874 276 826 188 q 922 479 922 365 q 894 635 922 564 q 817 760 867 707 q 699 843 767 814 q 550 872 632 872 q 359 822 443 872 q 227 682 275 771 q 179 479 179 593 q 207 322 179 394 q 285 197 235 250 q 403 114 335 143 q 550 85 471 85 z "},"Ó":{"ha":1103,"x_min":74,"x_max":1028,"o":"m 553 -14 q 365 24 451 -14 q 213 130 278 63 q 110 287 147 197 q 74 479 74 376 q 110 672 74 583 q 211 828 146 761 q 363 932 276 894 q 550 969 449 969 q 738 932 651 969 q 890 828 825 894 q 992 672 956 761 q 1028 478 1028 582 q 992 285 1028 375 q 891 129 956 196 q 740 24 826 63 q 553 -14 654 -14 m 550 85 q 742 136 658 85 q 874 276 826 188 q 922 479 922 365 q 894 635 922 564 q 817 760 867 707 q 699 843 767 814 q 550 872 632 872 q 359 822 443 872 q 227 682 275 771 q 179 479 179 593 q 207 322 179 394 q 285 197 235 250 q 403 114 335 143 q 550 85 471 85 m 465 1057 l 421 1101 l 606 1321 l 683 1243 l 465 1057 z "},"Ô":{"ha":1103,"x_min":74,"x_max":1028,"o":"m 553 -14 q 365 24 451 -14 q 213 130 278 63 q 110 287 147 197 q 74 479 74 376 q 110 672 74 583 q 211 828 146 761 q 363 932 276 894 q 550 969 449 969 q 738 932 651 969 q 890 828 825 894 q 992 672 956 761 q 1028 478 1028 582 q 992 285 1028 375 q 891 129 956 196 q 740 24 826 63 q 553 -14 654 -14 m 550 85 q 742 136 658 85 q 874 276 826 188 q 922 479 922 365 q 894 635 922 564 q 817 760 867 707 q 699 843 767 814 q 550 872 632 872 q 359 822 443 872 q 227 682 275 771 q 179 479 179 593 q 207 322 179 394 q 285 197 235 250 q 403 114 335 143 q 550 85 471 85 m 367 1056 l 322 1100 l 513 1314 l 590 1314 l 781 1100 l 736 1056 l 519 1244 l 585 1243 l 367 1056 z "},"Ö":{"ha":1103,"x_min":74,"x_max":1028,"o":"m 553 -14 q 365 24 451 -14 q 213 130 278 63 q 110 287 147 197 q 74 479 74 376 q 110 672 74 583 q 211 828 146 761 q 363 932 276 894 q 550 969 449 969 q 738 932 651 969 q 890 828 825 894 q 992 672 956 761 q 1028 478 1028 582 q 992 285 1028 375 q 891 129 956 196 q 740 24 826 63 q 553 -14 654 -14 m 550 85 q 742 136 658 85 q 874 276 826 188 q 922 479 922 365 q 894 635 922 564 q 817 760 867 707 q 699 843 767 814 q 550 872 632 872 q 359 822 443 872 q 227 682 275 771 q 179 479 179 593 q 207 322 179 394 q 285 197 235 250 q 403 114 335 143 q 550 85 471 85 m 419 1069 q 372 1090 392 1069 q 353 1138 353 1110 q 372 1186 353 1167 q 419 1206 392 1206 q 469 1186 450 1206 q 488 1138 488 1167 q 469 1090 488 1110 q 419 1069 450 1069 m 683 1069 q 636 1090 656 1069 q 617 1138 617 1110 q 636 1186 617 1167 q 683 1206 656 1206 q 733 1186 714 1206 q 751 1138 751 1167 q 733 1090 751 1110 q 683 1069 714 1069 z "},"Ò":{"ha":1103,"x_min":74,"x_max":1028,"o":"m 553 -14 q 365 24 451 -14 q 213 130 278 63 q 110 287 147 197 q 74 479 74 376 q 110 672 74 583 q 211 828 146 761 q 363 932 276 894 q 550 969 449 969 q 738 932 651 969 q 890 828 825 894 q 992 672 956 761 q 1028 478 1028 582 q 992 285 1028 375 q 891 129 956 196 q 740 24 826 63 q 553 -14 654 -14 m 550 85 q 742 136 658 85 q 874 276 826 188 q 922 479 922 365 q 894 635 922 564 q 817 760 867 707 q 699 843 767 814 q 550 872 632 872 q 359 822 443 872 q 227 682 275 771 q 179 479 179 593 q 207 322 179 394 q 285 197 235 250 q 403 114 335 143 q 550 85 471 85 m 607 1050 l 389 1236 l 467 1314 l 651 1094 l 607 1050 z "},"Ő":{"ha":1103,"x_min":74,"x_max":1028,"o":"m 553 -14 q 365 24 451 -14 q 213 130 278 63 q 110 287 147 197 q 74 479 74 376 q 110 672 74 583 q 211 828 146 761 q 363 932 276 894 q 550 969 449 969 q 738 932 651 969 q 890 828 825 894 q 992 672 956 761 q 1028 478 1028 582 q 992 285 1028 375 q 891 129 956 196 q 740 24 826 63 q 553 -14 654 -14 m 550 85 q 742 136 658 85 q 874 276 826 188 q 922 479 922 365 q 894 635 922 564 q 817 760 867 707 q 699 843 767 814 q 550 872 632 872 q 359 822 443 872 q 227 682 275 771 q 179 479 179 593 q 207 322 179 394 q 285 197 235 250 q 403 114 335 143 q 550 85 471 85 m 415 1047 l 357 1068 l 431 1346 l 533 1308 l 415 1047 m 626 1047 l 568 1068 l 642 1346 l 746 1308 l 626 1047 z "},"Ō":{"ha":1103,"x_min":74,"x_max":1028,"o":"m 553 -14 q 365 24 451 -14 q 213 130 278 63 q 110 287 147 197 q 74 479 74 376 q 110 672 74 583 q 211 828 146 761 q 363 932 276 894 q 550 969 449 969 q 738 932 651 969 q 890 828 825 894 q 992 672 956 761 q 1028 478 1028 582 q 992 285 1028 375 q 891 129 956 196 q 740 24 826 63 q 553 -14 654 -14 m 550 85 q 742 136 658 85 q 874 276 826 188 q 922 479 922 365 q 894 635 922 564 q 817 760 867 707 q 699 843 767 814 q 550 872 632 872 q 359 822 443 872 q 227 682 275 771 q 179 479 179 593 q 207 322 179 394 q 285 197 235 250 q 403 114 335 143 q 550 85 471 85 m 314 1178 l 790 1178 l 790 1096 l 314 1096 l 314 1178 z "},"Ø":{"ha":1103,"x_min":74,"x_max":1028,"o":"m 953 947 l 1019 881 l 149 8 l 82 76 l 953 947 m 553 -14 q 364 24 451 -14 q 211 130 276 63 q 110 287 146 197 q 74 479 74 376 q 110 672 74 583 q 210 828 146 761 q 362 932 275 894 q 550 969 449 969 q 738 932 651 969 q 890 828 825 894 q 991 672 954 761 q 1028 478 1028 582 q 992 285 1028 375 q 890 129 956 196 q 739 24 825 63 q 553 -14 653 -14 m 550 85 q 742 136 658 85 q 874 276 825 188 q 922 479 922 365 q 894 635 922 564 q 817 760 867 707 q 699 843 767 814 q 550 872 631 872 q 358 822 442 872 q 227 682 275 771 q 179 479 179 593 q 207 322 179 394 q 284 197 235 250 q 401 114 333 143 q 550 85 469 85 z "},"Õ":{"ha":1103,"x_min":74,"x_max":1028,"o":"m 553 -14 q 365 24 451 -14 q 213 130 278 63 q 110 287 147 197 q 74 479 74 376 q 110 672 74 583 q 211 828 146 761 q 363 932 276 894 q 550 969 449 969 q 738 932 651 969 q 890 828 825 894 q 992 672 956 761 q 1028 478 1028 582 q 992 285 1028 375 q 891 129 956 196 q 740 24 826 63 q 553 -14 654 -14 m 550 85 q 742 136 658 85 q 874 276 826 188 q 922 479 922 365 q 894 635 922 564 q 817 760 867 707 q 699 843 767 814 q 550 872 632 872 q 359 822 443 872 q 227 682 275 771 q 179 479 179 593 q 207 322 179 394 q 285 197 235 250 q 403 114 335 143 q 550 85 471 85 m 654 1064 q 579 1080 610 1064 q 520 1111 549 1096 q 457 1126 492 1126 q 399 1113 419 1126 q 360 1074 378 1099 l 306 1126 q 370 1188 336 1164 q 456 1211 404 1211 q 533 1196 501 1211 q 592 1165 564 1181 q 653 1149 619 1149 q 707 1162 686 1149 q 744 1200 728 1175 l 799 1149 q 735 1087 769 1110 q 654 1064 701 1064 z "},"Œ":{"ha":1619,"x_min":74,"x_max":1551,"o":"m 553 -14 q 365 24 451 -14 q 213 130 278 63 q 110 287 147 197 q 74 479 74 376 q 110 672 74 583 q 211 828 146 761 q 363 932 276 894 q 550 969 449 969 q 738 932 654 969 q 880 828 821 894 q 971 672 939 761 q 1003 478 1003 582 q 971 285 1003 375 q 881 129 939 196 q 739 24 822 63 q 553 -14 656 -14 m 550 85 q 746 136 663 85 q 876 276 829 188 q 922 479 922 365 q 876 681 922 592 q 745 821 829 769 q 550 872 661 872 q 359 822 443 872 q 227 682 275 771 q 179 479 179 593 q 207 322 179 394 q 285 197 235 250 q 403 114 335 143 q 550 85 471 85 m 922 0 l 922 956 l 1025 956 l 1025 0 l 922 0 m 990 0 l 990 93 l 1551 93 l 1551 0 l 990 0 m 990 444 l 990 535 l 1507 535 l 1507 444 l 990 444 m 990 863 l 990 956 l 1544 956 l 1544 863 l 990 863 z "},"P":{"ha":844,"x_min":122,"x_max":778,"o":"m 188 383 l 188 474 l 469 474 q 574 497 528 474 q 648 565 621 521 q 675 669 675 608 q 648 774 675 731 q 574 842 621 818 q 469 867 528 867 l 188 867 l 188 956 l 476 956 q 631 920 563 956 q 738 821 699 885 q 778 669 778 757 q 738 519 778 583 q 631 419 699 454 q 476 383 563 383 l 188 383 m 122 0 l 122 956 l 224 956 l 224 0 l 122 0 z "},"Þ":{"ha":844,"x_min":122,"x_max":778,"o":"m 188 204 l 188 293 l 469 293 q 574 317 528 293 q 648 385 621 340 q 675 490 675 429 q 648 594 675 550 q 574 663 621 639 q 469 686 528 686 l 188 686 l 188 776 l 476 776 q 631 741 563 776 q 738 641 699 706 q 778 490 778 576 q 738 339 778 403 q 631 240 699 275 q 476 204 563 204 l 188 204 m 122 0 l 122 956 l 224 956 l 224 0 l 122 0 z "},"Q":{"ha":1131,"x_min":75,"x_max":1097,"o":"m 554 -14 q 365 24 453 -14 q 213 130 278 63 q 111 287 147 197 q 75 479 75 376 q 111 672 75 583 q 212 828 147 761 q 363 932 276 894 q 551 969 450 969 q 740 932 653 969 q 891 828 826 894 q 992 672 956 761 q 1029 478 1029 582 q 993 285 1029 375 q 892 129 957 196 q 740 24 826 63 q 554 -14 654 -14 m 1032 -68 l 567 396 l 632 461 l 1097 -3 l 1032 -68 m 551 85 q 743 136 660 85 q 875 276 826 188 q 924 479 924 365 q 896 635 924 564 q 818 760 868 707 q 700 843 768 814 q 551 872 632 872 q 360 822 443 872 q 228 682 276 771 q 181 479 181 593 q 208 322 181 394 q 285 197 236 250 q 403 114 335 143 q 551 85 471 85 z "},"R":{"ha":879,"x_min":122,"x_max":831,"o":"m 188 428 l 188 514 l 465 514 q 610 562 560 514 q 660 690 660 610 q 610 817 660 768 q 465 867 560 867 l 188 867 l 188 956 l 465 956 q 625 922 558 956 q 727 828 692 888 q 763 692 763 768 q 727 553 763 613 q 625 460 692 493 q 465 428 558 428 l 188 428 m 122 0 l 122 956 l 224 956 l 224 0 l 122 0 m 700 0 l 342 442 l 440 474 l 831 0 l 700 0 z "},"Ŕ":{"ha":879,"x_min":122,"x_max":831,"o":"m 188 428 l 188 514 l 465 514 q 610 562 560 514 q 660 690 660 610 q 610 817 660 768 q 465 867 560 867 l 188 867 l 188 956 l 465 956 q 625 922 558 956 q 727 828 692 888 q 763 692 763 768 q 727 553 763 613 q 625 460 692 493 q 465 428 558 428 l 188 428 m 122 0 l 122 956 l 224 956 l 224 0 l 122 0 m 700 0 l 342 442 l 440 474 l 831 0 l 700 0 m 318 1057 l 274 1101 l 458 1321 l 536 1243 l 318 1057 z "},"Ř":{"ha":879,"x_min":122,"x_max":831,"o":"m 188 428 l 188 514 l 465 514 q 610 562 560 514 q 660 690 660 610 q 610 817 660 768 q 465 867 560 867 l 188 867 l 188 956 l 465 956 q 625 922 558 956 q 727 828 692 888 q 763 692 763 768 q 727 553 763 613 q 625 460 692 493 q 465 428 558 428 l 188 428 m 122 0 l 122 956 l 224 956 l 224 0 l 122 0 m 700 0 l 342 442 l 440 474 l 831 0 l 700 0 m 590 1314 l 633 1271 l 444 1056 l 365 1056 l 176 1271 l 219 1314 l 438 1126 l 372 1126 l 590 1314 z "},"Ŗ":{"ha":879,"x_min":122,"x_max":831,"o":"m 188 428 l 188 514 l 465 514 q 610 562 560 514 q 660 690 660 610 q 610 817 660 768 q 465 867 560 867 l 188 867 l 188 956 l 465 956 q 625 922 558 956 q 727 828 692 888 q 763 692 763 768 q 727 553 763 613 q 625 460 692 493 q 465 428 558 428 l 188 428 m 122 0 l 122 956 l 224 956 l 224 0 l 122 0 m 700 0 l 342 442 l 440 474 l 831 0 l 700 0 m 407 -431 l 347 -399 l 426 -244 l 463 -236 q 447 -258 457 -249 q 422 -267 438 -267 q 374 -245 396 -267 q 353 -192 353 -224 q 376 -134 353 -158 q 435 -110 400 -110 q 490 -134 467 -110 q 514 -192 514 -158 q 509 -224 514 -206 q 489 -274 504 -243 l 407 -431 z "},"S":{"ha":769,"x_min":53,"x_max":699,"o":"m 386 -14 q 194 28 275 -14 q 53 147 114 71 l 124 217 q 237 115 172 149 q 390 82 301 82 q 539 124 482 82 q 596 239 596 165 q 569 333 596 296 q 501 392 543 369 q 407 433 458 415 q 305 472 356 451 q 211 522 254 492 q 142 600 168 553 q 117 721 117 647 q 154 854 117 799 q 257 940 192 910 q 406 969 322 969 q 572 933 499 969 q 693 836 644 897 l 624 767 q 526 847 579 819 q 403 875 474 875 q 269 836 319 875 q 219 728 219 797 q 245 640 219 674 q 314 585 271 607 q 408 545 357 563 q 510 507 458 528 q 603 454 561 486 q 672 373 646 422 q 699 247 699 324 q 615 55 699 124 q 386 -14 531 -14 z "},"Ś":{"ha":769,"x_min":53,"x_max":699,"o":"m 386 -14 q 194 28 275 -14 q 53 147 114 71 l 124 217 q 237 115 172 149 q 390 82 301 82 q 539 124 482 82 q 596 239 596 165 q 569 333 596 296 q 501 392 543 369 q 407 433 458 415 q 305 472 356 451 q 211 522 254 492 q 142 600 168 553 q 117 721 117 647 q 154 854 117 799 q 257 940 192 910 q 406 969 322 969 q 572 933 499 969 q 693 836 644 897 l 624 767 q 526 847 579 819 q 403 875 474 875 q 269 836 319 875 q 219 728 219 797 q 245 640 219 674 q 314 585 271 607 q 408 545 357 563 q 510 507 458 528 q 603 454 561 486 q 672 373 646 422 q 699 247 699 324 q 615 55 699 124 q 386 -14 531 -14 m 318 1057 l 274 1101 l 458 1321 l 536 1243 l 318 1057 z "},"Š":{"ha":769,"x_min":53,"x_max":699,"o":"m 386 -14 q 194 28 275 -14 q 53 147 114 71 l 124 217 q 237 115 172 149 q 390 82 301 82 q 539 124 482 82 q 596 239 596 165 q 569 333 596 296 q 501 392 543 369 q 407 433 458 415 q 305 472 356 451 q 211 522 254 492 q 142 600 168 553 q 117 721 117 647 q 154 854 117 799 q 257 940 192 910 q 406 969 322 969 q 572 933 499 969 q 693 836 644 897 l 624 767 q 526 847 579 819 q 403 875 474 875 q 269 836 319 875 q 219 728 219 797 q 245 640 219 674 q 314 585 271 607 q 408 545 357 563 q 510 507 458 528 q 603 454 561 486 q 672 373 646 422 q 699 247 699 324 q 615 55 699 124 q 386 -14 531 -14 m 590 1314 l 633 1271 l 444 1056 l 365 1056 l 176 1271 l 219 1314 l 438 1126 l 372 1126 l 590 1314 z "},"Ş":{"ha":769,"x_min":53,"x_max":699,"o":"m 386 -14 q 194 28 275 -14 q 53 147 114 71 l 124 217 q 237 115 172 149 q 390 82 301 82 q 539 124 482 82 q 596 239 596 165 q 569 333 596 296 q 501 392 543 369 q 407 433 458 415 q 305 472 356 451 q 211 522 254 492 q 142 600 168 553 q 117 721 117 647 q 154 854 117 799 q 257 940 192 910 q 406 969 322 969 q 572 933 499 969 q 693 836 644 897 l 624 767 q 526 847 579 819 q 403 875 474 875 q 269 836 319 875 q 219 728 219 797 q 245 640 219 674 q 314 585 271 607 q 408 545 357 563 q 510 507 458 528 q 603 454 561 486 q 672 373 646 422 q 699 247 699 324 q 615 55 699 124 q 386 -14 531 -14 m 372 -289 q 286 -275 326 -289 q 213 -236 246 -261 l 261 -182 q 307 -209 281 -199 q 367 -219 333 -219 q 434 -205 411 -219 q 457 -167 457 -190 q 433 -126 457 -142 q 364 -111 410 -111 l 314 -111 l 353 15 l 433 15 l 401 -82 l 364 -50 q 497 -81 449 -49 q 544 -168 544 -114 q 498 -256 544 -222 q 372 -289 451 -289 z "},"Ș":{"ha":769,"x_min":53,"x_max":699,"o":"m 386 -14 q 194 28 275 -14 q 53 147 114 71 l 124 217 q 237 115 172 149 q 390 82 301 82 q 539 124 482 82 q 596 239 596 165 q 569 333 596 296 q 501 392 543 369 q 407 433 458 415 q 305 472 356 451 q 211 522 254 492 q 142 600 168 553 q 117 721 117 647 q 154 854 117 799 q 257 940 192 910 q 406 969 322 969 q 572 933 499 969 q 693 836 644 897 l 624 767 q 526 847 579 819 q 403 875 474 875 q 269 836 319 875 q 219 728 219 797 q 245 640 219 674 q 314 585 271 607 q 408 545 357 563 q 510 507 458 528 q 603 454 561 486 q 672 373 646 422 q 699 247 699 324 q 615 55 699 124 q 386 -14 531 -14 m 368 -431 l 308 -399 l 388 -244 l 424 -236 q 408 -258 418 -249 q 383 -267 399 -267 q 335 -245 357 -267 q 314 -192 314 -224 q 338 -134 314 -158 q 396 -110 361 -110 q 451 -134 428 -110 q 475 -192 475 -158 q 470 -224 475 -206 q 450 -274 465 -243 l 368 -431 z "},"ẞ":{"ha":992,"x_min":122,"x_max":917,"o":"m 485 563 l 789 863 l 882 831 l 597 554 l 485 500 l 485 563 m 588 -8 q 444 16 503 -8 q 347 86 385 40 l 361 200 q 456 117 396 147 q 586 88 515 88 q 706 114 656 88 q 785 188 757 140 q 814 300 814 236 q 785 413 814 365 q 705 486 757 460 q 581 513 653 513 q 533 510 557 513 q 485 500 508 507 l 524 557 q 575 576 547 569 q 636 583 603 583 q 779 547 715 583 q 880 445 843 510 q 917 296 917 381 q 875 138 917 206 q 759 31 833 69 q 588 -8 685 -8 m 521 979 q 665 968 599 979 q 779 941 731 957 q 855 914 828 925 q 882 903 882 903 l 882 831 q 860 836 882 831 q 800 851 838 842 q 715 870 763 861 q 618 885 668 879 q 522 890 568 890 q 363 861 431 890 q 257 781 294 832 q 219 668 219 731 l 219 0 l 122 0 l 122 674 q 175 836 122 768 q 318 942 228 904 q 521 979 408 979 z "},"T":{"ha":878,"x_min":51,"x_max":826,"o":"m 388 0 l 388 929 l 490 929 l 490 0 l 388 0 m 51 863 l 51 956 l 826 956 l 826 863 l 51 863 z "},"Ť":{"ha":878,"x_min":51,"x_max":826,"o":"m 388 0 l 388 929 l 490 929 l 490 0 l 388 0 m 51 863 l 51 956 l 826 956 l 826 863 l 51 863 m 624 1314 l 668 1271 l 478 1056 l 400 1056 l 210 1271 l 254 1314 l 471 1126 l 406 1126 l 624 1314 z "},"Ț":{"ha":878,"x_min":51,"x_max":826,"o":"m 388 0 l 388 929 l 490 929 l 490 0 l 388 0 m 51 863 l 51 956 l 826 956 l 826 863 l 51 863 m 417 -431 l 357 -399 l 436 -244 l 472 -236 q 457 -258 467 -249 q 432 -267 447 -267 q 384 -245 406 -267 q 363 -192 363 -224 q 386 -134 363 -158 q 444 -110 410 -110 q 500 -134 476 -110 q 524 -192 524 -158 q 519 -224 524 -206 q 499 -274 514 -243 l 417 -431 z "},"U":{"ha":939,"x_min":110,"x_max":829,"o":"m 471 -14 q 285 33 367 -14 q 157 160 204 79 q 110 343 110 242 l 110 956 l 213 956 l 213 349 q 246 208 213 268 q 338 117 279 149 q 471 85 397 85 q 602 117 544 85 q 694 208 660 149 q 728 347 728 267 l 728 956 l 829 956 l 829 342 q 783 160 829 240 q 655 33 736 79 q 471 -14 574 -14 z "},"Ú":{"ha":939,"x_min":110,"x_max":829,"o":"m 471 -14 q 285 33 367 -14 q 157 160 204 79 q 110 343 110 242 l 110 956 l 213 956 l 213 349 q 246 208 213 268 q 338 117 279 149 q 471 85 397 85 q 602 117 544 85 q 694 208 660 149 q 728 347 728 267 l 728 956 l 829 956 l 829 342 q 783 160 829 240 q 655 33 736 79 q 471 -14 574 -14 m 383 1057 l 339 1101 l 524 1321 l 601 1243 l 383 1057 z "},"Ŭ":{"ha":939,"x_min":110,"x_max":829,"o":"m 471 -14 q 285 33 367 -14 q 157 160 204 79 q 110 343 110 242 l 110 956 l 213 956 l 213 349 q 246 208 213 268 q 338 117 279 149 q 471 85 397 85 q 602 117 544 85 q 694 208 660 149 q 728 347 728 267 l 728 956 l 829 956 l 829 342 q 783 160 829 240 q 655 33 736 79 q 471 -14 574 -14 m 699 1263 q 669 1147 699 1199 q 588 1065 639 1096 q 472 1035 538 1035 q 352 1065 404 1035 q 270 1147 300 1096 q 240 1263 240 1199 l 331 1263 q 369 1160 331 1201 q 474 1119 407 1119 q 542 1138 511 1119 q 592 1190 574 1157 q 610 1263 610 1222 l 699 1263 z "},"Û":{"ha":939,"x_min":110,"x_max":829,"o":"m 471 -14 q 285 33 367 -14 q 157 160 204 79 q 110 343 110 242 l 110 956 l 213 956 l 213 349 q 246 208 213 268 q 338 117 279 149 q 471 85 397 85 q 602 117 544 85 q 694 208 660 149 q 728 347 728 267 l 728 956 l 829 956 l 829 342 q 783 160 829 240 q 655 33 736 79 q 471 -14 574 -14 m 285 1056 l 240 1100 l 431 1314 l 508 1314 l 699 1100 l 654 1056 l 438 1244 l 503 1243 l 285 1056 z "},"Ü":{"ha":939,"x_min":110,"x_max":829,"o":"m 471 -14 q 285 33 367 -14 q 157 160 204 79 q 110 343 110 242 l 110 956 l 213 956 l 213 349 q 246 208 213 268 q 338 117 279 149 q 471 85 397 85 q 602 117 544 85 q 694 208 660 149 q 728 347 728 267 l 728 956 l 829 956 l 829 342 q 783 160 829 240 q 655 33 736 79 q 471 -14 574 -14 m 338 1069 q 290 1090 310 1069 q 271 1138 271 1110 q 290 1186 271 1167 q 338 1206 310 1206 q 387 1186 368 1206 q 406 1138 406 1167 q 387 1090 406 1110 q 338 1069 368 1069 m 601 1069 q 554 1090 574 1069 q 535 1138 535 1110 q 554 1186 535 1167 q 601 1206 574 1206 q 651 1186 632 1206 q 669 1138 669 1167 q 651 1090 669 1110 q 601 1069 632 1069 z "},"Ù":{"ha":939,"x_min":110,"x_max":829,"o":"m 471 -14 q 285 33 367 -14 q 157 160 204 79 q 110 343 110 242 l 110 956 l 213 956 l 213 349 q 246 208 213 268 q 338 117 279 149 q 471 85 397 85 q 602 117 544 85 q 694 208 660 149 q 728 347 728 267 l 728 956 l 829 956 l 829 342 q 783 160 829 240 q 655 33 736 79 q 471 -14 574 -14 m 525 1050 l 307 1236 l 385 1314 l 569 1094 l 525 1050 z "},"Ű":{"ha":939,"x_min":110,"x_max":829,"o":"m 471 -14 q 285 33 367 -14 q 157 160 204 79 q 110 343 110 242 l 110 956 l 213 956 l 213 349 q 246 208 213 268 q 338 117 279 149 q 471 85 397 85 q 602 117 544 85 q 694 208 660 149 q 728 347 728 267 l 728 956 l 829 956 l 829 342 q 783 160 829 240 q 655 33 736 79 q 471 -14 574 -14 m 333 1047 l 275 1068 l 349 1346 l 451 1308 l 333 1047 m 544 1047 l 486 1068 l 560 1346 l 664 1308 l 544 1047 z "},"Ū":{"ha":939,"x_min":110,"x_max":829,"o":"m 471 -14 q 285 33 367 -14 q 157 160 204 79 q 110 343 110 242 l 110 956 l 213 956 l 213 349 q 246 208 213 268 q 338 117 279 149 q 471 85 397 85 q 602 117 544 85 q 694 208 660 149 q 728 347 728 267 l 728 956 l 829 956 l 829 342 q 783 160 829 240 q 655 33 736 79 q 471 -14 574 -14 m 232 1178 l 708 1178 l 708 1096 l 232 1096 l 232 1178 z "},"Ų":{"ha":939,"x_min":110,"x_max":829,"o":"m 471 -14 q 285 33 367 -14 q 157 160 204 79 q 110 343 110 242 l 110 956 l 213 956 l 213 349 q 246 208 213 268 q 338 117 279 149 q 471 85 397 85 q 602 117 544 85 q 694 208 660 149 q 728 347 728 267 l 728 956 l 829 956 l 829 342 q 783 160 829 240 q 655 33 736 79 q 471 -14 574 -14 m 564 -275 q 469 -246 510 -275 q 429 -154 429 -217 q 464 -51 429 -103 q 558 39 499 0 l 614 14 q 536 -61 565 -24 q 507 -143 507 -99 q 524 -193 507 -176 q 575 -210 542 -210 q 610 -203 594 -210 q 640 -189 626 -197 l 668 -243 q 624 -265 649 -256 q 564 -275 599 -275 z "},"Ů":{"ha":939,"x_min":110,"x_max":829,"o":"m 471 -14 q 285 33 367 -14 q 157 160 204 79 q 110 343 110 242 l 110 956 l 213 956 l 213 349 q 246 208 213 268 q 338 117 279 149 q 471 85 397 85 q 602 117 544 85 q 694 208 660 149 q 728 347 728 267 l 728 956 l 829 956 l 829 342 q 783 160 829 240 q 655 33 736 79 q 471 -14 574 -14 m 471 1035 q 389 1056 425 1035 q 332 1112 353 1076 q 311 1192 311 1147 q 332 1272 311 1236 q 389 1328 353 1307 q 471 1349 425 1349 q 551 1328 515 1349 q 606 1272 586 1307 q 626 1192 626 1236 q 606 1112 626 1147 q 551 1056 586 1076 q 471 1035 517 1035 m 472 1108 q 528 1132 504 1108 q 551 1192 551 1156 q 528 1252 551 1228 q 472 1276 504 1276 q 410 1252 433 1276 q 388 1192 388 1228 q 410 1133 388 1157 q 472 1108 433 1108 z "},"V":{"ha":943,"x_min":51,"x_max":892,"o":"m 432 0 l 51 956 l 163 956 l 492 113 l 451 113 l 783 956 l 892 956 l 508 0 l 432 0 z "},"W":{"ha":1360,"x_min":54,"x_max":1307,"o":"m 363 0 l 54 956 l 156 956 l 415 133 l 385 133 l 642 956 l 718 956 l 976 133 l 944 133 l 1204 956 l 1307 956 l 997 0 l 922 0 l 665 821 l 694 821 l 438 0 l 363 0 z "},"Ẃ":{"ha":1360,"x_min":54,"x_max":1307,"o":"m 363 0 l 54 956 l 156 956 l 415 133 l 385 133 l 642 956 l 718 956 l 976 133 l 944 133 l 1204 956 l 1307 956 l 997 0 l 922 0 l 665 821 l 694 821 l 438 0 l 363 0 m 593 1057 l 549 1101 l 733 1321 l 811 1243 l 593 1057 z "},"Ŵ":{"ha":1360,"x_min":54,"x_max":1307,"o":"m 363 0 l 54 956 l 156 956 l 415 133 l 385 133 l 642 956 l 718 956 l 976 133 l 944 133 l 1204 956 l 1307 956 l 997 0 l 922 0 l 665 821 l 694 821 l 438 0 l 363 0 m 496 1056 l 451 1100 l 642 1314 l 719 1314 l 910 1100 l 865 1056 l 649 1244 l 714 1243 l 496 1056 z "},"Ẅ":{"ha":1360,"x_min":54,"x_max":1307,"o":"m 363 0 l 54 956 l 156 956 l 415 133 l 385 133 l 642 956 l 718 956 l 976 133 l 944 133 l 1204 956 l 1307 956 l 997 0 l 922 0 l 665 821 l 694 821 l 438 0 l 363 0 m 547 1069 q 500 1090 519 1069 q 481 1138 481 1110 q 500 1186 481 1167 q 547 1206 519 1206 q 597 1186 578 1206 q 615 1138 615 1167 q 597 1090 615 1110 q 547 1069 578 1069 m 811 1069 q 764 1090 783 1069 q 744 1138 744 1110 q 764 1186 744 1167 q 811 1206 783 1206 q 860 1186 842 1206 q 879 1138 879 1167 q 860 1090 879 1110 q 811 1069 842 1069 z "},"Ẁ":{"ha":1360,"x_min":54,"x_max":1307,"o":"m 363 0 l 54 956 l 156 956 l 415 133 l 385 133 l 642 956 l 718 956 l 976 133 l 944 133 l 1204 956 l 1307 956 l 997 0 l 922 0 l 665 821 l 694 821 l 438 0 l 363 0 m 735 1050 l 517 1236 l 594 1314 l 779 1094 l 735 1050 z "},"X":{"ha":951,"x_min":51,"x_max":900,"o":"m 779 0 l 463 450 l 444 450 l 67 956 l 189 956 l 500 535 l 518 535 l 900 0 l 779 0 m 51 0 l 428 504 l 494 443 l 167 0 l 51 0 m 526 465 l 460 528 l 769 956 l 885 956 l 526 465 z "},"Y":{"ha":915,"x_min":49,"x_max":867,"o":"m 428 394 l 49 956 l 168 956 l 483 485 l 433 485 l 751 956 l 867 956 l 485 394 l 428 394 m 407 0 l 407 468 l 510 468 l 510 0 l 407 0 z "},"Ý":{"ha":915,"x_min":49,"x_max":867,"o":"m 428 394 l 49 956 l 168 956 l 483 485 l 433 485 l 751 956 l 867 956 l 485 394 l 428 394 m 407 0 l 407 468 l 510 468 l 510 0 l 407 0 m 371 1057 l 326 1101 l 511 1321 l 589 1243 l 371 1057 z "},"Ŷ":{"ha":915,"x_min":49,"x_max":867,"o":"m 428 394 l 49 956 l 168 956 l 483 485 l 433 485 l 751 956 l 867 956 l 485 394 l 428 394 m 407 0 l 407 468 l 510 468 l 510 0 l 407 0 m 274 1056 l 229 1100 l 419 1314 l 497 1314 l 688 1100 l 643 1056 l 426 1244 l 492 1243 l 274 1056 z "},"Ÿ":{"ha":915,"x_min":49,"x_max":867,"o":"m 428 394 l 49 956 l 168 956 l 483 485 l 433 485 l 751 956 l 867 956 l 485 394 l 428 394 m 407 0 l 407 468 l 510 468 l 510 0 l 407 0 m 325 1069 q 278 1090 297 1069 q 258 1138 258 1110 q 278 1186 258 1167 q 325 1206 297 1206 q 374 1186 356 1206 q 393 1138 393 1167 q 374 1090 393 1110 q 325 1069 356 1069 m 589 1069 q 542 1090 561 1069 q 522 1138 522 1110 q 542 1186 522 1167 q 589 1206 561 1206 q 638 1186 619 1206 q 657 1138 657 1167 q 638 1090 657 1110 q 589 1069 619 1069 z "},"Ỳ":{"ha":915,"x_min":49,"x_max":867,"o":"m 428 394 l 49 956 l 168 956 l 483 485 l 433 485 l 751 956 l 867 956 l 485 394 l 428 394 m 407 0 l 407 468 l 510 468 l 510 0 l 407 0 m 513 1050 l 294 1236 l 372 1314 l 557 1094 l 513 1050 z "},"Z":{"ha":801,"x_min":60,"x_max":739,"o":"m 60 68 l 618 888 l 739 888 l 181 68 l 60 68 m 60 0 l 60 68 l 147 93 l 728 93 l 728 0 l 60 0 m 86 863 l 86 956 l 739 956 l 739 888 l 650 863 l 86 863 z "},"Ź":{"ha":801,"x_min":60,"x_max":739,"o":"m 60 68 l 618 888 l 739 888 l 181 68 l 60 68 m 60 0 l 60 68 l 147 93 l 728 93 l 728 0 l 60 0 m 86 863 l 86 956 l 739 956 l 739 888 l 650 863 l 86 863 m 318 1057 l 274 1101 l 458 1321 l 536 1243 l 318 1057 z "},"Ž":{"ha":801,"x_min":60,"x_max":739,"o":"m 60 68 l 618 888 l 739 888 l 181 68 l 60 68 m 60 0 l 60 68 l 147 93 l 728 93 l 728 0 l 60 0 m 86 863 l 86 956 l 739 956 l 739 888 l 650 863 l 86 863 m 589 1314 l 633 1271 l 443 1056 l 365 1056 l 175 1271 l 219 1314 l 436 1126 l 371 1126 l 589 1314 z "},"Ż":{"ha":801,"x_min":60,"x_max":739,"o":"m 60 68 l 618 888 l 739 888 l 181 68 l 60 68 m 60 0 l 60 68 l 147 93 l 728 93 l 728 0 l 60 0 m 86 863 l 86 956 l 739 956 l 739 888 l 650 863 l 86 863 m 404 1069 q 357 1090 376 1069 q 338 1138 338 1110 q 357 1186 338 1167 q 404 1206 376 1206 q 453 1186 435 1206 q 472 1138 472 1167 q 453 1090 472 1110 q 404 1069 435 1069 z "},"a":{"ha":813,"x_min":57,"x_max":714,"o":"m 382 -14 q 215 31 289 -14 q 99 153 142 76 q 57 325 57 229 q 99 499 57 422 q 215 622 142 576 q 381 667 289 667 q 515 637 456 667 q 610 553 574 607 q 656 429 647 500 l 656 225 q 610 100 647 154 q 515 16 574 46 q 382 -14 456 -14 m 397 79 q 560 147 499 79 q 622 326 622 215 q 594 456 622 400 q 515 544 565 513 q 396 575 464 575 q 273 543 326 575 q 188 455 219 511 q 157 326 157 399 q 188 199 157 254 q 274 111 219 143 q 397 79 328 79 m 617 0 l 617 175 l 636 336 l 617 493 l 617 653 l 714 653 l 714 0 l 617 0 z "},"á":{"ha":813,"x_min":57,"x_max":714,"o":"m 382 -14 q 215 31 289 -14 q 99 153 142 76 q 57 325 57 229 q 99 499 57 422 q 215 622 142 576 q 381 667 289 667 q 515 637 456 667 q 610 553 574 607 q 656 429 647 500 l 656 225 q 610 100 647 154 q 515 16 574 46 q 382 -14 456 -14 m 397 79 q 560 147 499 79 q 622 326 622 215 q 594 456 622 400 q 515 544 565 513 q 396 575 464 575 q 273 543 326 575 q 188 455 219 511 q 157 326 157 399 q 188 199 157 254 q 274 111 219 143 q 397 79 328 79 m 617 0 l 617 175 l 636 336 l 617 493 l 617 653 l 714 653 l 714 0 l 617 0 m 326 754 l 282 799 l 467 1018 l 544 940 l 326 754 z "},"ă":{"ha":813,"x_min":57,"x_max":714,"o":"m 382 -14 q 215 31 289 -14 q 99 153 142 76 q 57 325 57 229 q 99 499 57 422 q 215 622 142 576 q 381 667 289 667 q 515 637 456 667 q 610 553 574 607 q 656 429 647 500 l 656 225 q 610 100 647 154 q 515 16 574 46 q 382 -14 456 -14 m 397 79 q 560 147 499 79 q 622 326 622 215 q 594 456 622 400 q 515 544 565 513 q 396 575 464 575 q 273 543 326 575 q 188 455 219 511 q 157 326 157 399 q 188 199 157 254 q 274 111 219 143 q 397 79 328 79 m 617 0 l 617 175 l 636 336 l 617 493 l 617 653 l 714 653 l 714 0 l 617 0 m 642 960 q 612 844 642 896 q 531 763 582 793 q 415 732 481 732 q 295 763 347 732 q 213 844 243 793 q 183 960 183 896 l 274 960 q 312 858 274 899 q 417 817 350 817 q 485 835 454 817 q 535 887 517 854 q 553 960 553 919 l 642 960 z "},"ǎ":{"ha":813,"x_min":57,"x_max":714,"o":"m 382 -14 q 215 31 289 -14 q 99 153 142 76 q 57 325 57 229 q 99 499 57 422 q 215 622 142 576 q 381 667 289 667 q 515 637 456 667 q 610 553 574 607 q 656 429 647 500 l 656 225 q 610 100 647 154 q 515 16 574 46 q 382 -14 456 -14 m 397 79 q 560 147 499 79 q 622 326 622 215 q 594 456 622 400 q 515 544 565 513 q 396 575 464 575 q 273 543 326 575 q 188 455 219 511 q 157 326 157 399 q 188 199 157 254 q 274 111 219 143 q 397 79 328 79 m 617 0 l 617 175 l 636 336 l 617 493 l 617 653 l 714 653 l 714 0 l 617 0 m 597 1011 l 642 968 l 451 753 l 374 753 l 183 968 l 228 1011 l 444 824 l 379 824 l 597 1011 z "},"â":{"ha":813,"x_min":57,"x_max":714,"o":"m 382 -14 q 215 31 289 -14 q 99 153 142 76 q 57 325 57 229 q 99 499 57 422 q 215 622 142 576 q 381 667 289 667 q 515 637 456 667 q 610 553 574 607 q 656 429 647 500 l 656 225 q 610 100 647 154 q 515 16 574 46 q 382 -14 456 -14 m 397 79 q 560 147 499 79 q 622 326 622 215 q 594 456 622 400 q 515 544 565 513 q 396 575 464 575 q 273 543 326 575 q 188 455 219 511 q 157 326 157 399 q 188 199 157 254 q 274 111 219 143 q 397 79 328 79 m 617 0 l 617 175 l 636 336 l 617 493 l 617 653 l 714 653 l 714 0 l 617 0 m 228 753 l 183 797 l 374 1011 l 451 1011 l 642 797 l 597 753 l 381 942 l 446 940 l 228 753 z "},"ä":{"ha":813,"x_min":57,"x_max":714,"o":"m 382 -14 q 215 31 289 -14 q 99 153 142 76 q 57 325 57 229 q 99 499 57 422 q 215 622 142 576 q 381 667 289 667 q 515 637 456 667 q 610 553 574 607 q 656 429 647 500 l 656 225 q 610 100 647 154 q 515 16 574 46 q 382 -14 456 -14 m 397 79 q 560 147 499 79 q 622 326 622 215 q 594 456 622 400 q 515 544 565 513 q 396 575 464 575 q 273 543 326 575 q 188 455 219 511 q 157 326 157 399 q 188 199 157 254 q 274 111 219 143 q 397 79 328 79 m 617 0 l 617 175 l 636 336 l 617 493 l 617 653 l 714 653 l 714 0 l 617 0 m 281 767 q 233 787 253 767 q 214 835 214 807 q 233 883 214 864 q 281 903 253 903 q 330 883 311 903 q 349 835 349 864 q 330 787 349 807 q 281 767 311 767 m 544 767 q 497 787 517 767 q 478 835 478 807 q 497 883 478 864 q 544 903 517 903 q 594 883 575 903 q 613 835 613 864 q 594 787 613 807 q 544 767 575 767 z "},"à":{"ha":813,"x_min":57,"x_max":714,"o":"m 382 -14 q 215 31 289 -14 q 99 153 142 76 q 57 325 57 229 q 99 499 57 422 q 215 622 142 576 q 381 667 289 667 q 515 637 456 667 q 610 553 574 607 q 656 429 647 500 l 656 225 q 610 100 647 154 q 515 16 574 46 q 382 -14 456 -14 m 397 79 q 560 147 499 79 q 622 326 622 215 q 594 456 622 400 q 515 544 565 513 q 396 575 464 575 q 273 543 326 575 q 188 455 219 511 q 157 326 157 399 q 188 199 157 254 q 274 111 219 143 q 397 79 328 79 m 617 0 l 617 175 l 636 336 l 617 493 l 617 653 l 714 653 l 714 0 l 617 0 m 468 747 l 250 933 l 328 1011 l 513 792 l 468 747 z "},"ā":{"ha":813,"x_min":57,"x_max":714,"o":"m 382 -14 q 215 31 289 -14 q 99 153 142 76 q 57 325 57 229 q 99 499 57 422 q 215 622 142 576 q 381 667 289 667 q 515 637 456 667 q 610 553 574 607 q 656 429 647 500 l 656 225 q 610 100 647 154 q 515 16 574 46 q 382 -14 456 -14 m 397 79 q 560 147 499 79 q 622 326 622 215 q 594 456 622 400 q 515 544 565 513 q 396 575 464 575 q 273 543 326 575 q 188 455 219 511 q 157 326 157 399 q 188 199 157 254 q 274 111 219 143 q 397 79 328 79 m 617 0 l 617 175 l 636 336 l 617 493 l 617 653 l 714 653 l 714 0 l 617 0 m 175 875 l 651 875 l 651 793 l 175 793 l 175 875 z "},"ą":{"ha":813,"x_min":57,"x_max":768,"o":"m 382 -14 q 215 31 289 -14 q 99 153 142 76 q 57 325 57 229 q 99 499 57 422 q 215 622 142 576 q 381 667 289 667 q 515 637 456 667 q 610 553 574 607 q 656 429 647 500 l 656 225 q 610 100 647 154 q 515 16 574 46 q 382 -14 456 -14 m 397 79 q 560 147 499 79 q 622 326 622 215 q 594 456 622 400 q 515 544 565 513 q 396 575 464 575 q 273 543 326 575 q 188 455 219 511 q 157 326 157 399 q 188 199 157 254 q 274 111 219 143 q 397 79 328 79 m 617 0 l 617 175 l 636 336 l 617 493 l 617 653 l 714 653 l 714 0 l 617 0 m 664 -289 q 569 -260 610 -289 q 529 -168 529 -231 q 564 -65 529 -117 q 658 25 599 -14 l 714 0 q 636 -75 665 -37 q 607 -157 607 -112 q 624 -207 607 -190 q 675 -224 642 -224 q 710 -217 694 -224 q 740 -203 726 -211 l 768 -257 q 724 -279 749 -269 q 664 -289 699 -289 z "},"å":{"ha":813,"x_min":57,"x_max":714,"o":"m 382 -14 q 215 31 289 -14 q 99 153 142 76 q 57 325 57 229 q 99 499 57 422 q 215 622 142 576 q 381 667 289 667 q 515 637 456 667 q 610 553 574 607 q 656 429 647 500 l 656 225 q 610 100 647 154 q 515 16 574 46 q 382 -14 456 -14 m 397 79 q 560 147 499 79 q 622 326 622 215 q 594 456 622 400 q 515 544 565 513 q 396 575 464 575 q 273 543 326 575 q 188 455 219 511 q 157 326 157 399 q 188 199 157 254 q 274 111 219 143 q 397 79 328 79 m 617 0 l 617 175 l 636 336 l 617 493 l 617 653 l 714 653 l 714 0 l 617 0 m 414 732 q 332 753 368 732 q 275 809 296 774 q 254 889 254 844 q 275 969 254 933 q 332 1025 296 1004 q 414 1046 368 1046 q 494 1025 458 1046 q 549 969 529 1004 q 569 889 569 933 q 549 809 569 844 q 494 753 529 774 q 414 732 460 732 m 415 806 q 471 829 447 806 q 494 889 494 853 q 471 949 494 925 q 415 974 447 974 q 353 949 376 974 q 331 889 331 925 q 353 830 331 854 q 415 806 376 806 z "},"ã":{"ha":813,"x_min":57,"x_max":714,"o":"m 382 -14 q 215 31 289 -14 q 99 153 142 76 q 57 325 57 229 q 99 499 57 422 q 215 622 142 576 q 381 667 289 667 q 515 637 456 667 q 610 553 574 607 q 656 429 647 500 l 656 225 q 610 100 647 154 q 515 16 574 46 q 382 -14 456 -14 m 397 79 q 560 147 499 79 q 622 326 622 215 q 594 456 622 400 q 515 544 565 513 q 396 575 464 575 q 273 543 326 575 q 188 455 219 511 q 157 326 157 399 q 188 199 157 254 q 274 111 219 143 q 397 79 328 79 m 617 0 l 617 175 l 636 336 l 617 493 l 617 653 l 714 653 l 714 0 l 617 0 m 515 761 q 440 777 471 761 q 381 808 410 793 q 318 824 353 824 q 260 810 281 824 q 221 771 239 796 l 167 824 q 231 885 197 861 q 317 908 265 908 q 394 893 363 908 q 453 862 425 878 q 514 846 481 846 q 568 859 547 846 q 606 897 589 872 l 660 846 q 597 784 631 807 q 515 761 563 761 z "},"æ":{"ha":1314,"x_min":57,"x_max":1263,"o":"m 967 -14 q 790 31 868 -14 q 667 153 713 75 q 622 328 622 231 q 667 501 622 424 q 788 622 711 578 q 958 667 864 667 q 1116 626 1047 667 q 1224 515 1185 586 q 1264 350 1264 443 q 1263 324 1264 339 q 1257 290 1261 310 l 692 290 l 692 374 l 1204 374 l 1169 343 q 1145 467 1171 415 q 1072 548 1119 519 q 956 576 1024 576 q 832 546 885 576 q 749 460 779 515 q 719 331 719 406 q 751 199 719 256 q 838 110 782 142 q 968 78 894 78 q 1078 99 1028 78 q 1163 164 1128 121 l 1225 100 q 1112 16 1179 46 q 967 -14 1044 -14 m 382 -14 q 215 31 289 -14 q 99 153 142 76 q 57 325 57 229 q 99 499 57 422 q 215 622 142 576 q 381 667 289 667 q 515 637 456 667 q 610 553 574 607 q 656 429 647 500 l 656 225 q 610 100 647 154 q 515 16 574 46 q 382 -14 456 -14 m 397 79 q 560 147 499 79 q 622 326 622 215 q 594 456 622 400 q 515 544 565 513 q 396 575 464 575 q 273 543 326 575 q 188 455 219 511 q 157 326 157 399 q 188 199 157 254 q 274 111 219 143 q 397 79 328 79 m 617 0 l 617 175 l 636 336 l 617 493 l 617 653 l 714 653 l 714 0 l 617 0 z "},"b":{"ha":813,"x_min":99,"x_max":756,"o":"m 436 -14 q 301 17 361 -14 q 203 101 242 47 q 157 225 165 154 l 157 429 q 204 555 165 501 q 303 638 243 608 q 436 667 364 667 q 599 622 526 667 q 713 499 671 576 q 756 325 756 422 q 714 153 756 229 q 599 31 672 76 q 436 -14 526 -14 m 99 0 l 99 983 l 196 983 l 196 493 l 176 336 l 196 175 l 196 0 l 99 0 m 419 79 q 542 110 489 79 q 624 198 594 142 q 654 326 654 254 q 624 456 654 400 q 542 543 594 511 q 421 575 489 575 q 301 543 353 575 q 219 456 249 511 q 190 326 190 400 q 219 198 190 254 q 300 110 249 142 q 419 79 351 79 z "},"c":{"ha":682,"x_min":56,"x_max":644,"o":"m 396 -14 q 223 31 300 -14 q 101 154 146 76 q 56 328 56 232 q 101 501 56 424 q 223 622 146 578 q 396 667 300 667 q 533 639 469 667 q 642 561 597 611 l 578 496 q 497 553 544 533 q 396 574 450 574 q 272 542 326 574 q 188 455 218 510 q 157 328 157 400 q 188 201 157 257 q 272 113 218 144 q 396 81 326 81 q 499 101 451 81 q 579 158 546 121 l 644 93 q 534 14 599 42 q 396 -14 469 -14 z "},"ć":{"ha":682,"x_min":56,"x_max":644,"o":"m 396 -14 q 223 31 300 -14 q 101 154 146 76 q 56 328 56 232 q 101 501 56 424 q 223 622 146 578 q 396 667 300 667 q 533 639 469 667 q 642 561 597 611 l 578 496 q 497 553 544 533 q 396 574 450 574 q 272 542 326 574 q 188 455 218 510 q 157 328 157 400 q 188 201 157 257 q 272 113 218 144 q 396 81 326 81 q 499 101 451 81 q 579 158 546 121 l 644 93 q 534 14 599 42 q 396 -14 469 -14 m 297 754 l 253 799 l 438 1018 l 515 940 l 297 754 z "},"č":{"ha":682,"x_min":56,"x_max":644,"o":"m 396 -14 q 223 31 300 -14 q 101 154 146 76 q 56 328 56 232 q 101 501 56 424 q 223 622 146 578 q 396 667 300 667 q 533 639 469 667 q 642 561 597 611 l 578 496 q 497 553 544 533 q 396 574 450 574 q 272 542 326 574 q 188 455 218 510 q 157 328 157 400 q 188 201 157 257 q 272 113 218 144 q 396 81 326 81 q 499 101 451 81 q 579 158 546 121 l 644 93 q 534 14 599 42 q 396 -14 469 -14 m 568 1011 l 613 968 l 422 753 l 344 753 l 154 968 l 199 1011 l 415 824 l 350 824 l 568 1011 z "},"ç":{"ha":682,"x_min":56,"x_max":644,"o":"m 396 -14 q 223 31 300 -14 q 101 154 146 76 q 56 328 56 232 q 101 501 56 424 q 223 622 146 578 q 396 667 300 667 q 533 639 469 667 q 642 561 597 611 l 578 496 q 497 553 544 533 q 396 574 450 574 q 272 542 326 574 q 188 455 218 510 q 157 328 157 400 q 188 201 157 257 q 272 113 218 144 q 396 81 326 81 q 499 101 451 81 q 579 158 546 121 l 644 93 q 534 14 599 42 q 396 -14 469 -14 m 351 -289 q 265 -275 306 -289 q 192 -236 225 -261 l 240 -182 q 286 -209 260 -199 q 346 -219 313 -219 q 413 -205 390 -219 q 436 -167 436 -190 q 413 -126 436 -142 q 343 -111 389 -111 l 293 -111 l 332 15 l 413 15 l 381 -82 l 343 -50 q 476 -81 428 -49 q 524 -168 524 -114 q 477 -256 524 -222 q 351 -289 431 -289 z "},"ċ":{"ha":682,"x_min":56,"x_max":644,"o":"m 396 -14 q 223 31 300 -14 q 101 154 146 76 q 56 328 56 232 q 101 501 56 424 q 223 622 146 578 q 396 667 300 667 q 533 639 469 667 q 642 561 597 611 l 578 496 q 497 553 544 533 q 396 574 450 574 q 272 542 326 574 q 188 455 218 510 q 157 328 157 400 q 188 201 157 257 q 272 113 218 144 q 396 81 326 81 q 499 101 451 81 q 579 158 546 121 l 644 93 q 534 14 599 42 q 396 -14 469 -14 m 383 767 q 336 787 356 767 q 317 835 317 807 q 336 883 317 864 q 383 903 356 903 q 433 883 414 903 q 451 835 451 864 q 433 787 451 807 q 383 767 414 767 z "},"d":{"ha":813,"x_min":57,"x_max":714,"o":"m 376 -14 q 214 31 286 -14 q 99 152 142 75 q 57 325 57 229 q 99 499 57 422 q 214 622 142 576 q 376 667 286 667 q 510 638 450 667 q 609 555 569 608 q 656 429 649 501 l 656 225 q 609 101 647 154 q 511 17 571 47 q 376 -14 451 -14 m 393 79 q 513 110 461 79 q 593 198 564 142 q 622 326 622 254 q 592 456 622 400 q 511 543 563 511 q 392 575 460 575 q 271 543 324 575 q 188 455 218 511 q 158 326 158 399 q 188 198 158 254 q 272 110 218 142 q 393 79 325 79 m 714 0 l 617 0 l 617 175 l 636 336 l 617 493 l 617 983 l 714 983 l 714 0 z "},"ð":{"ha":785,"x_min":64,"x_max":722,"o":"m 394 -14 q 228 31 303 -14 q 108 149 153 75 q 64 314 64 224 q 106 475 64 404 q 217 587 147 546 q 371 628 288 628 q 448 618 415 628 q 506 591 481 608 q 551 549 532 574 l 515 563 l 218 956 l 338 956 l 638 550 q 722 311 722 433 q 679 147 722 221 q 561 30 636 74 q 394 -14 486 -14 m 393 81 q 509 111 457 81 q 591 195 561 142 q 621 314 621 249 q 591 433 621 381 q 509 516 561 485 q 393 547 457 547 q 278 516 331 547 q 196 432 226 485 q 165 314 165 379 q 196 197 165 250 q 278 112 226 143 q 393 81 331 81 m 164 694 l 136 767 l 576 929 l 604 857 l 164 694 z "},"ď":{"ha":1057,"x_min":57,"x_max":956,"o":"m 376 -14 q 214 31 286 -14 q 99 152 142 75 q 57 325 57 229 q 99 499 57 422 q 214 622 142 576 q 376 667 286 667 q 510 638 450 667 q 609 555 569 608 q 656 429 649 501 l 656 225 q 609 101 647 154 q 511 17 571 47 q 376 -14 451 -14 m 393 79 q 513 110 461 79 q 593 198 564 142 q 622 326 622 254 q 592 456 622 400 q 511 543 563 511 q 392 575 460 575 q 271 543 324 575 q 188 455 218 511 q 158 326 158 399 q 188 198 158 254 q 272 110 218 142 q 393 79 325 79 m 714 0 l 617 0 l 617 175 l 636 336 l 617 493 l 617 983 l 714 983 l 714 0 m 849 639 l 789 671 l 868 825 l 904 833 q 889 811 899 819 q 864 803 879 803 q 816 824 838 803 q 794 876 794 844 q 818 935 794 911 q 876 958 842 958 q 932 935 908 958 q 956 876 956 911 q 951 844 956 863 q 931 796 946 825 l 849 639 z "},"đ":{"ha":826,"x_min":57,"x_max":826,"o":"m 383 781 l 383 874 l 826 874 l 826 781 l 383 781 m 376 -14 q 214 31 286 -14 q 99 152 142 75 q 57 325 57 229 q 99 499 57 422 q 214 622 142 576 q 376 667 286 667 q 510 638 450 667 q 609 555 569 608 q 656 429 649 501 l 656 225 q 609 101 647 154 q 511 17 571 47 q 376 -14 451 -14 m 393 79 q 513 110 461 79 q 593 198 564 142 q 622 326 622 254 q 592 456 622 400 q 511 543 563 511 q 392 575 460 575 q 271 543 324 575 q 188 455 218 511 q 158 326 158 399 q 188 198 158 254 q 272 110 218 142 q 393 79 325 79 m 714 0 l 617 0 l 617 175 l 636 336 l 617 493 l 617 983 l 714 983 l 714 0 z "},"e":{"ha":747,"x_min":56,"x_max":697,"o":"m 400 -14 q 224 31 301 -14 q 101 153 146 75 q 56 328 56 231 q 100 501 56 424 q 221 622 144 578 q 392 667 297 667 q 549 626 481 667 q 658 515 618 586 q 697 350 697 443 q 696 324 697 339 q 690 290 694 310 l 125 290 l 125 374 l 638 374 l 603 343 q 578 467 604 415 q 505 548 553 519 q 389 576 457 576 q 265 546 318 576 q 183 460 213 515 q 153 331 153 406 q 184 199 153 256 q 272 110 215 142 q 401 78 328 78 q 511 99 461 78 q 596 164 561 121 l 658 100 q 545 16 613 46 q 400 -14 478 -14 z "},"é":{"ha":747,"x_min":56,"x_max":697,"o":"m 400 -14 q 224 31 301 -14 q 101 153 146 75 q 56 328 56 231 q 100 501 56 424 q 221 622 144 578 q 392 667 297 667 q 549 626 481 667 q 658 515 618 586 q 697 350 697 443 q 696 324 697 339 q 690 290 694 310 l 125 290 l 125 374 l 638 374 l 603 343 q 578 467 604 415 q 505 548 553 519 q 389 576 457 576 q 265 546 318 576 q 183 460 213 515 q 153 331 153 406 q 184 199 153 256 q 272 110 215 142 q 401 78 328 78 q 511 99 461 78 q 596 164 561 121 l 658 100 q 545 16 613 46 q 400 -14 478 -14 m 304 754 l 260 799 l 444 1018 l 522 940 l 304 754 z "},"ě":{"ha":747,"x_min":56,"x_max":697,"o":"m 400 -14 q 224 31 301 -14 q 101 153 146 75 q 56 328 56 231 q 100 501 56 424 q 221 622 144 578 q 392 667 297 667 q 549 626 481 667 q 658 515 618 586 q 697 350 697 443 q 696 324 697 339 q 690 290 694 310 l 125 290 l 125 374 l 638 374 l 603 343 q 578 467 604 415 q 505 548 553 519 q 389 576 457 576 q 265 546 318 576 q 183 460 213 515 q 153 331 153 406 q 184 199 153 256 q 272 110 215 142 q 401 78 328 78 q 511 99 461 78 q 596 164 561 121 l 658 100 q 545 16 613 46 q 400 -14 478 -14 m 575 1011 l 619 968 l 429 753 l 351 753 l 161 968 l 206 1011 l 422 824 l 357 824 l 575 1011 z "},"ê":{"ha":747,"x_min":56,"x_max":697,"o":"m 400 -14 q 224 31 301 -14 q 101 153 146 75 q 56 328 56 231 q 100 501 56 424 q 221 622 144 578 q 392 667 297 667 q 549 626 481 667 q 658 515 618 586 q 697 350 697 443 q 696 324 697 339 q 690 290 694 310 l 125 290 l 125 374 l 638 374 l 603 343 q 578 467 604 415 q 505 548 553 519 q 389 576 457 576 q 265 546 318 576 q 183 460 213 515 q 153 331 153 406 q 184 199 153 256 q 272 110 215 142 q 401 78 328 78 q 511 99 461 78 q 596 164 561 121 l 658 100 q 545 16 613 46 q 400 -14 478 -14 m 206 753 l 161 797 l 351 1011 l 429 1011 l 619 797 l 575 753 l 358 942 l 424 940 l 206 753 z "},"ë":{"ha":747,"x_min":56,"x_max":697,"o":"m 400 -14 q 224 31 301 -14 q 101 153 146 75 q 56 328 56 231 q 100 501 56 424 q 221 622 144 578 q 392 667 297 667 q 549 626 481 667 q 658 515 618 586 q 697 350 697 443 q 696 324 697 339 q 690 290 694 310 l 125 290 l 125 374 l 638 374 l 603 343 q 578 467 604 415 q 505 548 553 519 q 389 576 457 576 q 265 546 318 576 q 183 460 213 515 q 153 331 153 406 q 184 199 153 256 q 272 110 215 142 q 401 78 328 78 q 511 99 461 78 q 596 164 561 121 l 658 100 q 545 16 613 46 q 400 -14 478 -14 m 258 767 q 211 787 231 767 q 192 835 192 807 q 211 883 192 864 q 258 903 231 903 q 308 883 289 903 q 326 835 326 864 q 308 787 326 807 q 258 767 289 767 m 522 767 q 475 787 494 767 q 456 835 456 807 q 475 883 456 864 q 522 903 494 903 q 572 883 553 903 q 590 835 590 864 q 572 787 590 807 q 522 767 553 767 z "},"ė":{"ha":747,"x_min":56,"x_max":697,"o":"m 400 -14 q 224 31 301 -14 q 101 153 146 75 q 56 328 56 231 q 100 501 56 424 q 221 622 144 578 q 392 667 297 667 q 549 626 481 667 q 658 515 618 586 q 697 350 697 443 q 696 324 697 339 q 690 290 694 310 l 125 290 l 125 374 l 638 374 l 603 343 q 578 467 604 415 q 505 548 553 519 q 389 576 457 576 q 265 546 318 576 q 183 460 213 515 q 153 331 153 406 q 184 199 153 256 q 272 110 215 142 q 401 78 328 78 q 511 99 461 78 q 596 164 561 121 l 658 100 q 545 16 613 46 q 400 -14 478 -14 m 390 767 q 343 787 363 767 q 324 835 324 807 q 343 883 324 864 q 390 903 363 903 q 440 883 421 903 q 458 835 458 864 q 440 787 458 807 q 390 767 421 767 z "},"è":{"ha":747,"x_min":56,"x_max":697,"o":"m 400 -14 q 224 31 301 -14 q 101 153 146 75 q 56 328 56 231 q 100 501 56 424 q 221 622 144 578 q 392 667 297 667 q 549 626 481 667 q 658 515 618 586 q 697 350 697 443 q 696 324 697 339 q 690 290 694 310 l 125 290 l 125 374 l 638 374 l 603 343 q 578 467 604 415 q 505 548 553 519 q 389 576 457 576 q 265 546 318 576 q 183 460 213 515 q 153 331 153 406 q 184 199 153 256 q 272 110 215 142 q 401 78 328 78 q 511 99 461 78 q 596 164 561 121 l 658 100 q 545 16 613 46 q 400 -14 478 -14 m 446 747 l 228 933 l 306 1011 l 490 792 l 446 747 z "},"ē":{"ha":747,"x_min":56,"x_max":697,"o":"m 400 -14 q 224 31 301 -14 q 101 153 146 75 q 56 328 56 231 q 100 501 56 424 q 221 622 144 578 q 392 667 297 667 q 549 626 481 667 q 658 515 618 586 q 697 350 697 443 q 696 324 697 339 q 690 290 694 310 l 125 290 l 125 374 l 638 374 l 603 343 q 578 467 604 415 q 505 548 553 519 q 389 576 457 576 q 265 546 318 576 q 183 460 213 515 q 153 331 153 406 q 184 199 153 256 q 272 110 215 142 q 401 78 328 78 q 511 99 461 78 q 596 164 561 121 l 658 100 q 545 16 613 46 q 400 -14 478 -14 m 153 875 l 629 875 l 629 793 l 153 793 l 153 875 z "},"ę":{"ha":747,"x_min":56,"x_max":697,"o":"m 400 -14 q 224 31 301 -14 q 101 153 146 75 q 56 328 56 231 q 100 501 56 424 q 221 622 144 578 q 392 667 297 667 q 549 626 481 667 q 658 515 618 586 q 697 350 697 443 q 696 324 697 339 q 690 290 694 310 l 125 290 l 125 374 l 638 374 l 603 343 q 578 467 604 415 q 505 548 553 519 q 389 576 457 576 q 265 546 318 576 q 183 460 213 515 q 153 331 153 406 q 184 199 153 256 q 272 110 215 142 q 401 78 328 78 q 511 99 461 78 q 596 164 561 121 l 658 100 q 545 16 613 46 q 400 -14 478 -14 m 488 -275 q 393 -246 433 -275 q 353 -154 353 -217 q 388 -51 353 -103 q 482 39 422 0 l 538 14 q 460 -61 489 -24 q 431 -143 431 -99 q 448 -193 431 -176 q 499 -210 465 -210 q 534 -203 518 -210 q 564 -189 550 -197 l 592 -243 q 547 -265 572 -256 q 488 -275 522 -275 z "},"f":{"ha":549,"x_min":31,"x_max":596,"o":"m 194 0 l 194 764 q 224 885 194 832 q 308 967 254 938 q 429 997 361 997 q 522 978 482 997 q 596 926 563 960 l 532 863 q 485 895 510 885 q 429 906 461 906 q 328 867 364 906 q 293 761 293 829 l 293 0 l 194 0 m 31 565 l 31 653 l 511 653 l 511 565 l 31 565 z "},"g":{"ha":808,"x_min":57,"x_max":711,"o":"m 368 -289 q 192 -252 269 -289 q 68 -149 115 -215 l 132 -85 q 231 -167 171 -137 q 371 -196 290 -196 q 548 -136 482 -196 q 614 26 614 -76 l 614 189 l 633 338 l 614 485 l 614 653 l 711 653 l 711 26 q 668 -139 711 -68 q 548 -249 625 -210 q 368 -289 471 -289 m 375 7 q 213 50 285 7 q 99 168 140 93 q 57 338 57 243 q 98 506 57 432 q 211 624 139 581 q 374 667 283 667 q 510 638 450 667 q 608 555 571 608 q 653 429 644 501 l 653 244 q 607 120 644 174 q 510 37 569 67 q 375 7 450 7 m 393 100 q 512 129 461 100 q 591 212 563 158 q 619 338 619 265 q 591 461 619 408 q 511 544 563 514 q 392 575 460 575 q 270 544 324 575 q 187 461 217 514 q 157 338 157 408 q 188 214 157 268 q 271 130 218 160 q 393 100 324 100 z "},"ğ":{"ha":808,"x_min":57,"x_max":711,"o":"m 368 -289 q 192 -252 269 -289 q 68 -149 115 -215 l 132 -85 q 231 -167 171 -137 q 371 -196 290 -196 q 548 -136 482 -196 q 614 26 614 -76 l 614 189 l 633 338 l 614 485 l 614 653 l 711 653 l 711 26 q 668 -139 711 -68 q 548 -249 625 -210 q 368 -289 471 -289 m 375 7 q 213 50 285 7 q 99 168 140 93 q 57 338 57 243 q 98 506 57 432 q 211 624 139 581 q 374 667 283 667 q 510 638 450 667 q 608 555 571 608 q 653 429 644 501 l 653 244 q 607 120 644 174 q 510 37 569 67 q 375 7 450 7 m 393 100 q 512 129 461 100 q 591 212 563 158 q 619 338 619 265 q 591 461 619 408 q 511 544 563 514 q 392 575 460 575 q 270 544 324 575 q 187 461 217 514 q 157 338 157 408 q 188 214 157 268 q 271 130 218 160 q 393 100 324 100 m 642 960 q 612 844 642 896 q 531 763 582 793 q 415 732 481 732 q 295 763 347 732 q 213 844 243 793 q 183 960 183 896 l 274 960 q 312 858 274 899 q 417 817 350 817 q 485 835 454 817 q 535 887 517 854 q 553 960 553 919 l 642 960 z "},"ģ":{"ha":808,"x_min":57,"x_max":711,"o":"m 368 -289 q 192 -252 269 -289 q 68 -149 115 -215 l 132 -85 q 231 -167 171 -137 q 371 -196 290 -196 q 548 -136 482 -196 q 614 26 614 -76 l 614 189 l 633 338 l 614 485 l 614 653 l 711 653 l 711 26 q 668 -139 711 -68 q 548 -249 625 -210 q 368 -289 471 -289 m 375 7 q 213 50 285 7 q 99 168 140 93 q 57 338 57 243 q 98 506 57 432 q 211 624 139 581 q 374 667 283 667 q 510 638 450 667 q 608 555 571 608 q 653 429 644 501 l 653 244 q 607 120 644 174 q 510 37 569 67 q 375 7 450 7 m 393 100 q 512 129 461 100 q 591 212 563 158 q 619 338 619 265 q 591 461 619 408 q 511 544 563 514 q 392 575 460 575 q 270 544 324 575 q 187 461 217 514 q 157 338 157 408 q 188 214 157 268 q 271 130 218 160 q 393 100 324 100 m 486 1021 l 407 867 l 372 858 q 388 880 378 871 q 411 889 397 889 q 459 868 438 889 q 481 814 481 847 q 457 756 481 781 q 400 732 433 732 q 344 756 368 732 q 319 814 319 781 q 325 847 319 828 q 344 896 331 865 l 428 1053 l 486 1021 z "},"ġ":{"ha":808,"x_min":57,"x_max":711,"o":"m 368 -289 q 192 -252 269 -289 q 68 -149 115 -215 l 132 -85 q 231 -167 171 -137 q 371 -196 290 -196 q 548 -136 482 -196 q 614 26 614 -76 l 614 189 l 633 338 l 614 485 l 614 653 l 711 653 l 711 26 q 668 -139 711 -68 q 548 -249 625 -210 q 368 -289 471 -289 m 375 7 q 213 50 285 7 q 99 168 140 93 q 57 338 57 243 q 98 506 57 432 q 211 624 139 581 q 374 667 283 667 q 510 638 450 667 q 608 555 571 608 q 653 429 644 501 l 653 244 q 607 120 644 174 q 510 37 569 67 q 375 7 450 7 m 393 100 q 512 129 461 100 q 591 212 563 158 q 619 338 619 265 q 591 461 619 408 q 511 544 563 514 q 392 575 460 575 q 270 544 324 575 q 187 461 217 514 q 157 338 157 408 q 188 214 157 268 q 271 130 218 160 q 393 100 324 100 m 413 767 q 365 787 385 767 q 346 835 346 807 q 365 883 346 864 q 413 903 385 903 q 462 883 443 903 q 481 835 481 864 q 462 787 481 807 q 413 767 443 767 z "},"h":{"ha":756,"x_min":99,"x_max":672,"o":"m 574 0 l 574 383 q 523 523 574 469 q 389 576 472 576 q 289 551 332 576 q 221 483 246 526 q 196 385 196 440 l 151 410 q 186 542 151 483 q 280 633 221 600 q 415 667 339 667 q 549 633 490 667 q 640 539 607 599 q 672 400 672 479 l 672 0 l 574 0 m 99 0 l 99 983 l 196 983 l 196 0 l 99 0 z "},"ħ":{"ha":756,"x_min":0,"x_max":672,"o":"m 0 781 l 0 874 l 443 874 l 443 781 l 0 781 m 574 0 l 574 383 q 523 523 574 469 q 389 576 472 576 q 289 551 332 576 q 221 483 246 526 q 196 385 196 440 l 151 410 q 186 542 151 483 q 280 633 221 600 q 415 667 339 667 q 549 633 490 667 q 640 539 607 599 q 672 400 672 479 l 672 0 l 574 0 m 99 0 l 99 983 l 196 983 l 196 0 l 99 0 z "},"i":{"ha":296,"x_min":81,"x_max":215,"o":"m 99 0 l 99 653 l 197 653 l 197 0 l 99 0 m 147 794 q 100 815 119 794 q 81 863 81 835 q 100 911 81 892 q 147 931 119 931 q 197 911 178 931 q 215 863 215 892 q 197 815 215 835 q 147 794 178 794 z "},"ı":{"ha":294,"x_min":99,"x_max":197,"o":"m 99 0 l 99 653 l 197 653 l 197 0 l 99 0 z "},"í":{"ha":294,"x_min":17,"x_max":278,"o":"m 99 0 l 99 653 l 197 653 l 197 0 l 99 0 m 61 754 l 17 799 l 201 1018 l 279 940 l 61 754 z "},"î":{"ha":294,"x_min":-82,"x_max":376,"o":"m 99 0 l 99 653 l 197 653 l 197 0 l 99 0 m -37 753 l -82 797 l 108 1011 l 186 1011 l 376 797 l 332 753 l 115 942 l 181 940 l -37 753 z "},"ï":{"ha":294,"x_min":-51,"x_max":347,"o":"m 99 0 l 99 653 l 197 653 l 197 0 l 99 0 m 15 767 q -32 787 -12 767 q -51 835 -51 807 q -32 883 -51 864 q 15 903 -12 903 q 65 883 46 903 q 83 835 83 864 q 65 787 83 807 q 15 767 46 767 m 279 767 q 232 787 251 767 q 213 835 213 807 q 232 883 213 864 q 279 903 251 903 q 328 883 310 903 q 347 835 347 864 q 328 787 347 807 q 279 767 310 767 z "},"ì":{"ha":294,"x_min":-15,"x_max":246,"o":"m 99 0 l 99 653 l 197 653 l 197 0 l 99 0 m 203 747 l -15 933 l 63 1011 l 247 792 l 203 747 z "},"ĳ":{"ha":599,"x_min":81,"x_max":519,"o":"m 99 0 l 99 653 l 197 653 l 197 0 l 99 0 m 147 794 q 100 815 119 794 q 81 863 81 835 q 100 911 81 892 q 147 931 119 931 q 197 911 178 931 q 215 863 215 892 q 197 815 215 835 q 147 794 178 794 m 293 -289 q 194 -269 236 -289 q 121 -214 153 -250 l 185 -150 q 231 -186 206 -175 q 289 -197 257 -197 q 369 -169 336 -197 q 403 -82 403 -142 l 403 653 l 500 653 l 500 -81 q 472 -195 500 -149 q 396 -265 443 -242 q 293 -289 349 -289 m 451 794 q 404 815 424 794 q 385 863 385 835 q 404 911 385 892 q 451 931 424 931 q 501 911 482 931 q 519 863 519 892 q 501 815 519 835 q 451 794 482 794 z "},"ī":{"ha":294,"x_min":-51,"x_max":347,"o":"m -51 875 l 347 875 l 347 793 l -51 793 l -51 875 m 99 0 l 99 653 l 197 653 l 197 0 l 99 0 z "},"į":{"ha":296,"x_min":13,"x_max":251,"o":"m 99 0 l 99 653 l 197 653 l 197 0 l 99 0 m 147 794 q 100 815 119 794 q 81 863 81 835 q 100 911 81 892 q 147 931 119 931 q 197 911 178 931 q 215 863 215 892 q 197 815 215 835 q 147 794 178 794 m 147 -289 q 53 -260 93 -289 q 13 -168 13 -231 q 47 -65 13 -117 q 142 25 82 -14 l 197 0 q 119 -75 149 -37 q 90 -157 90 -112 q 108 -207 90 -190 q 158 -224 125 -224 q 194 -217 178 -224 q 224 -203 210 -211 l 251 -257 q 207 -279 232 -269 q 147 -289 182 -289 z "},"j":{"ha":303,"x_min":-175,"x_max":224,"o":"m -3 -289 q -101 -269 -60 -289 q -175 -214 -143 -250 l -111 -150 q -65 -186 -90 -175 q -7 -197 -39 -197 q 74 -169 40 -197 q 107 -82 107 -142 l 107 653 l 204 653 l 204 -81 q 176 -195 204 -149 q 100 -265 147 -242 q -3 -289 53 -289 m 156 794 q 108 815 128 794 q 89 863 89 835 q 108 911 89 892 q 156 931 128 931 q 205 911 186 931 q 224 863 224 892 q 205 815 224 835 q 156 794 186 794 z "},"ȷ":{"ha":303,"x_min":-175,"x_max":204,"o":"m -3 -289 q -101 -269 -60 -289 q -175 -214 -143 -250 l -111 -150 q -65 -186 -90 -175 q -7 -197 -39 -197 q 74 -169 40 -197 q 107 -82 107 -142 l 107 653 l 204 653 l 204 -81 q 176 -195 204 -149 q 100 -265 147 -242 q -3 -289 53 -289 z "},"k":{"ha":672,"x_min":99,"x_max":649,"o":"m 519 0 l 186 335 l 514 653 l 635 653 l 278 310 l 282 365 l 649 0 l 519 0 m 99 0 l 99 983 l 196 983 l 196 0 l 99 0 z "},"ķ":{"ha":672,"x_min":99,"x_max":649,"o":"m 519 0 l 186 335 l 514 653 l 635 653 l 278 310 l 282 365 l 649 0 l 519 0 m 99 0 l 99 983 l 196 983 l 196 0 l 99 0 m 335 -431 l 275 -399 l 354 -244 l 390 -236 q 375 -258 385 -249 q 350 -267 365 -267 q 302 -245 324 -267 q 281 -192 281 -224 q 304 -134 281 -158 q 363 -110 328 -110 q 418 -134 394 -110 q 442 -192 442 -158 q 437 -224 442 -206 q 417 -274 432 -243 l 335 -431 z "},"l":{"ha":294,"x_min":99,"x_max":196,"o":"m 99 0 l 99 983 l 196 983 l 196 0 l 99 0 z "},"ĺ":{"ha":294,"x_min":15,"x_max":278,"o":"m 99 0 l 99 983 l 196 983 l 196 0 l 99 0 m 60 1057 l 15 1101 l 200 1321 l 278 1243 l 60 1057 z "},"ľ":{"ha":522,"x_min":99,"x_max":421,"o":"m 99 0 l 99 983 l 196 983 l 196 0 l 99 0 m 314 639 l 254 671 l 333 825 l 369 833 q 354 811 364 819 q 329 803 344 803 q 281 824 303 803 q 260 876 260 844 q 283 935 260 911 q 342 958 307 958 q 397 935 374 958 q 421 876 421 911 q 416 844 421 863 q 396 796 411 825 l 314 639 z "},"ļ":{"ha":294,"x_min":64,"x_max":231,"o":"m 99 0 l 99 983 l 196 983 l 196 0 l 99 0 m 124 -431 l 64 -399 l 143 -244 l 179 -236 q 164 -258 174 -249 q 139 -267 154 -267 q 91 -245 113 -267 q 69 -192 69 -224 q 93 -134 69 -158 q 151 -110 117 -110 q 207 -134 183 -110 q 231 -192 231 -158 q 226 -224 231 -206 q 206 -274 221 -243 l 124 -431 z "},"ł":{"ha":568,"x_min":99,"x_max":469,"o":"m 99 432 l 469 647 l 469 553 l 99 338 l 99 432 m 235 0 l 235 983 l 333 983 l 333 0 l 235 0 z "},"m":{"ha":1179,"x_min":99,"x_max":1094,"o":"m 99 0 l 99 653 l 196 653 l 196 0 l 99 0 m 547 0 l 547 400 q 499 528 547 481 q 376 576 450 576 q 285 555 326 576 q 220 494 244 533 q 196 401 196 456 l 151 419 q 185 550 151 494 q 274 636 218 606 q 401 667 331 667 q 526 636 471 667 q 613 550 581 606 q 646 418 646 494 l 646 0 l 547 0 m 997 0 l 997 400 q 949 528 997 481 q 825 576 900 576 q 735 555 776 576 q 670 494 694 533 q 646 401 646 456 l 588 419 q 627 550 592 494 q 720 636 663 606 q 847 667 778 667 q 973 636 917 667 q 1062 550 1029 606 q 1094 418 1094 494 l 1094 0 l 997 0 z "},"n":{"ha":756,"x_min":99,"x_max":672,"o":"m 574 0 l 574 383 q 523 523 574 469 q 389 576 472 576 q 289 551 332 576 q 221 483 246 526 q 196 385 196 440 l 151 410 q 186 542 151 483 q 280 633 221 600 q 415 667 339 667 q 549 631 490 667 q 640 533 607 594 q 672 400 672 472 l 672 0 l 574 0 m 99 0 l 99 653 l 196 653 l 196 0 l 99 0 z "},"ń":{"ha":756,"x_min":99,"x_max":672,"o":"m 574 0 l 574 383 q 523 523 574 469 q 389 576 472 576 q 289 551 332 576 q 221 483 246 526 q 196 385 196 440 l 151 410 q 186 542 151 483 q 280 633 221 600 q 415 667 339 667 q 549 631 490 667 q 640 533 607 594 q 672 400 672 472 l 672 0 l 574 0 m 99 0 l 99 653 l 196 653 l 196 0 l 99 0 m 292 754 l 247 799 l 432 1018 l 510 940 l 292 754 z "},"ň":{"ha":756,"x_min":99,"x_max":672,"o":"m 574 0 l 574 383 q 523 523 574 469 q 389 576 472 576 q 289 551 332 576 q 221 483 246 526 q 196 385 196 440 l 151 410 q 186 542 151 483 q 281 633 221 600 q 415 667 340 667 q 549 631 490 667 q 640 533 607 594 q 672 400 672 472 l 672 0 l 574 0 m 99 0 l 99 653 l 196 653 l 196 0 l 99 0 m 564 1011 l 607 968 l 418 753 l 339 753 l 150 968 l 193 1011 l 411 824 l 346 824 l 564 1011 z "},"ņ":{"ha":756,"x_min":99,"x_max":672,"o":"m 574 0 l 574 383 q 523 523 574 469 q 389 576 472 576 q 289 551 332 576 q 221 483 246 526 q 196 385 196 440 l 151 410 q 186 542 151 483 q 280 633 221 600 q 415 667 339 667 q 549 631 490 667 q 640 533 607 594 q 672 400 672 472 l 672 0 l 574 0 m 99 0 l 99 653 l 196 653 l 196 0 l 99 0 m 356 -431 l 296 -399 l 375 -244 l 411 -236 q 396 -258 406 -249 q 371 -267 386 -267 q 323 -245 344 -267 q 301 -192 301 -224 q 325 -134 301 -158 q 383 -110 349 -110 q 439 -134 415 -110 q 463 -192 463 -158 q 458 -224 463 -206 q 438 -274 453 -243 l 356 -431 z "},"ñ":{"ha":756,"x_min":99,"x_max":672,"o":"m 574 0 l 574 383 q 523 523 574 469 q 389 576 472 576 q 289 551 332 576 q 221 483 246 526 q 196 385 196 440 l 151 410 q 186 542 151 483 q 280 633 221 600 q 415 667 339 667 q 549 631 490 667 q 640 533 607 594 q 672 400 672 472 l 672 0 l 574 0 m 99 0 l 99 653 l 196 653 l 196 0 l 99 0 m 481 761 q 406 777 436 761 q 347 808 375 793 q 283 824 318 824 q 225 810 246 824 q 186 771 204 796 l 132 824 q 197 885 163 861 q 282 908 231 908 q 359 893 328 908 q 418 862 390 878 q 479 846 446 846 q 533 859 513 846 q 571 897 554 872 l 625 846 q 562 784 596 807 q 481 761 528 761 z "},"ŋ":{"ha":756,"x_min":99,"x_max":672,"o":"m 465 -289 q 367 -269 408 -289 q 292 -214 325 -250 l 356 -150 q 403 -186 378 -175 q 460 -197 428 -197 q 540 -169 507 -197 q 574 -82 574 -142 l 574 267 l 672 267 l 672 -81 q 643 -195 672 -149 q 567 -265 614 -242 q 465 -289 521 -289 m 574 0 l 574 383 q 523 523 574 469 q 389 576 472 576 q 289 551 332 576 q 221 483 246 526 q 196 385 196 440 l 151 410 q 186 542 151 483 q 281 633 221 600 q 415 667 340 667 q 549 631 490 667 q 640 533 607 594 q 672 400 672 472 l 672 0 l 574 0 m 99 0 l 99 653 l 196 653 l 196 0 l 99 0 z "},"o":{"ha":789,"x_min":56,"x_max":733,"o":"m 394 -14 q 223 32 300 -14 q 101 156 146 78 q 56 329 56 233 q 101 500 56 424 q 223 622 146 576 q 394 667 300 667 q 567 622 490 667 q 688 501 643 578 q 733 329 733 424 q 688 155 733 232 q 567 32 643 78 q 394 -14 490 -14 m 394 81 q 517 113 464 81 q 602 201 571 144 q 633 329 633 258 q 602 455 633 400 q 517 542 571 510 q 394 574 464 574 q 272 542 326 574 q 188 455 218 510 q 157 329 157 400 q 188 201 157 257 q 272 113 218 144 q 394 81 326 81 z "},"ó":{"ha":789,"x_min":56,"x_max":733,"o":"m 394 -14 q 223 32 300 -14 q 101 156 146 78 q 56 329 56 233 q 101 500 56 424 q 223 622 146 576 q 394 667 300 667 q 567 622 490 667 q 688 501 643 578 q 733 329 733 424 q 688 155 733 232 q 567 32 643 78 q 394 -14 490 -14 m 394 81 q 517 113 464 81 q 602 201 571 144 q 633 329 633 258 q 602 455 633 400 q 517 542 571 510 q 394 574 464 574 q 272 542 326 574 q 188 455 218 510 q 157 329 157 400 q 188 201 157 257 q 272 113 218 144 q 394 81 326 81 m 308 754 l 264 799 l 449 1018 l 526 940 l 308 754 z "},"ô":{"ha":789,"x_min":56,"x_max":733,"o":"m 394 -14 q 223 32 300 -14 q 101 156 146 78 q 56 329 56 233 q 101 500 56 424 q 223 622 146 576 q 394 667 300 667 q 567 622 490 667 q 688 501 643 578 q 733 329 733 424 q 688 155 733 232 q 567 32 643 78 q 394 -14 490 -14 m 394 81 q 517 113 464 81 q 602 201 571 144 q 633 329 633 258 q 602 455 633 400 q 517 542 571 510 q 394 574 464 574 q 272 542 326 574 q 188 455 218 510 q 157 329 157 400 q 188 201 157 257 q 272 113 218 144 q 394 81 326 81 m 211 753 l 167 797 l 357 1011 l 435 1011 l 625 797 l 581 753 l 364 942 l 429 940 l 211 753 z "},"ö":{"ha":789,"x_min":56,"x_max":733,"o":"m 394 -14 q 223 32 300 -14 q 101 156 146 78 q 56 329 56 233 q 101 500 56 424 q 223 622 146 576 q 394 667 300 667 q 567 622 490 667 q 688 501 643 578 q 733 329 733 424 q 688 155 733 232 q 567 32 643 78 q 394 -14 490 -14 m 394 81 q 517 113 464 81 q 602 201 571 144 q 633 329 633 258 q 602 455 633 400 q 517 542 571 510 q 394 574 464 574 q 272 542 326 574 q 188 455 218 510 q 157 329 157 400 q 188 201 157 257 q 272 113 218 144 q 394 81 326 81 m 263 767 q 215 787 235 767 q 196 835 196 807 q 215 883 196 864 q 263 903 235 903 q 312 883 293 903 q 331 835 331 864 q 312 787 331 807 q 263 767 293 767 m 526 767 q 479 787 499 767 q 460 835 460 807 q 479 883 460 864 q 526 903 499 903 q 576 883 557 903 q 594 835 594 864 q 576 787 594 807 q 526 767 557 767 z "},"ò":{"ha":789,"x_min":56,"x_max":733,"o":"m 394 -14 q 223 32 300 -14 q 101 156 146 78 q 56 329 56 233 q 101 500 56 424 q 223 622 146 576 q 394 667 300 667 q 567 622 490 667 q 688 501 643 578 q 733 329 733 424 q 688 155 733 232 q 567 32 643 78 q 394 -14 490 -14 m 394 81 q 517 113 464 81 q 602 201 571 144 q 633 329 633 258 q 602 455 633 400 q 517 542 571 510 q 394 574 464 574 q 272 542 326 574 q 188 455 218 510 q 157 329 157 400 q 188 201 157 257 q 272 113 218 144 q 394 81 326 81 m 450 747 l 232 933 l 310 1011 l 494 792 l 450 747 z "},"ő":{"ha":789,"x_min":56,"x_max":733,"o":"m 394 -14 q 223 32 300 -14 q 101 156 146 78 q 56 329 56 233 q 101 500 56 424 q 223 622 146 576 q 394 667 300 667 q 567 622 490 667 q 688 501 643 578 q 733 329 733 424 q 688 155 733 232 q 567 32 643 78 q 394 -14 490 -14 m 394 81 q 517 113 464 81 q 602 201 571 144 q 633 329 633 258 q 602 455 633 400 q 517 542 571 510 q 394 574 464 574 q 272 542 326 574 q 188 455 218 510 q 157 329 157 400 q 188 201 157 257 q 272 113 218 144 q 394 81 326 81 m 258 744 l 200 765 l 274 1043 l 378 1006 l 258 744 m 471 744 l 413 765 l 486 1043 l 589 1006 l 471 744 z "},"ō":{"ha":789,"x_min":56,"x_max":733,"o":"m 394 -14 q 223 32 300 -14 q 101 156 146 78 q 56 329 56 233 q 101 500 56 424 q 223 622 146 576 q 394 667 300 667 q 567 622 490 667 q 688 501 643 578 q 733 329 733 424 q 688 155 733 232 q 567 32 643 78 q 394 -14 490 -14 m 394 81 q 517 113 464 81 q 602 201 571 144 q 633 329 633 258 q 602 455 633 400 q 517 542 571 510 q 394 574 464 574 q 272 542 326 574 q 188 455 218 510 q 157 329 157 400 q 188 201 157 257 q 272 113 218 144 q 394 81 326 81 m 157 875 l 633 875 l 633 793 l 157 793 l 157 875 z "},"ø":{"ha":789,"x_min":40,"x_max":751,"o":"m 104 -29 l 40 35 l 688 682 l 751 618 l 104 -29 m 394 -14 q 223 32 300 -14 q 101 156 146 78 q 56 329 56 233 q 101 500 56 424 q 223 622 146 576 q 394 667 300 667 q 567 622 490 667 q 688 501 643 578 q 733 329 733 424 q 688 155 733 232 q 567 32 643 78 q 394 -14 490 -14 m 394 81 q 517 113 464 81 q 602 201 571 144 q 633 329 633 258 q 602 455 633 400 q 517 542 571 510 q 394 574 464 574 q 272 542 326 574 q 188 455 218 510 q 157 329 157 400 q 188 201 157 257 q 272 113 218 144 q 394 81 326 81 z "},"õ":{"ha":789,"x_min":56,"x_max":733,"o":"m 394 -14 q 223 32 300 -14 q 101 156 146 78 q 56 329 56 233 q 101 500 56 424 q 223 622 146 576 q 394 667 300 667 q 567 622 490 667 q 688 501 643 578 q 733 329 733 424 q 688 155 733 232 q 567 32 643 78 q 394 -14 490 -14 m 394 81 q 517 113 464 81 q 602 201 571 144 q 633 329 633 258 q 602 455 633 400 q 517 542 571 510 q 394 574 464 574 q 272 542 326 574 q 188 455 218 510 q 157 329 157 400 q 188 201 157 257 q 272 113 218 144 q 394 81 326 81 m 497 761 q 422 777 453 761 q 363 808 392 793 q 300 824 335 824 q 242 810 263 824 q 203 771 221 796 l 149 824 q 213 885 179 861 q 299 908 247 908 q 376 893 344 908 q 435 862 407 878 q 496 846 463 846 q 550 859 529 846 q 588 897 571 872 l 642 846 q 578 784 613 807 q 497 761 544 761 z "},"œ":{"ha":1328,"x_min":56,"x_max":1278,"o":"m 394 -14 q 223 32 300 -14 q 101 156 146 78 q 56 329 56 233 q 101 500 56 424 q 223 622 146 576 q 394 667 300 667 q 567 622 490 667 q 688 501 643 578 q 733 329 733 424 q 688 155 733 232 q 567 32 643 78 q 394 -14 490 -14 m 394 81 q 517 113 464 81 q 602 201 571 144 q 633 329 633 258 q 602 455 633 400 q 517 542 571 510 q 394 574 464 574 q 272 542 326 574 q 188 455 218 510 q 157 329 157 400 q 188 201 157 257 q 272 113 218 144 q 394 81 326 81 m 981 -14 q 804 31 882 -14 q 681 153 726 75 q 636 328 636 231 q 681 501 636 424 q 801 622 725 578 q 972 667 878 667 q 1130 626 1061 667 q 1238 515 1199 586 q 1278 350 1278 443 q 1276 324 1278 339 q 1271 290 1275 310 l 706 290 l 706 374 l 1218 374 l 1183 343 q 1159 467 1185 415 q 1085 548 1133 519 q 969 576 1038 576 q 846 546 899 576 q 763 460 793 515 q 733 331 733 406 q 765 199 733 256 q 852 110 796 142 q 982 78 908 78 q 1092 99 1042 78 q 1176 164 1142 121 l 1239 100 q 1126 16 1193 46 q 981 -14 1058 -14 z "},"p":{"ha":813,"x_min":99,"x_max":756,"o":"m 436 -14 q 301 17 361 -14 q 203 101 242 47 q 157 225 165 154 l 157 429 q 204 555 165 501 q 303 638 243 608 q 436 667 364 667 q 599 622 526 667 q 713 499 671 576 q 756 325 756 422 q 714 153 756 229 q 599 31 672 76 q 436 -14 526 -14 m 99 -275 l 99 653 l 196 653 l 196 486 l 176 328 l 196 168 l 196 -275 l 99 -275 m 419 79 q 542 110 489 79 q 624 198 594 142 q 654 326 654 254 q 624 456 654 400 q 542 543 594 511 q 421 575 489 575 q 301 543 353 575 q 219 456 249 511 q 190 326 190 400 q 219 198 190 254 q 300 110 249 142 q 419 79 351 79 z "},"þ":{"ha":813,"x_min":99,"x_max":756,"o":"m 436 -14 q 301 17 361 -14 q 203 101 242 47 q 157 225 165 154 l 157 429 q 204 555 165 501 q 303 638 243 608 q 436 667 364 667 q 599 622 526 667 q 713 499 671 576 q 756 325 756 422 q 714 153 756 229 q 599 31 672 76 q 436 -14 526 -14 m 99 -275 l 99 983 l 196 983 l 196 486 l 176 328 l 196 168 l 196 -275 l 99 -275 m 419 79 q 542 110 489 79 q 625 198 594 142 q 656 326 656 254 q 625 456 656 400 q 542 543 594 511 q 421 575 489 575 q 301 543 353 575 q 219 456 249 511 q 190 326 190 400 q 219 198 190 254 q 300 110 249 142 q 419 79 351 79 z "},"q":{"ha":813,"x_min":57,"x_max":715,"o":"m 382 -14 q 217 31 290 -14 q 100 153 143 76 q 57 325 57 229 q 100 499 57 422 q 216 622 143 576 q 381 667 289 667 q 515 637 456 667 q 611 553 574 607 q 656 429 649 500 l 656 225 q 610 100 647 154 q 515 16 574 46 q 382 -14 457 -14 m 397 79 q 561 147 500 79 q 622 326 622 215 q 594 456 622 400 q 515 544 567 513 q 396 575 464 575 q 273 543 326 575 q 189 455 219 511 q 158 326 158 399 q 189 199 158 254 q 274 111 219 143 q 397 79 328 79 m 617 -275 l 617 168 l 636 328 l 617 486 l 617 653 l 715 653 l 715 -275 l 617 -275 z "},"r":{"ha":575,"x_min":99,"x_max":546,"o":"m 99 0 l 99 653 l 196 653 l 196 0 l 99 0 m 196 381 l 156 399 q 216 594 156 522 q 382 667 276 667 q 471 649 431 667 q 546 594 511 632 l 482 526 q 430 564 458 553 q 365 575 401 575 q 243 526 290 575 q 196 381 196 476 z "},"ŕ":{"ha":575,"x_min":99,"x_max":546,"o":"m 99 0 l 99 653 l 196 653 l 196 0 l 99 0 m 196 381 l 156 399 q 216 594 156 522 q 382 667 276 667 q 471 649 431 667 q 546 594 511 632 l 482 526 q 430 564 458 553 q 365 575 401 575 q 243 526 290 575 q 196 381 196 476 m 203 754 l 158 799 l 343 1018 l 421 940 l 203 754 z "},"ř":{"ha":575,"x_min":61,"x_max":546,"o":"m 99 0 l 99 653 l 196 653 l 196 0 l 99 0 m 196 381 l 156 399 q 216 594 156 522 q 382 667 276 667 q 471 649 431 667 q 546 594 511 632 l 482 526 q 430 564 458 553 q 365 575 401 575 q 243 526 290 575 q 196 381 196 476 m 475 1011 l 518 968 l 329 753 l 250 753 l 61 968 l 104 1011 l 322 824 l 257 824 l 475 1011 z "},"ŗ":{"ha":575,"x_min":64,"x_max":546,"o":"m 99 0 l 99 653 l 196 653 l 196 0 l 99 0 m 196 381 l 156 399 q 216 594 156 522 q 382 667 276 667 q 471 649 431 667 q 546 594 511 632 l 482 526 q 430 564 458 553 q 365 575 401 575 q 243 526 290 575 q 196 381 196 476 m 124 -431 l 64 -399 l 143 -244 l 179 -236 q 164 -258 174 -249 q 139 -267 154 -267 q 91 -245 113 -267 q 69 -192 69 -224 q 93 -134 69 -158 q 151 -110 117 -110 q 207 -134 183 -110 q 231 -192 231 -158 q 226 -224 231 -206 q 206 -274 221 -243 l 124 -431 z "},"s":{"ha":589,"x_min":40,"x_max":533,"o":"m 299 -14 q 197 1 246 -14 q 109 42 149 15 q 40 104 69 68 l 103 168 q 191 98 142 121 q 301 75 240 75 q 403 100 367 75 q 440 169 440 125 q 414 235 440 211 q 347 272 388 258 q 260 299 306 286 q 172 333 214 313 q 105 389 131 353 q 79 483 79 425 q 106 580 79 539 q 184 644 133 621 q 304 667 235 667 q 438 640 378 667 q 533 563 497 614 l 471 500 q 398 558 442 538 q 300 578 354 578 q 205 553 238 578 q 172 490 172 529 q 199 431 172 453 q 266 397 225 410 q 353 370 307 383 q 440 335 399 357 q 508 277 482 314 q 533 178 533 240 q 470 38 533 90 q 299 -14 407 -14 z "},"ś":{"ha":589,"x_min":40,"x_max":533,"o":"m 299 -14 q 197 1 246 -14 q 109 42 149 15 q 40 104 69 68 l 103 168 q 191 98 142 121 q 301 75 240 75 q 403 100 367 75 q 440 169 440 125 q 414 235 440 211 q 347 272 388 258 q 260 299 306 286 q 172 333 214 313 q 105 389 131 353 q 79 483 79 425 q 106 580 79 539 q 184 644 133 621 q 304 667 235 667 q 438 640 378 667 q 533 563 497 614 l 471 500 q 398 558 442 538 q 300 578 354 578 q 205 553 238 578 q 172 490 172 529 q 199 431 172 453 q 266 397 225 410 q 353 370 307 383 q 440 335 399 357 q 508 277 482 314 q 533 178 533 240 q 470 38 533 90 q 299 -14 407 -14 m 217 754 l 172 799 l 357 1018 l 435 940 l 217 754 z "},"š":{"ha":589,"x_min":40,"x_max":533,"o":"m 299 -14 q 197 1 246 -14 q 109 42 149 15 q 40 104 69 68 l 103 168 q 191 98 142 121 q 301 75 240 75 q 403 100 367 75 q 440 169 440 125 q 414 235 440 211 q 347 272 388 258 q 260 299 306 286 q 172 333 214 313 q 105 389 131 353 q 79 483 79 425 q 106 580 79 539 q 184 644 133 621 q 304 667 235 667 q 438 640 378 667 q 533 563 497 614 l 471 500 q 398 558 442 538 q 300 578 354 578 q 205 553 238 578 q 172 490 172 529 q 199 431 172 453 q 266 397 225 410 q 353 370 307 383 q 440 335 399 357 q 508 277 482 314 q 533 178 533 240 q 470 38 533 90 q 299 -14 407 -14 m 489 1011 l 532 968 l 343 753 l 264 753 l 75 968 l 118 1011 l 336 824 l 271 824 l 489 1011 z "},"ş":{"ha":589,"x_min":40,"x_max":533,"o":"m 299 -14 q 197 1 246 -14 q 109 42 149 15 q 40 104 69 68 l 103 168 q 191 98 142 121 q 301 75 240 75 q 403 100 367 75 q 440 169 440 125 q 414 235 440 211 q 347 272 388 258 q 260 299 306 286 q 172 333 214 313 q 105 389 131 353 q 79 483 79 425 q 106 580 79 539 q 184 644 133 621 q 304 667 235 667 q 438 640 378 667 q 533 563 497 614 l 471 500 q 398 558 442 538 q 300 578 354 578 q 205 553 238 578 q 172 490 172 529 q 199 431 172 453 q 266 397 225 410 q 353 370 307 383 q 440 335 399 357 q 508 277 482 314 q 533 178 533 240 q 470 38 533 90 q 299 -14 407 -14 m 285 -289 q 199 -275 239 -289 q 125 -236 158 -261 l 174 -182 q 219 -209 193 -199 q 279 -219 246 -219 q 347 -205 324 -219 q 369 -167 369 -190 q 346 -126 369 -142 q 276 -111 322 -111 l 226 -111 l 265 15 l 346 15 l 314 -82 l 276 -50 q 409 -81 361 -49 q 457 -168 457 -114 q 410 -256 457 -222 q 285 -289 364 -289 z "},"ș":{"ha":589,"x_min":40,"x_max":533,"o":"m 299 -14 q 197 1 246 -14 q 109 42 149 15 q 40 104 69 68 l 103 168 q 191 98 142 121 q 301 75 240 75 q 403 100 367 75 q 440 169 440 125 q 414 235 440 211 q 347 272 388 258 q 260 299 306 286 q 172 333 214 313 q 105 389 131 353 q 79 483 79 425 q 106 580 79 539 q 184 644 133 621 q 304 667 235 667 q 438 640 378 667 q 533 563 497 614 l 471 500 q 398 558 442 538 q 300 578 354 578 q 205 553 238 578 q 172 490 172 529 q 199 431 172 453 q 266 397 225 410 q 353 370 307 383 q 440 335 399 357 q 508 277 482 314 q 533 178 533 240 q 470 38 533 90 q 299 -14 407 -14 m 281 -431 l 221 -399 l 300 -244 l 336 -236 q 321 -258 331 -249 q 296 -267 311 -267 q 248 -245 269 -267 q 226 -192 226 -224 q 250 -134 226 -158 q 308 -110 274 -110 q 364 -134 340 -110 q 388 -192 388 -158 q 383 -224 388 -206 q 363 -274 378 -243 l 281 -431 z "},"ß":{"ha":789,"x_min":99,"x_max":736,"o":"m 443 -14 q 333 4 381 -14 q 249 58 285 22 l 310 131 q 368 93 333 107 q 446 79 403 79 q 544 104 503 79 q 608 173 585 129 q 631 274 631 217 q 605 374 631 329 q 533 446 579 419 q 426 472 486 472 l 342 472 l 342 558 l 388 558 q 476 583 439 558 q 533 647 513 607 q 553 738 553 688 q 532 823 553 785 q 472 884 511 861 q 378 907 433 907 q 248 858 299 907 q 197 731 197 810 l 197 0 l 99 0 l 99 731 q 134 867 99 807 q 233 963 169 928 q 378 997 296 997 q 524 963 463 997 q 618 872 585 929 q 651 743 651 814 q 601 592 651 656 q 465 511 550 529 l 472 547 q 611 507 551 543 q 703 410 671 471 q 736 271 736 350 q 715 158 736 210 q 656 68 694 107 q 564 8 618 29 q 443 -14 510 -14 z "},"t":{"ha":496,"x_min":35,"x_max":461,"o":"m 200 0 l 200 928 l 297 928 l 297 0 l 200 0 m 35 565 l 35 653 l 461 653 l 461 565 l 35 565 z "},"ť":{"ha":611,"x_min":35,"x_max":501,"o":"m 200 0 l 200 928 l 297 928 l 297 0 l 200 0 m 35 565 l 35 653 l 461 653 l 461 565 l 35 565 m 394 697 l 335 729 l 414 883 l 450 892 q 435 869 444 878 q 410 861 425 861 q 362 882 383 861 q 340 935 340 903 q 364 993 340 969 q 422 1017 388 1017 q 478 993 454 1017 q 501 935 501 969 q 497 902 501 921 q 476 854 492 883 l 394 697 z "},"ț":{"ha":496,"x_min":35,"x_max":461,"o":"m 200 0 l 200 928 l 297 928 l 297 0 l 200 0 m 35 565 l 35 653 l 461 653 l 461 565 l 35 565 m 226 -431 l 167 -399 l 246 -244 l 282 -236 q 267 -258 276 -249 q 242 -267 257 -267 q 194 -245 215 -267 q 172 -192 172 -224 q 196 -134 172 -158 q 254 -110 219 -110 q 310 -134 286 -110 q 333 -192 333 -158 q 328 -224 333 -206 q 308 -274 324 -243 l 226 -431 z "},"u":{"ha":715,"x_min":82,"x_max":632,"o":"m 357 -14 q 215 23 278 -14 q 117 124 153 60 q 82 274 82 188 l 82 653 l 181 653 l 181 278 q 202 174 181 218 q 264 104 224 129 q 357 79 304 79 q 487 133 439 79 q 535 278 535 188 l 535 653 l 632 653 l 632 274 q 597 124 632 189 q 500 22 563 58 q 357 -14 438 -14 z "},"ú":{"ha":715,"x_min":82,"x_max":632,"o":"m 357 -14 q 215 23 278 -14 q 117 124 153 60 q 82 274 82 188 l 82 653 l 181 653 l 181 278 q 202 174 181 218 q 264 104 224 129 q 357 79 304 79 q 487 133 439 79 q 535 278 535 188 l 535 653 l 632 653 l 632 274 q 597 124 632 189 q 500 22 563 58 q 357 -14 438 -14 m 271 754 l 226 799 l 411 1018 l 489 940 l 271 754 z "},"ŭ":{"ha":715,"x_min":82,"x_max":632,"o":"m 357 -14 q 215 23 278 -14 q 117 124 153 60 q 82 274 82 188 l 82 653 l 181 653 l 181 278 q 202 174 181 218 q 264 104 224 129 q 357 79 304 79 q 487 133 439 79 q 535 278 535 188 l 535 653 l 632 653 l 632 274 q 597 124 632 189 q 500 22 563 58 q 357 -14 438 -14 m 588 960 q 558 844 588 896 q 477 763 528 793 q 361 732 426 732 q 241 763 293 732 q 159 844 189 793 q 129 960 129 896 l 219 960 q 258 858 219 899 q 363 817 296 817 q 431 835 400 817 q 481 887 463 854 q 499 960 499 919 l 588 960 z "},"û":{"ha":715,"x_min":82,"x_max":632,"o":"m 357 -14 q 215 23 278 -14 q 117 124 153 60 q 82 274 82 188 l 82 653 l 181 653 l 181 278 q 202 174 181 218 q 264 104 224 129 q 357 79 304 79 q 487 133 439 79 q 535 278 535 188 l 535 653 l 632 653 l 632 274 q 597 124 632 189 q 500 22 563 58 q 357 -14 438 -14 m 174 753 l 129 797 l 319 1011 l 397 1011 l 588 797 l 543 753 l 326 942 l 392 940 l 174 753 z "},"ü":{"ha":715,"x_min":82,"x_max":632,"o":"m 357 -14 q 215 23 278 -14 q 117 124 153 60 q 82 274 82 188 l 82 653 l 181 653 l 181 278 q 202 174 181 218 q 264 104 224 129 q 357 79 304 79 q 487 133 439 79 q 535 278 535 188 l 535 653 l 632 653 l 632 274 q 597 124 632 189 q 500 22 563 58 q 357 -14 438 -14 m 225 767 q 178 787 197 767 q 158 835 158 807 q 178 883 158 864 q 225 903 197 903 q 274 883 256 903 q 293 835 293 864 q 274 787 293 807 q 225 767 256 767 m 489 767 q 442 787 461 767 q 422 835 422 807 q 442 883 422 864 q 489 903 461 903 q 538 883 519 903 q 557 835 557 864 q 538 787 557 807 q 489 767 519 767 z "},"ù":{"ha":715,"x_min":82,"x_max":632,"o":"m 357 -14 q 215 23 278 -14 q 117 124 153 60 q 82 274 82 188 l 82 653 l 181 653 l 181 278 q 202 174 181 218 q 264 104 224 129 q 357 79 304 79 q 487 133 439 79 q 535 278 535 188 l 535 653 l 632 653 l 632 274 q 597 124 632 189 q 500 22 563 58 q 357 -14 438 -14 m 413 747 l 194 933 l 272 1011 l 457 792 l 413 747 z "},"ű":{"ha":715,"x_min":82,"x_max":632,"o":"m 357 -14 q 215 23 278 -14 q 117 124 153 60 q 82 274 82 189 l 82 653 l 181 653 l 181 278 q 202 174 181 218 q 264 104 224 129 q 357 79 304 79 q 487 133 439 79 q 535 278 535 188 l 535 653 l 632 653 l 632 274 q 597 124 632 189 q 501 22 563 58 q 357 -14 439 -14 m 221 744 l 163 765 l 236 1043 l 340 1006 l 221 744 m 433 744 l 375 765 l 449 1043 l 551 1006 l 433 744 z "},"ū":{"ha":715,"x_min":82,"x_max":632,"o":"m 357 -14 q 215 23 278 -14 q 117 124 153 60 q 82 274 82 188 l 82 653 l 181 653 l 181 278 q 202 174 181 218 q 264 104 224 129 q 357 79 304 79 q 487 133 439 79 q 535 278 535 188 l 535 653 l 632 653 l 632 274 q 597 124 632 189 q 500 22 563 58 q 357 -14 438 -14 m 119 875 l 596 875 l 596 793 l 119 793 l 119 875 z "},"ų":{"ha":715,"x_min":82,"x_max":632,"o":"m 357 -14 q 215 23 278 -14 q 117 124 153 60 q 82 274 82 188 l 82 653 l 181 653 l 181 278 q 202 174 181 218 q 264 104 224 129 q 357 79 304 79 q 487 133 439 79 q 535 278 535 188 l 535 653 l 632 653 l 632 274 q 597 124 632 189 q 500 22 563 58 q 357 -14 438 -14 m 433 -275 q 339 -246 379 -275 q 299 -154 299 -217 q 333 -51 299 -103 q 428 39 368 0 l 483 14 q 406 -61 435 -24 q 376 -143 376 -99 q 394 -193 376 -176 q 444 -210 411 -210 q 480 -203 464 -210 q 510 -189 496 -197 l 538 -243 q 493 -265 518 -256 q 433 -275 468 -275 z "},"ů":{"ha":715,"x_min":82,"x_max":632,"o":"m 357 -14 q 215 23 278 -14 q 117 124 153 60 q 82 274 82 188 l 82 653 l 181 653 l 181 278 q 202 174 181 218 q 264 104 224 129 q 357 79 304 79 q 487 133 439 79 q 535 278 535 188 l 535 653 l 632 653 l 632 274 q 597 124 632 189 q 500 22 563 58 q 357 -14 438 -14 m 360 732 q 278 753 314 732 q 221 809 242 774 q 200 889 200 844 q 221 969 200 933 q 278 1025 242 1004 q 360 1046 314 1046 q 440 1025 404 1046 q 495 969 475 1004 q 515 889 515 933 q 495 809 515 844 q 440 753 475 774 q 360 732 406 732 m 361 806 q 417 829 393 806 q 440 889 440 853 q 417 949 440 925 q 361 974 393 974 q 299 949 322 974 q 276 889 276 925 q 299 830 276 854 q 361 806 322 806 z "},"v":{"ha":711,"x_min":25,"x_max":688,"o":"m 326 0 l 25 653 l 133 653 l 388 82 l 326 82 l 582 653 l 688 653 l 383 0 l 326 0 z "},"w":{"ha":1036,"x_min":29,"x_max":1008,"o":"m 281 0 l 29 653 l 131 653 l 329 111 l 293 110 l 490 653 l 547 653 l 744 110 l 708 111 l 906 653 l 1008 653 l 756 0 l 699 0 l 497 535 l 539 535 l 339 0 l 281 0 z "},"ẃ":{"ha":1036,"x_min":29,"x_max":1008,"o":"m 281 0 l 29 653 l 131 653 l 329 111 l 293 110 l 490 653 l 547 653 l 744 110 l 708 111 l 906 653 l 1008 653 l 756 0 l 699 0 l 497 535 l 539 535 l 339 0 l 281 0 m 432 754 l 388 799 l 572 1018 l 650 940 l 432 754 z "},"ŵ":{"ha":1036,"x_min":29,"x_max":1008,"o":"m 281 0 l 29 653 l 131 653 l 329 111 l 293 110 l 490 653 l 547 653 l 744 110 l 708 111 l 906 653 l 1008 653 l 756 0 l 699 0 l 497 535 l 539 535 l 339 0 l 281 0 m 333 753 l 289 797 l 479 1011 l 557 1011 l 747 797 l 703 753 l 486 942 l 551 940 l 333 753 z "},"ẅ":{"ha":1036,"x_min":29,"x_max":1008,"o":"m 281 0 l 29 653 l 131 653 l 329 111 l 293 110 l 490 653 l 547 653 l 744 110 l 708 111 l 906 653 l 1008 653 l 756 0 l 699 0 l 497 535 l 539 535 l 339 0 l 281 0 m 386 767 q 339 787 358 767 q 319 835 319 807 q 339 883 319 864 q 386 903 358 903 q 435 883 417 903 q 454 835 454 864 q 435 787 454 807 q 386 767 417 767 m 650 767 q 603 787 622 767 q 583 835 583 807 q 603 883 583 864 q 650 903 622 903 q 699 883 681 903 q 718 835 718 864 q 699 787 718 807 q 650 767 681 767 z "},"ẁ":{"ha":1036,"x_min":29,"x_max":1008,"o":"m 281 0 l 29 653 l 131 653 l 329 111 l 293 110 l 490 653 l 547 653 l 744 110 l 708 111 l 906 653 l 1008 653 l 756 0 l 699 0 l 497 535 l 539 535 l 339 0 l 281 0 m 574 747 l 356 933 l 433 1011 l 618 792 l 574 747 z "},"x":{"ha":693,"x_min":31,"x_max":663,"o":"m 543 0 l 325 297 l 304 314 l 42 653 l 163 653 l 365 386 l 385 369 l 663 0 l 543 0 m 31 0 l 306 358 l 360 286 l 146 0 l 31 0 m 392 315 l 336 386 l 536 653 l 651 653 l 392 315 z "},"y":{"ha":708,"x_min":31,"x_max":679,"o":"m 317 -3 l 31 653 l 138 653 l 368 106 l 328 106 l 571 653 l 679 653 l 372 -3 l 317 -3 m 139 -275 l 318 96 l 372 -3 l 246 -275 l 139 -275 z "},"ý":{"ha":708,"x_min":31,"x_max":679,"o":"m 317 -3 l 31 653 l 138 653 l 368 106 l 328 106 l 571 653 l 679 653 l 372 -3 l 317 -3 m 139 -275 l 318 96 l 372 -3 l 246 -275 l 139 -275 m 268 754 l 224 799 l 408 1018 l 486 940 l 268 754 z "},"ŷ":{"ha":708,"x_min":31,"x_max":679,"o":"m 317 -3 l 31 653 l 138 653 l 368 106 l 328 106 l 571 653 l 679 653 l 372 -3 l 317 -3 m 139 -275 l 318 96 l 372 -3 l 246 -275 l 139 -275 m 169 753 l 125 797 l 315 1011 l 393 1011 l 583 797 l 539 753 l 322 942 l 388 940 l 169 753 z "},"ÿ":{"ha":708,"x_min":31,"x_max":679,"o":"m 317 -3 l 31 653 l 138 653 l 368 106 l 328 106 l 571 653 l 679 653 l 372 -3 l 317 -3 m 139 -275 l 318 96 l 372 -3 l 246 -275 l 139 -275 m 222 767 q 175 787 194 767 q 156 835 156 807 q 175 883 156 864 q 222 903 194 903 q 272 883 253 903 q 290 835 290 864 q 272 787 290 807 q 222 767 253 767 m 486 767 q 439 787 458 767 q 419 835 419 807 q 439 883 419 864 q 486 903 458 903 q 535 883 517 903 q 554 835 554 864 q 535 787 554 807 q 486 767 517 767 z "},"ỳ":{"ha":708,"x_min":31,"x_max":679,"o":"m 317 -3 l 31 653 l 138 653 l 368 106 l 328 106 l 571 653 l 679 653 l 372 -3 l 317 -3 m 139 -275 l 318 96 l 372 -3 l 246 -275 l 139 -275 m 410 747 l 192 933 l 269 1011 l 454 792 l 410 747 z "},"z":{"ha":614,"x_min":42,"x_max":569,"o":"m 42 54 l 454 600 l 569 600 l 157 54 l 42 54 m 42 0 l 42 54 l 126 89 l 561 89 l 561 0 l 42 0 m 65 565 l 65 653 l 569 653 l 569 600 l 478 565 l 65 565 z "},"ź":{"ha":614,"x_min":42,"x_max":569,"o":"m 42 54 l 454 600 l 569 600 l 157 54 l 42 54 m 42 0 l 42 54 l 126 89 l 561 89 l 561 0 l 42 0 m 65 565 l 65 653 l 569 653 l 569 600 l 478 565 l 65 565 m 240 754 l 196 799 l 381 1018 l 458 940 l 240 754 z "},"ž":{"ha":614,"x_min":42,"x_max":569,"o":"m 42 54 l 454 600 l 569 600 l 157 54 l 42 54 m 42 0 l 42 54 l 126 89 l 561 89 l 561 0 l 42 0 m 65 565 l 65 653 l 569 653 l 569 600 l 478 565 l 65 565 m 513 1011 l 556 968 l 367 753 l 288 753 l 99 968 l 142 1011 l 360 824 l 294 824 l 513 1011 z "},"ż":{"ha":614,"x_min":42,"x_max":569,"o":"m 42 54 l 454 600 l 569 600 l 157 54 l 42 54 m 42 0 l 42 54 l 126 89 l 561 89 l 561 0 l 42 0 m 65 565 l 65 653 l 569 653 l 569 600 l 478 565 l 65 565 m 326 767 q 279 787 299 767 q 260 835 260 807 q 279 883 260 864 q 326 903 299 903 q 376 883 357 903 q 394 835 394 864 q 376 787 394 807 q 326 767 357 767 z "},"ﬁ":{"ha":775,"x_min":31,"x_max":694,"o":"m 194 0 l 194 778 q 222 891 194 842 q 299 969 250 940 q 414 997 349 997 q 501 981 463 997 q 571 933 539 964 l 506 868 q 463 897 486 888 q 413 906 440 906 q 324 870 356 906 q 293 775 293 835 l 293 0 l 194 0 m 31 565 l 31 653 l 632 653 l 632 565 l 31 565 m 578 0 l 578 653 l 676 653 l 676 0 l 578 0 m 626 733 q 578 753 597 733 q 560 801 560 774 q 578 850 560 831 q 626 869 597 869 q 675 850 656 869 q 694 801 694 831 q 675 753 694 774 q 626 733 656 733 z "},"ﬂ":{"ha":774,"x_min":31,"x_max":676,"o":"m 194 0 l 194 757 q 225 878 194 824 q 310 965 256 932 q 439 997 365 997 l 438 906 q 331 863 368 906 q 293 754 293 821 l 293 0 l 194 0 m 31 565 l 31 653 l 618 653 l 618 565 l 31 565 m 578 0 l 578 993 l 676 993 l 676 0 l 578 0 z "},"ª":{"ha":492,"x_min":31,"x_max":436,"o":"m 226 553 q 126 580 171 553 q 56 653 82 607 q 31 757 31 699 q 56 863 31 817 q 125 937 81 910 q 225 964 169 964 q 333 927 289 964 q 386 832 378 890 l 386 685 q 335 590 378 628 q 226 553 292 553 m 240 625 q 328 662 294 625 q 363 758 363 699 q 328 855 363 818 q 239 892 294 892 q 147 854 183 892 q 111 758 111 817 q 147 663 111 700 q 240 625 183 625 m 358 561 l 358 667 l 372 764 l 358 858 l 358 956 l 436 956 l 436 561 l 358 561 z "},"º":{"ha":478,"x_min":29,"x_max":449,"o":"m 239 551 q 133 578 181 551 q 57 653 85 606 q 29 758 29 700 q 57 863 29 817 q 133 937 85 910 q 239 964 181 964 q 345 937 299 964 q 420 863 392 910 q 449 758 449 817 q 421 653 449 700 q 346 578 393 606 q 239 551 299 551 m 239 625 q 332 663 296 625 q 368 760 368 701 q 331 853 368 817 q 239 890 294 890 q 147 853 183 890 q 110 758 110 815 q 147 663 110 700 q 239 625 183 625 z "},"⁄":{"ha":885,"x_min":58,"x_max":818,"o":"m 376 417 l 419 378 l 144 -18 l 58 63 l 376 417 m 500 543 l 457 581 l 732 976 l 818 897 l 500 543 z "},"½":{"ha":911,"x_min":58,"x_max":833,"o":"m 376 417 l 419 378 l 144 -18 l 58 63 l 376 417 m 500 543 l 457 581 l 732 976 l 818 897 l 500 543 m 201 472 l 201 956 l 288 956 l 288 472 l 201 472 m 103 882 l 103 956 l 281 956 l 281 882 l 103 882 m 490 35 l 676 225 q 723 283 711 261 q 735 328 735 304 q 713 381 735 361 q 656 401 692 401 q 598 385 624 401 q 549 333 572 368 l 490 386 q 564 455 521 432 q 661 478 607 478 q 778 438 735 478 q 822 329 822 399 q 804 253 822 288 q 739 172 786 219 l 599 33 l 490 35 m 490 -14 l 490 35 l 563 60 l 833 60 l 833 -14 l 490 -14 z "},"¼":{"ha":921,"x_min":58,"x_max":856,"o":"m 376 417 l 419 378 l 144 -18 l 58 63 l 376 417 m 500 543 l 457 581 l 732 976 l 818 897 l 500 543 m 201 472 l 201 956 l 288 956 l 288 472 l 201 472 m 103 882 l 103 956 l 281 956 l 281 882 l 103 882 m 474 144 l 639 469 l 733 469 l 565 144 l 474 144 m 474 96 l 474 144 l 500 169 l 856 169 l 856 96 l 474 96 m 713 -14 l 713 290 l 799 290 l 799 -14 l 713 -14 z "},"¾":{"ha":911,"x_min":75,"x_max":850,"o":"m 388 419 l 431 385 l 169 -18 l 83 63 l 388 419 m 546 539 l 503 574 l 764 976 l 850 897 l 546 539 m 235 464 q 144 483 185 464 q 75 533 103 501 l 131 589 q 174 553 146 567 q 233 539 203 539 q 303 563 276 539 q 331 626 331 586 q 303 690 331 667 q 228 713 275 713 q 203 711 217 713 q 178 707 189 710 l 214 754 q 252 765 238 763 q 279 768 267 768 q 377 728 338 768 q 417 624 417 689 q 367 508 417 553 q 235 464 317 464 m 178 707 l 178 756 l 313 908 l 408 907 l 269 753 l 178 707 m 103 882 l 103 956 l 408 956 l 408 907 l 340 882 l 103 882 m 446 144 l 610 469 l 706 469 l 538 144 l 446 144 m 446 96 l 446 144 l 472 169 l 828 169 l 828 96 l 446 96 m 685 -14 l 685 290 l 771 290 l 771 -14 l 685 -14 z "},"¹":{"ha":353,"x_min":50,"x_max":235,"o":"m 147 472 l 147 956 l 235 956 l 235 472 l 147 472 m 50 882 l 50 956 l 228 956 l 228 882 l 50 882 z "},"²":{"ha":463,"x_min":56,"x_max":399,"o":"m 56 521 l 242 711 q 290 769 278 747 q 301 814 301 790 q 280 867 301 847 q 221 888 258 888 q 164 871 189 888 q 115 819 139 854 l 57 872 q 130 941 86 918 q 228 964 174 964 q 344 924 301 964 q 388 815 388 885 q 369 740 388 774 q 304 658 351 706 l 164 519 l 56 521 m 56 472 l 56 521 l 128 546 l 399 546 l 399 472 l 56 472 z "},"³":{"ha":461,"x_min":50,"x_max":392,"o":"m 210 464 q 119 483 160 464 q 50 533 78 501 l 106 589 q 149 553 121 567 q 208 539 178 539 q 278 563 251 539 q 306 626 306 586 q 278 690 306 667 q 203 713 250 713 q 178 711 192 713 q 153 707 164 710 l 189 754 q 227 765 213 763 q 254 768 242 768 q 352 728 313 768 q 392 624 392 689 q 342 508 392 553 q 210 464 292 464 m 153 707 l 153 756 l 288 908 l 383 907 l 244 753 l 153 707 m 78 882 l 78 956 l 383 956 l 383 907 l 315 882 l 78 882 z "},"⁴":{"ha":488,"x_min":53,"x_max":435,"o":"m 53 631 l 218 956 l 313 956 l 144 631 l 53 631 m 53 582 l 53 631 l 79 656 l 435 656 l 435 582 l 53 582 m 292 472 l 292 776 l 378 776 l 378 472 l 292 472 z "},"\r":{"ha":833,"x_min":0,"x_max":0,"o":""}," ":{"ha":299,"x_min":0,"x_max":0,"o":""}," ":{"ha":299,"x_min":0,"x_max":0,"o":""},".":{"ha":401,"x_min":122,"x_max":279,"o":"m 201 -14 q 144 10 167 -14 q 122 67 122 33 q 144 123 122 100 q 201 146 167 146 q 257 123 235 146 q 279 67 279 100 q 257 10 279 33 q 201 -14 235 -14 z "},",":{"ha":381,"x_min":113,"x_max":279,"o":"m 113 -143 l 192 11 l 226 19 q 211 -2 221 7 q 188 -11 201 -11 q 140 10 161 -11 q 118 64 118 32 q 142 122 118 97 q 199 146 165 146 q 255 122 231 146 q 279 64 279 97 q 274 31 279 50 q 254 -18 269 13 l 171 -175 l 113 -143 z "},":":{"ha":375,"x_min":110,"x_max":267,"o":"m 188 -14 q 131 10 153 -14 q 110 65 110 33 q 131 123 110 100 q 188 146 153 146 q 244 123 221 146 q 267 65 267 100 q 244 10 267 33 q 188 -14 221 -14 m 188 424 q 131 447 153 424 q 110 503 110 471 q 131 560 110 538 q 188 582 153 582 q 244 560 221 582 q 267 503 267 538 q 244 447 267 471 q 188 424 221 424 z "},";":{"ha":374,"x_min":106,"x_max":272,"o":"m 106 -143 l 185 11 l 221 19 q 206 -2 215 7 q 181 -11 196 -11 q 133 10 154 -11 q 111 64 111 32 q 135 122 111 97 q 193 146 160 146 q 249 122 225 146 q 272 64 272 97 q 267 31 272 50 q 247 -18 263 13 l 165 -175 l 106 -143 m 188 424 q 132 447 154 424 q 110 503 110 471 q 132 560 110 538 q 188 582 154 582 q 244 560 222 582 q 267 503 267 538 q 244 447 267 471 q 188 424 222 424 z "},"…":{"ha":1013,"x_min":122,"x_max":890,"o":"m 507 -14 q 450 10 472 -14 q 428 67 428 33 q 450 123 428 100 q 507 146 472 146 q 563 123 540 146 q 585 67 585 100 q 563 10 585 33 q 507 -14 540 -14 m 813 -14 q 756 10 778 -14 q 733 67 733 33 q 756 123 733 100 q 813 146 778 146 q 868 123 846 146 q 890 67 890 100 q 868 10 890 33 q 813 -14 846 -14 m 201 -14 q 144 10 167 -14 q 122 67 122 33 q 144 123 122 100 q 201 146 167 146 q 257 123 235 146 q 279 67 279 100 q 257 10 279 33 q 201 -14 235 -14 z "},"!":{"ha":363,"x_min":99,"x_max":256,"o":"m 140 290 l 125 983 l 232 983 l 217 290 l 140 290 m 178 -14 q 121 10 143 -14 q 99 65 99 33 q 121 123 99 100 q 178 146 143 146 q 233 123 211 146 q 256 65 256 100 q 233 10 256 33 q 178 -14 211 -14 z "},"¡":{"ha":367,"x_min":104,"x_max":261,"o":"m 131 -275 l 146 364 l 222 364 l 238 -275 l 131 -275 m 182 508 q 126 531 149 508 q 104 588 104 554 q 126 644 104 621 q 182 667 149 667 q 239 644 217 667 q 261 588 261 621 q 239 531 261 554 q 182 508 217 508 z "},"?":{"ha":701,"x_min":65,"x_max":622,"o":"m 311 290 l 310 550 l 344 550 q 437 576 397 551 q 499 640 476 600 q 521 731 521 681 q 499 818 521 779 q 438 879 478 857 q 342 901 397 901 q 219 867 269 901 q 138 775 168 832 l 65 836 q 177 953 104 910 q 346 997 250 997 q 491 964 429 997 q 588 872 553 931 q 622 736 622 813 q 590 606 622 664 q 500 510 558 547 q 364 463 442 472 l 404 507 l 394 290 l 311 290 m 351 -14 q 296 10 318 -14 q 274 65 274 33 q 296 123 274 100 q 351 146 318 146 q 408 123 386 146 q 431 65 431 100 q 408 10 431 33 q 351 -14 386 -14 z "},"¿":{"ha":686,"x_min":81,"x_max":635,"o":"m 354 -289 q 212 -254 274 -289 q 115 -160 150 -219 q 81 -25 81 -100 q 113 108 81 51 q 204 201 146 165 q 340 246 263 238 l 300 201 l 308 364 l 392 364 l 394 160 l 358 158 q 231 109 281 157 q 182 -19 182 61 q 204 -108 182 -68 q 266 -170 226 -147 q 358 -193 306 -193 q 482 -158 432 -193 q 563 -65 532 -124 l 635 -128 q 524 -244 596 -200 q 354 -289 451 -289 m 351 508 q 296 531 318 508 q 274 588 274 554 q 296 644 274 622 q 351 667 318 667 q 408 644 386 667 q 431 588 431 622 q 408 531 431 554 q 351 508 386 508 z "},"·":{"ha":157,"x_min":0,"x_max":157,"o":"m 79 422 q 22 446 44 422 q 0 503 0 469 q 22 559 0 536 q 79 582 44 582 q 135 559 113 582 q 157 503 157 536 q 135 446 157 469 q 79 422 113 422 z "},"•":{"ha":442,"x_min":97,"x_max":344,"o":"m 221 378 q 157 394 185 378 q 113 440 129 411 q 97 503 97 468 q 113 565 97 536 q 157 610 129 593 q 221 626 185 626 q 285 610 257 626 q 328 565 313 593 q 344 503 344 536 q 328 440 344 468 q 285 394 313 411 q 221 378 257 378 z "},"*":{"ha":678,"x_min":78,"x_max":597,"o":"m 325 497 l 310 718 l 121 601 l 78 683 l 286 765 l 115 907 l 181 972 l 325 804 l 408 1008 l 492 967 l 372 779 l 597 765 l 583 674 l 364 726 l 418 511 l 325 497 z "},"#":{"ha":886,"x_min":75,"x_max":811,"o":"m 472 0 l 614 956 l 699 956 l 557 0 l 472 0 m 75 304 l 75 383 l 769 383 l 769 304 l 75 304 m 178 0 l 319 956 l 404 956 l 263 0 l 178 0 m 115 592 l 115 671 l 811 671 l 811 592 l 115 592 z "},"/":{"ha":528,"x_min":28,"x_max":500,"o":"m 28 -56 l 408 1007 l 500 1007 l 119 -56 l 28 -56 z "},"\\":{"ha":528,"x_min":28,"x_max":500,"o":"m 408 -56 l 28 1007 l 119 1007 l 500 -56 l 408 -56 z "},"-":{"ha":639,"x_min":99,"x_max":542,"o":"m 99 306 l 99 399 l 542 399 l 542 306 l 99 306 z "},"–":{"ha":757,"x_min":99,"x_max":658,"o":"m 99 311 l 99 394 l 658 394 l 658 311 l 99 311 z "},"—":{"ha":1171,"x_min":99,"x_max":1068,"o":"m 99 313 l 99 393 l 1068 393 l 1068 313 l 99 313 z "},"_":{"ha":735,"x_min":56,"x_max":679,"o":"m 56 -157 l 56 -74 l 679 -74 l 679 -157 l 56 -157 z "},"(":{"ha":425,"x_min":72,"x_max":376,"o":"m 319 -157 q 185 -1 240 -93 q 101 202 131 92 q 72 429 72 313 q 101 657 72 547 q 185 860 131 767 q 319 1017 240 953 l 376 964 q 215 736 271 875 q 160 429 160 597 q 215 124 160 263 q 376 -104 271 -15 l 319 -157 z "},")":{"ha":425,"x_min":49,"x_max":353,"o":"m 107 -157 l 49 -104 q 211 124 156 -15 q 267 429 267 263 q 211 736 267 597 q 49 964 156 875 l 107 1017 q 241 860 186 953 q 324 657 296 767 q 353 429 353 547 q 324 202 353 313 q 241 -1 296 92 q 107 -157 186 -93 z "},"{":{"ha":444,"x_min":49,"x_max":389,"o":"m 326 -133 q 174 -72 226 -133 q 135 114 121 -11 l 153 278 q 142 363 160 336 q 88 390 125 390 l 49 390 l 49 465 l 88 465 q 142 492 125 465 q 153 578 160 519 l 135 738 q 174 922 121 861 q 326 983 226 983 l 389 983 l 389 906 l 338 906 q 240 869 271 906 q 219 743 210 832 l 235 590 q 231 503 240 540 q 195 443 222 467 q 118 407 168 419 l 118 444 q 195 411 168 435 q 231 351 222 388 q 235 264 240 314 l 219 108 q 240 -18 210 19 q 338 -56 271 -56 l 389 -56 l 389 -133 l 326 -133 z "},"}":{"ha":444,"x_min":56,"x_max":396,"o":"m 118 -133 l 56 -133 l 56 -56 l 107 -56 q 204 -18 174 -56 q 225 108 235 19 l 210 264 q 214 351 206 314 q 249 411 222 388 q 326 444 276 435 l 326 407 q 249 443 276 419 q 214 503 222 467 q 210 590 206 540 l 225 743 q 205 869 236 832 q 107 906 174 906 l 56 906 l 56 983 l 118 983 q 271 922 218 983 q 310 738 324 861 l 292 578 q 302 492 285 519 q 357 465 319 465 l 396 465 l 396 390 l 357 390 q 302 363 319 390 q 292 278 285 336 l 310 114 q 271 -72 324 -11 q 118 -133 218 -133 z "},"[":{"ha":465,"x_min":117,"x_max":410,"o":"m 117 -133 l 117 983 l 201 983 l 201 -133 l 117 -133 m 158 -133 l 158 -56 l 410 -56 l 410 -133 l 158 -133 m 158 906 l 158 983 l 410 983 l 410 906 l 158 906 z "},"]":{"ha":465,"x_min":56,"x_max":349,"o":"m 264 -133 l 264 983 l 349 983 l 349 -133 l 264 -133 m 56 -133 l 56 -56 l 307 -56 l 307 -133 l 56 -133 m 56 906 l 56 983 l 307 983 l 307 906 l 56 906 z "},"‚":{"ha":381,"x_min":113,"x_max":279,"o":"m 113 -143 l 192 11 l 226 19 q 211 -2 221 7 q 188 -11 201 -11 q 140 10 161 -11 q 118 64 118 32 q 142 122 118 97 q 199 146 165 146 q 255 122 231 146 q 279 64 279 97 q 274 31 279 50 q 254 -18 269 13 l 171 -175 l 113 -143 z "},"„":{"ha":608,"x_min":113,"x_max":507,"o":"m 340 -142 l 419 13 l 454 21 q 439 -1 449 7 q 415 -10 429 -10 q 367 11 389 -10 q 346 64 346 32 q 369 122 346 99 q 426 146 393 146 q 483 122 458 146 q 507 64 507 99 q 502 31 507 50 q 482 -17 497 13 l 399 -174 l 340 -142 m 113 -142 l 192 13 l 226 21 q 211 -1 221 7 q 188 -10 201 -10 q 140 11 161 -10 q 118 64 118 32 q 142 122 118 99 q 199 146 165 146 q 255 122 231 146 q 279 64 279 99 q 274 31 279 50 q 254 -17 269 13 l 171 -174 l 113 -142 z "},"“":{"ha":569,"x_min":83,"x_max":478,"o":"m 250 965 l 171 811 l 135 803 q 151 824 140 815 q 175 833 161 833 q 223 813 201 833 q 244 758 244 792 q 220 701 244 725 q 163 676 196 676 q 107 701 131 676 q 83 758 83 725 q 88 791 83 772 q 108 840 93 810 l 190 997 l 250 965 m 478 965 l 399 811 l 363 803 q 378 824 368 815 q 403 833 389 833 q 451 813 429 833 q 472 758 472 792 q 448 701 472 725 q 390 676 424 676 q 335 701 358 676 q 311 758 311 725 q 316 791 311 772 q 336 840 321 810 l 418 997 l 478 965 z "},"”":{"ha":569,"x_min":93,"x_max":488,"o":"m 321 682 l 400 836 l 435 844 q 419 822 429 831 q 396 814 410 814 q 348 835 369 814 q 326 888 326 856 q 350 946 326 922 q 407 969 374 969 q 463 946 439 969 q 488 888 488 922 q 483 855 488 874 q 463 807 478 836 l 379 650 l 321 682 m 93 682 l 172 836 l 207 844 q 192 822 201 831 q 168 814 182 814 q 120 835 142 814 q 99 888 99 856 q 122 946 99 922 q 179 969 146 969 q 235 946 211 969 q 260 888 260 922 q 255 855 260 874 q 235 807 250 836 l 151 650 l 93 682 z "},"‘":{"ha":342,"x_min":83,"x_max":250,"o":"m 250 965 l 171 811 l 135 803 q 151 824 140 815 q 175 833 161 833 q 223 813 201 833 q 244 758 244 792 q 220 701 244 725 q 163 676 196 676 q 107 701 131 676 q 83 758 83 725 q 88 791 83 772 q 108 840 93 810 l 190 997 l 250 965 z "},"’":{"ha":342,"x_min":93,"x_max":260,"o":"m 93 682 l 172 836 l 207 844 q 192 822 201 831 q 168 814 182 814 q 120 835 142 814 q 99 888 99 856 q 122 946 99 922 q 179 969 146 969 q 235 946 211 969 q 260 888 260 922 q 255 855 260 874 q 235 807 250 836 l 151 650 l 93 682 z "},"«":{"ha":613,"x_min":60,"x_max":554,"o":"m 218 114 l 60 331 l 218 547 l 319 547 l 156 331 l 319 114 l 218 114 m 453 114 l 294 331 l 453 547 l 554 547 l 392 331 l 554 114 l 453 114 z "},"»":{"ha":613,"x_min":58,"x_max":553,"o":"m 293 114 l 457 331 l 293 547 l 394 547 l 553 331 l 394 114 l 293 114 m 58 114 l 221 331 l 58 547 l 160 547 l 318 331 l 160 114 l 58 114 z "},"‹":{"ha":376,"x_min":60,"x_max":319,"o":"m 218 114 l 60 331 l 218 547 l 319 547 l 156 331 l 319 114 l 218 114 z "},"›":{"ha":376,"x_min":58,"x_max":318,"o":"m 58 114 l 221 331 l 58 547 l 160 547 l 318 331 l 160 114 l 58 114 z "},"\"":{"ha":519,"x_min":106,"x_max":414,"o":"m 328 675 l 304 983 l 414 983 l 390 675 l 328 675 m 131 675 l 106 983 l 217 983 l 192 675 l 131 675 z "},"'":{"ha":322,"x_min":106,"x_max":217,"o":"m 131 675 l 106 983 l 217 983 l 192 675 l 131 675 z "},"✓":{"ha":1051,"x_min":36,"x_max":1017,"o":"m 358 118 l 36 436 l 97 499 l 411 188 l 360 186 l 953 826 l 1017 764 l 411 118 l 358 118 z "},"@":{"ha":1061,"x_min":89,"x_max":972,"o":"m 535 -121 q 360 -87 442 -121 q 218 8 279 -53 q 123 151 157 69 q 89 328 89 233 q 124 507 89 425 q 221 650 158 589 q 366 745 283 711 q 543 779 449 779 q 766 722 669 779 q 917 565 863 665 q 972 332 972 464 q 960 227 972 274 q 924 139 949 181 l 839 147 q 869 200 858 174 q 885 260 881 226 q 890 339 890 293 q 848 533 890 451 q 727 658 806 614 q 544 701 649 701 q 354 655 438 701 q 223 524 271 608 q 175 326 175 440 q 222 133 175 217 q 349 4 268 50 q 532 -42 429 -42 q 670 -21 610 -42 q 776 42 731 0 l 833 -14 q 697 -94 772 -67 q 535 -121 622 -121 m 510 128 q 413 154 457 128 q 342 226 368 181 q 317 328 317 272 q 342 432 317 386 q 413 505 368 478 q 510 532 457 532 q 623 497 579 532 q 667 403 667 461 l 667 256 q 624 163 667 199 q 510 128 581 128 m 514 197 q 604 234 571 197 q 638 329 638 271 q 604 426 638 390 q 515 461 571 461 q 427 425 463 461 q 392 329 392 389 q 427 234 392 271 q 514 197 463 197 m 669 139 l 669 207 l 924 207 l 924 139 l 669 139 m 640 139 l 640 239 l 654 335 l 640 428 l 640 524 l 715 524 l 715 139 l 640 139 z "},"&":{"ha":900,"x_min":90,"x_max":882,"o":"m 758 0 l 297 485 q 215 599 242 544 q 188 717 188 654 q 221 847 188 790 q 314 938 254 904 q 451 971 374 971 q 551 953 506 971 q 633 907 597 936 q 694 839 669 878 l 624 775 q 549 849 590 822 q 451 875 507 875 q 333 831 379 875 q 286 717 286 788 q 308 626 286 665 q 379 535 331 586 l 882 0 l 758 0 m 400 -14 q 239 23 308 -14 q 130 124 169 60 q 90 271 90 189 q 138 432 90 360 q 271 544 186 504 l 319 483 q 224 399 260 454 q 189 274 189 344 q 217 172 189 215 q 293 103 244 128 q 404 79 342 79 q 535 113 478 79 q 621 197 592 146 l 685 125 q 613 52 657 83 q 515 3 569 21 q 400 -14 461 -14 z "},"¶":{"ha":964,"x_min":89,"x_max":886,"o":"m 519 383 l 389 383 q 236 419 304 383 q 128 518 168 454 q 89 669 89 582 q 128 821 89 757 q 236 920 168 885 q 389 956 304 956 l 886 956 l 886 867 l 397 867 q 291 842 338 867 q 218 774 244 818 q 192 669 192 731 q 218 565 192 608 q 291 497 244 521 q 397 474 338 474 l 519 474 l 519 383 m 557 -139 l 468 -139 l 468 956 l 557 956 l 557 -139 m 763 -139 l 674 -139 l 674 956 l 763 956 l 763 -139 z "},"§":{"ha":722,"x_min":96,"x_max":626,"o":"m 371 194 l 372 268 q 488 299 446 268 q 531 383 531 331 q 502 463 531 435 q 428 508 474 492 q 331 540 382 525 q 234 579 279 556 q 160 644 189 603 q 131 757 131 686 q 160 869 131 821 q 245 943 190 917 q 375 969 300 969 q 522 938 457 969 q 625 847 588 906 l 561 782 q 479 853 529 829 q 371 878 429 878 q 263 845 300 878 q 226 764 226 813 q 255 688 226 715 q 329 642 283 660 q 426 610 375 625 q 523 570 478 594 q 597 504 568 546 q 626 392 626 463 q 593 288 626 332 q 503 219 560 243 q 371 194 446 194 m 347 -168 q 200 -135 265 -168 q 97 -46 135 -103 l 161 19 q 243 -51 193 -26 q 351 -75 293 -75 q 459 -42 422 -75 q 496 39 496 -10 q 467 115 496 88 q 393 159 439 142 q 296 192 347 176 q 199 233 244 208 q 125 299 154 257 q 96 410 96 340 q 129 516 96 472 q 220 584 163 560 q 351 608 278 608 l 350 535 q 234 503 276 535 q 192 419 192 471 q 220 340 192 368 q 294 294 249 311 q 392 262 340 278 q 488 222 443 246 q 563 157 533 199 q 592 44 592 115 q 562 -66 592 -18 q 478 -141 532 -114 q 347 -168 424 -168 z "},"©":{"ha":1169,"x_min":99,"x_max":1071,"o":"m 586 -14 q 390 24 479 -14 q 235 129 300 61 q 134 287 169 197 q 99 479 99 376 q 134 672 99 583 q 234 828 169 761 q 388 932 299 894 q 583 969 476 969 q 781 932 690 969 q 935 828 871 894 q 1035 672 1000 761 q 1071 478 1071 582 q 1035 285 1071 375 q 935 128 1000 196 q 781 24 869 61 q 586 -14 693 -14 m 593 206 q 454 242 517 206 q 356 340 392 278 q 319 479 319 403 q 356 618 319 557 q 455 715 392 679 q 594 751 518 751 q 704 730 653 751 q 793 667 756 708 l 735 606 q 674 650 710 635 q 594 665 638 665 q 503 642 544 665 q 438 576 461 618 q 414 479 414 535 q 438 381 414 424 q 503 315 461 339 q 594 290 544 290 q 675 306 639 290 q 738 351 711 322 l 794 290 q 706 228 758 250 q 593 206 653 206 m 583 39 q 808 97 711 39 q 960 256 906 156 q 1015 479 1015 356 q 960 701 1015 603 q 808 858 906 800 q 583 917 711 917 q 358 859 456 917 q 208 703 261 801 q 154 479 154 604 q 208 256 154 356 q 360 97 263 156 q 583 39 457 39 z "},"®":{"ha":803,"x_min":106,"x_max":697,"o":"m 403 372 q 249 413 315 372 q 144 521 182 453 q 106 672 106 589 q 143 824 106 757 q 247 930 181 890 q 400 969 313 969 q 555 930 488 969 q 660 823 622 890 q 697 672 697 756 q 660 519 697 588 q 556 412 622 451 q 403 372 489 372 m 303 518 l 303 833 l 346 833 l 346 518 l 303 518 m 489 518 l 369 665 l 421 665 l 542 518 l 489 518 m 400 408 q 535 444 478 408 q 626 538 593 479 q 660 672 660 597 q 626 805 660 746 q 535 899 593 864 q 400 933 478 933 q 267 899 325 933 q 177 805 210 864 q 144 672 144 746 q 177 538 144 597 q 267 444 210 479 q 400 408 325 408 m 324 660 l 324 699 l 415 699 q 457 712 443 699 q 471 746 471 725 q 457 780 471 765 q 415 794 443 794 l 324 794 l 324 833 l 417 833 q 488 809 461 833 q 514 747 514 785 q 488 683 514 707 q 417 660 461 660 l 324 660 z "},"™":{"ha":951,"x_min":33,"x_max":918,"o":"m 201 443 l 201 908 l 253 908 l 253 443 l 201 443 m 33 875 l 33 921 l 422 921 l 422 875 l 33 875 m 457 443 l 457 921 l 493 921 l 700 583 l 674 583 l 882 921 l 918 921 l 918 443 l 867 443 l 867 832 l 878 829 l 706 547 l 668 547 l 496 829 l 508 832 l 508 443 l 457 443 z "},"°":{"ha":550,"x_min":64,"x_max":488,"o":"m 275 547 q 166 574 214 547 q 91 649 118 601 q 64 757 64 697 q 91 866 64 818 q 166 942 118 914 q 275 969 214 969 q 384 942 336 969 q 460 866 432 914 q 488 757 488 818 q 460 649 488 697 q 384 574 432 601 q 275 547 336 547 m 276 625 q 367 663 331 625 q 403 758 403 701 q 367 854 403 817 q 276 892 332 892 q 184 854 219 892 q 149 758 149 817 q 185 663 149 701 q 276 625 221 625 z "},"|":{"ha":382,"x_min":146,"x_max":236,"o":"m 146 -181 l 146 1053 l 236 1053 l 236 -181 l 146 -181 z "},"¦":{"ha":382,"x_min":146,"x_max":236,"o":"m 146 543 l 146 1053 l 236 1053 l 236 543 l 146 543 m 146 -181 l 146 331 l 236 331 l 236 -181 l 146 -181 z "},"℠":{"ha":903,"x_min":33,"x_max":869,"o":"m 201 436 q 104 457 144 436 q 33 517 64 478 l 69 551 q 126 501 94 518 q 203 485 158 485 q 277 506 249 485 q 306 563 306 526 q 293 610 306 592 q 259 640 281 628 q 211 660 238 651 q 160 679 185 669 q 113 704 135 689 q 78 743 92 719 q 65 804 65 767 q 84 870 65 842 q 135 913 103 899 q 210 928 168 928 q 294 910 257 928 q 354 861 331 892 l 319 826 q 271 867 297 853 q 208 881 244 881 q 142 861 167 881 q 117 807 117 842 q 130 764 117 781 q 165 736 143 747 q 212 716 186 725 q 263 697 238 707 q 310 670 289 686 q 344 630 331 654 q 357 567 357 606 q 315 471 357 506 q 201 436 274 436 m 408 443 l 408 921 l 444 921 l 651 583 l 625 583 l 833 921 l 869 921 l 869 443 l 818 443 l 818 832 l 829 829 l 657 547 l 619 547 l 447 829 l 460 832 l 460 443 l 408 443 z "},"¢":{"ha":714,"x_min":71,"x_max":658,"o":"m 410 138 q 237 183 314 138 q 115 306 160 228 q 71 479 71 383 q 115 652 71 575 q 237 774 160 729 q 410 818 314 818 q 547 790 483 818 q 657 713 611 763 l 592 647 q 512 705 558 685 q 410 725 465 725 q 288 693 342 725 q 202 606 233 661 q 171 479 171 551 q 202 352 171 408 q 288 264 233 296 q 410 232 342 232 q 513 252 465 232 q 594 310 560 272 l 658 244 q 548 165 613 193 q 410 138 483 138 m 358 14 l 358 942 l 432 942 l 432 14 l 358 14 z "},"¤":{"ha":735,"x_min":58,"x_max":675,"o":"m 367 204 q 227 241 290 204 q 127 340 164 278 q 90 479 90 403 q 127 618 90 557 q 226 716 164 679 q 367 753 289 753 q 508 717 444 753 q 608 619 571 681 q 644 479 644 557 q 608 339 644 401 q 508 240 571 276 q 367 204 446 204 m 111 171 l 58 222 l 174 338 l 226 286 l 111 171 m 367 293 q 459 317 419 293 q 522 384 499 342 q 546 481 546 426 q 522 574 546 533 q 459 639 499 615 q 367 663 419 663 q 275 639 315 663 q 212 574 235 615 q 189 479 189 532 q 212 384 189 426 q 276 317 235 342 q 367 293 317 293 m 624 171 l 508 286 l 560 338 l 675 222 l 624 171 m 174 619 l 58 735 l 111 788 l 226 672 l 174 619 m 560 619 l 508 672 l 624 788 l 675 735 l 560 619 z "},"$":{"ha":822,"x_min":90,"x_max":719,"o":"m 411 -14 q 228 28 307 -14 q 90 147 150 71 l 160 217 q 271 113 208 147 q 415 78 333 78 q 561 120 506 78 q 617 239 617 163 q 592 333 617 296 q 524 392 567 369 q 432 433 482 415 q 331 472 382 451 q 239 522 281 492 q 172 600 197 553 q 146 721 146 647 q 183 854 146 799 q 284 940 219 910 q 431 969 349 969 q 588 933 517 969 q 707 836 660 897 l 638 767 q 543 850 594 821 q 428 879 492 879 q 294 840 344 879 q 244 728 244 800 q 270 640 244 674 q 338 585 296 607 q 431 545 381 563 q 533 507 482 528 q 626 454 583 486 q 694 373 668 422 q 719 247 719 324 q 636 55 719 124 q 411 -14 553 -14 m 396 -139 l 396 1094 l 469 1094 l 469 -139 l 396 -139 z "},"€":{"ha":1014,"x_min":39,"x_max":926,"o":"m 589 -14 q 403 24 486 -14 q 258 129 319 61 q 165 287 197 197 q 132 479 132 376 q 165 672 132 582 q 258 828 197 761 q 401 932 318 894 q 586 969 485 969 q 774 931 693 969 q 919 824 854 892 l 850 754 q 735 842 800 811 q 583 874 669 874 q 399 823 478 874 q 278 683 321 772 q 235 479 235 593 q 278 274 235 364 q 401 133 322 185 q 588 82 481 82 q 742 115 676 82 q 857 204 807 147 l 926 133 q 779 26 863 65 q 589 -14 696 -14 m 39 560 l 39 642 l 694 642 l 668 560 l 39 560 m 39 317 l 39 399 l 638 399 l 611 317 l 39 317 z "},"£":{"ha":857,"x_min":97,"x_max":771,"o":"m 235 7 l 235 676 q 273 835 235 769 q 376 935 311 900 q 521 969 440 969 q 676 932 617 969 q 771 844 736 894 l 703 776 q 628 848 669 821 q 518 875 586 875 q 426 853 468 875 q 361 788 385 831 q 338 685 338 746 l 338 7 l 235 7 m 97 0 l 97 93 l 751 93 l 751 0 l 97 0 m 97 418 l 97 501 l 625 501 l 625 418 l 97 418 z "},"¥":{"ha":899,"x_min":93,"x_max":807,"o":"m 419 388 l 93 956 l 211 956 l 475 468 l 425 468 l 690 956 l 807 956 l 476 388 l 419 388 m 399 0 l 399 454 l 501 454 l 501 0 l 399 0 m 325 642 l 358 560 l 124 560 l 124 642 l 325 642 m 124 317 l 124 399 l 775 399 l 775 317 l 124 317 m 543 560 l 583 642 l 775 642 l 775 560 l 543 560 z "},"∕":{"ha":528,"x_min":28,"x_max":500,"o":"m 28 -56 l 408 1007 l 500 1007 l 119 -56 l 28 -56 z "},"+":{"ha":746,"x_min":89,"x_max":657,"o":"m 89 419 l 89 507 l 657 507 l 657 419 l 89 419 m 328 761 l 418 761 l 418 167 l 328 167 l 328 761 z "},"−":{"ha":746,"x_min":89,"x_max":657,"o":"m 89 419 l 89 507 l 657 507 l 657 419 l 89 419 z "},"×":{"ha":746,"x_min":99,"x_max":647,"o":"m 163 189 l 99 253 l 583 738 l 647 674 l 163 189 m 574 199 l 108 664 l 172 728 l 638 263 l 574 199 z "},"÷":{"ha":746,"x_min":89,"x_max":657,"o":"m 89 419 l 89 507 l 657 507 l 657 419 l 89 419 m 372 621 q 325 641 344 621 q 306 689 306 661 q 325 738 306 718 q 372 757 344 757 q 422 738 403 757 q 440 689 440 718 q 422 641 440 661 q 372 621 403 621 m 372 171 q 325 191 344 171 q 306 239 306 211 q 325 288 306 268 q 372 307 344 307 q 422 288 403 307 q 440 239 440 268 q 422 191 440 211 q 372 171 403 171 z "},"=":{"ha":746,"x_min":89,"x_max":657,"o":"m 89 579 l 89 667 l 657 667 l 657 579 l 89 579 m 89 260 l 89 347 l 657 347 l 657 260 l 89 260 z "},">":{"ha":746,"x_min":89,"x_max":657,"o":"m 89 660 l 89 757 l 657 500 l 657 431 l 89 174 l 89 271 l 579 485 l 579 446 l 89 660 z "},"<":{"ha":746,"x_min":89,"x_max":657,"o":"m 657 174 l 89 431 l 89 500 l 657 757 l 657 660 l 167 446 l 167 485 l 657 271 l 657 174 z "},"±":{"ha":746,"x_min":89,"x_max":657,"o":"m 89 503 l 89 590 l 657 590 l 657 503 l 89 503 m 328 768 l 418 768 l 418 326 l 328 326 l 328 768 m 89 160 l 89 247 l 657 247 l 657 160 l 89 160 z "},"~":{"ha":746,"x_min":82,"x_max":664,"o":"m 496 394 q 431 403 460 394 q 375 425 401 413 q 321 447 349 438 q 258 457 293 457 q 190 442 218 457 q 139 401 161 428 l 82 457 q 155 524 113 500 q 256 549 197 549 q 326 539 296 549 q 383 517 357 529 q 436 495 410 504 q 494 486 463 486 q 558 500 531 486 q 608 540 586 514 l 664 486 q 593 419 635 443 q 496 394 551 394 z "},"¬":{"ha":746,"x_min":89,"x_max":657,"o":"m 89 489 l 89 576 l 657 576 l 657 489 l 89 489 m 567 558 l 657 558 l 657 250 l 567 250 l 567 558 z "},"^":{"ha":632,"x_min":83,"x_max":549,"o":"m 463 635 l 299 928 l 335 928 l 169 635 l 83 635 l 282 983 l 349 983 l 549 635 l 463 635 z "},"µ":{"ha":810,"x_min":146,"x_max":696,"o":"m 146 -257 l 146 653 l 244 653 l 244 -257 l 146 -257 m 433 -14 q 257 58 321 -14 q 193 244 193 131 l 244 269 q 293 129 244 179 q 418 79 342 79 q 547 128 494 79 q 599 269 599 176 l 599 653 l 696 653 l 696 260 q 662 117 696 179 q 569 21 628 56 q 433 -14 510 -14 z "},"%":{"ha":919,"x_min":82,"x_max":838,"o":"m 103 0 l 717 956 l 817 956 l 204 0 l 103 0 m 643 -14 q 546 12 590 -14 q 475 82 501 38 q 449 181 449 126 q 475 278 449 235 q 545 347 501 321 q 643 372 589 372 q 741 347 697 372 q 811 278 785 321 q 838 181 838 235 q 812 82 838 126 q 742 12 786 38 q 643 -14 697 -14 m 642 65 q 724 97 692 65 q 756 181 756 129 q 722 262 756 231 q 642 293 689 293 q 564 262 596 293 q 532 181 532 231 q 564 97 532 129 q 642 65 596 65 m 276 583 q 179 609 224 583 q 108 678 135 635 q 82 776 82 722 q 108 874 82 831 q 178 944 135 918 q 276 969 222 969 q 374 944 331 969 q 444 874 418 918 q 471 776 471 831 q 445 678 471 722 q 375 609 419 635 q 276 583 331 583 m 275 663 q 356 694 325 663 q 388 778 388 726 q 355 859 388 828 q 275 890 322 890 q 197 859 229 890 q 165 778 165 828 q 197 694 165 726 q 275 663 229 663 z "},"↑":{"ha":914,"x_min":122,"x_max":793,"o":"m 411 768 l 504 768 l 504 79 l 411 79 l 411 768 m 793 408 l 457 744 l 122 408 l 122 539 l 457 875 l 793 539 l 793 408 z "},"↗":{"ha":914,"x_min":122,"x_max":793,"o":"m 683 763 l 750 696 l 188 135 l 122 200 l 683 763 m 700 239 l 700 713 l 226 713 l 318 806 l 793 806 l 793 331 l 700 239 z "},"→":{"ha":914,"x_min":67,"x_max":863,"o":"m 756 517 l 756 424 l 67 424 l 67 517 l 756 517 m 396 135 l 732 469 l 396 806 l 526 806 l 863 469 l 526 135 l 396 135 z "},"↘":{"ha":914,"x_min":122,"x_max":793,"o":"m 750 243 l 683 178 l 122 739 l 188 806 l 750 243 m 226 226 l 700 226 l 700 701 l 793 610 l 793 135 l 318 135 l 226 226 z "},"↓":{"ha":914,"x_min":122,"x_max":793,"o":"m 504 172 l 411 172 l 411 861 l 504 861 l 504 172 m 122 531 l 457 196 l 793 531 l 793 400 l 457 65 l 122 400 l 122 531 z "},"↙":{"ha":914,"x_min":122,"x_max":793,"o":"m 231 178 l 165 243 l 726 806 l 793 739 l 231 178 m 214 701 l 214 226 l 689 226 l 597 135 l 122 135 l 122 610 l 214 701 z "},"←":{"ha":914,"x_min":53,"x_max":849,"o":"m 160 424 l 160 517 l 849 517 l 849 424 l 160 424 m 518 806 l 183 469 l 518 135 l 388 135 l 53 469 l 388 806 l 518 806 z "},"↖":{"ha":914,"x_min":122,"x_max":793,"o":"m 165 696 l 231 763 l 793 200 l 726 135 l 165 696 m 689 713 l 214 713 l 214 239 l 122 331 l 122 806 l 597 806 l 689 713 z "},"̈":{"ha":0,"x_min":83,"x_max":482,"o":"m 150 767 q 103 787 122 767 q 83 835 83 807 q 103 883 83 864 q 150 903 122 903 q 199 883 181 903 q 218 835 218 864 q 199 787 218 807 q 150 767 181 767 m 414 767 q 367 787 386 767 q 347 835 347 807 q 367 883 347 864 q 414 903 386 903 q 463 883 444 903 q 482 835 482 864 q 463 787 482 807 q 414 767 444 767 z "},"̇":{"ha":0,"x_min":125,"x_max":260,"o":"m 192 767 q 144 787 164 767 q 125 835 125 807 q 144 883 125 864 q 192 903 164 903 q 241 883 222 903 q 260 835 260 864 q 241 787 260 807 q 192 767 222 767 z "},"̀":{"ha":0,"x_min":56,"x_max":318,"o":"m 274 747 l 56 933 l 133 1011 l 318 792 l 274 747 z "},"́":{"ha":0,"x_min":56,"x_max":318,"o":"m 100 754 l 56 799 l 240 1018 l 318 940 l 100 754 z "},"̋":{"ha":0,"x_min":56,"x_max":444,"o":"m 114 731 l 56 751 l 129 1029 l 233 992 l 114 731 m 326 731 l 268 751 l 342 1029 l 444 992 l 326 731 z "},"̂":{"ha":0,"x_min":56,"x_max":514,"o":"m 100 753 l 56 797 l 246 1011 l 324 1011 l 514 797 l 469 753 l 253 942 l 318 940 l 100 753 z "},"̌":{"ha":0,"x_min":56,"x_max":514,"o":"m 469 1011 l 514 968 l 324 753 l 246 753 l 56 968 l 100 1011 l 317 824 l 251 824 l 469 1011 z "},"̆":{"ha":0,"x_min":56,"x_max":514,"o":"m 514 960 q 484 844 514 896 q 403 763 454 793 q 288 732 353 732 q 167 763 219 732 q 85 844 115 793 q 56 960 56 896 l 146 960 q 184 858 146 899 q 289 817 222 817 q 358 835 326 817 q 407 887 389 854 q 425 960 425 919 l 514 960 z "},"̊":{"ha":0,"x_min":56,"x_max":371,"o":"m 215 732 q 133 753 169 732 q 76 809 97 774 q 56 889 56 844 q 76 969 56 933 q 133 1025 97 1004 q 215 1046 169 1046 q 295 1025 260 1046 q 351 969 331 1004 q 371 889 371 933 q 351 809 371 844 q 296 753 331 774 q 215 732 261 732 m 217 806 q 272 829 249 806 q 296 889 296 853 q 272 949 296 925 q 217 974 249 974 q 155 949 178 974 q 132 889 132 925 q 155 830 132 854 q 217 806 178 806 z "},"̃":{"ha":0,"x_min":56,"x_max":549,"o":"m 404 761 q 329 777 360 761 q 270 808 299 793 q 207 824 242 824 q 149 810 169 824 q 110 771 128 796 l 56 824 q 120 885 86 861 q 206 908 154 908 q 283 893 251 908 q 342 862 314 878 q 403 846 369 846 q 457 859 436 846 q 494 897 478 872 l 549 846 q 485 784 519 807 q 404 761 451 761 z "},"̄":{"ha":0,"x_min":56,"x_max":532,"o":"m 56 875 l 532 875 l 532 793 l 56 793 l 56 875 z "},"̒":{"ha":0,"x_min":56,"x_max":222,"o":"m 222 1021 l 143 867 l 108 858 q 124 880 114 871 q 147 889 133 889 q 195 868 174 889 q 217 814 217 847 q 193 756 217 781 q 136 732 169 732 q 80 756 104 732 q 56 814 56 781 q 61 847 56 828 q 81 896 67 865 l 164 1053 l 222 1021 z "},"̦":{"ha":0,"x_min":57,"x_max":224,"o":"m 117 -431 l 57 -399 l 136 -244 l 172 -236 q 157 -258 167 -249 q 132 -267 147 -267 q 84 -245 106 -267 q 63 -192 63 -224 q 86 -134 63 -158 q 144 -110 110 -110 q 200 -134 176 -110 q 224 -192 224 -158 q 219 -224 224 -206 q 199 -274 214 -243 l 117 -431 z "},"̧":{"ha":0,"x_min":22,"x_max":354,"o":"m 182 -289 q 96 -275 136 -289 q 22 -236 56 -261 l 71 -182 q 117 -209 90 -199 q 176 -219 143 -219 q 244 -205 221 -219 q 267 -167 267 -190 q 243 -126 267 -142 q 174 -111 219 -111 l 124 -111 l 163 15 l 243 15 l 211 -82 l 174 -50 q 306 -81 258 -49 q 354 -168 354 -114 q 308 -256 354 -222 q 182 -289 261 -289 z "},"̨":{"ha":0,"x_min":53,"x_max":292,"o":"m 188 -289 q 93 -260 133 -289 q 53 -168 53 -231 q 88 -65 53 -117 q 182 25 122 -14 l 238 0 q 160 -75 189 -37 q 131 -157 131 -112 q 148 -207 131 -190 q 199 -224 165 -224 q 234 -217 218 -224 q 264 -203 250 -211 l 292 -257 q 247 -279 272 -269 q 188 -289 222 -289 z "},"¨":{"ha":565,"x_min":83,"x_max":482,"o":"m 150 767 q 103 787 122 767 q 83 835 83 807 q 103 883 83 864 q 150 903 122 903 q 199 883 181 903 q 218 835 218 864 q 199 787 218 807 q 150 767 181 767 m 414 767 q 367 787 386 767 q 347 835 347 807 q 367 883 347 864 q 414 903 386 903 q 463 883 444 903 q 482 835 482 864 q 463 787 482 807 q 414 767 444 767 z "},"˙":{"ha":385,"x_min":125,"x_max":260,"o":"m 192 767 q 144 787 164 767 q 125 835 125 807 q 144 883 125 864 q 192 903 164 903 q 241 883 222 903 q 260 835 260 864 q 241 787 260 807 q 192 767 222 767 z "},"`":{"ha":374,"x_min":56,"x_max":318,"o":"m 274 747 l 56 933 l 133 1011 l 318 792 l 274 747 z "},"´":{"ha":374,"x_min":56,"x_max":318,"o":"m 100 754 l 56 799 l 240 1018 l 318 940 l 100 754 z "},"˝":{"ha":500,"x_min":56,"x_max":444,"o":"m 114 731 l 56 751 l 129 1029 l 233 992 l 114 731 m 326 731 l 268 751 l 342 1029 l 444 992 l 326 731 z "},"ˆ":{"ha":569,"x_min":56,"x_max":514,"o":"m 100 753 l 56 797 l 246 1011 l 324 1011 l 514 797 l 469 753 l 253 942 l 318 940 l 100 753 z "},"ˇ":{"ha":569,"x_min":56,"x_max":514,"o":"m 469 1011 l 514 968 l 324 753 l 246 753 l 56 968 l 100 1011 l 317 824 l 251 824 l 469 1011 z "},"˘":{"ha":569,"x_min":56,"x_max":514,"o":"m 514 960 q 484 844 514 896 q 403 763 454 793 q 288 732 353 732 q 167 763 219 732 q 85 844 115 793 q 56 960 56 896 l 146 960 q 184 858 146 899 q 289 817 222 817 q 358 835 326 817 q 407 887 389 854 q 425 960 425 919 l 514 960 z "},"˚":{"ha":426,"x_min":56,"x_max":371,"o":"m 215 732 q 133 753 169 732 q 76 809 97 774 q 56 889 56 844 q 76 969 56 933 q 133 1025 97 1004 q 215 1046 169 1046 q 295 1025 260 1046 q 351 969 331 1004 q 371 889 371 933 q 351 809 371 844 q 296 753 331 774 q 215 732 261 732 m 217 806 q 272 829 249 806 q 296 889 296 853 q 272 949 296 925 q 217 974 249 974 q 155 949 178 974 q 132 889 132 925 q 155 830 132 854 q 217 806 178 806 z "},"˜":{"ha":604,"x_min":56,"x_max":549,"o":"m 404 761 q 329 777 360 761 q 270 808 299 793 q 207 824 242 824 q 149 810 169 824 q 110 771 128 796 l 56 824 q 120 885 86 861 q 206 908 154 908 q 283 893 251 908 q 342 862 314 878 q 403 846 369 846 q 457 859 436 846 q 494 897 478 872 l 549 846 q 485 784 519 807 q 404 761 451 761 z "},"¯":{"ha":588,"x_min":56,"x_max":532,"o":"m 56 875 l 532 875 l 532 793 l 56 793 l 56 875 z "},"¸":{"ha":372,"x_min":22,"x_max":354,"o":"m 182 -289 q 96 -275 136 -289 q 22 -236 56 -261 l 71 -182 q 117 -209 90 -199 q 176 -219 143 -219 q 244 -205 221 -219 q 267 -167 267 -190 q 243 -126 267 -142 q 174 -111 219 -111 l 124 -111 l 163 15 l 243 15 l 211 -82 l 174 -50 q 306 -81 258 -49 q 354 -168 354 -114 q 308 -256 354 -222 q 182 -289 261 -289 z "},"˛":{"ha":347,"x_min":53,"x_max":292,"o":"m 188 -289 q 93 -260 133 -289 q 53 -168 53 -231 q 88 -65 53 -117 q 182 25 122 -14 l 238 0 q 160 -75 189 -37 q 131 -157 131 -112 q 148 -207 131 -190 q 199 -224 165 -224 q 234 -217 218 -224 q 264 -203 250 -211 l 292 -257 q 247 -279 272 -269 q 188 -289 222 -289 z "},"ʼ":{"ha":350,"x_min":76,"x_max":271,"o":"m 76 710 l 181 864 l 219 872 q 204 850 214 858 q 179 842 194 842 q 131 863 153 842 q 110 915 110 883 q 133 974 110 950 q 192 997 157 997 q 248 974 225 997 q 271 917 271 951 q 265 883 271 903 q 240 835 258 863 l 136 678 l 76 710 z "}}}
